/* XPM */
static char *portrait[] = {
/* columns rows colors chars-per-pixel */
"64 32 2 1 ",
"  c gray100",
". c black",
/* pixels */
"........................                                        ",
"..                    ..                                        ",
"..                    ..                                        ",
"..                    ..                                        ",
".. ...                ..                                        ",
"..                    ..                                        ",
"..                    ..                                        ",
".. ... .... .         ..                                        ",
"..                    ..                                        ",
"..                    ..                                        ",
".. ........ .... ..   ..                                        ",
"..                    ..                                        ",
".. .. ... ... ..      ..                                        ",
"..                    ..                                        ",
".. ... ..... .....    ..                                        ",
"..                    ..                                        ",
".. ....  ... ... .... ..                                        ",
"..                    ..                                        ",
".. .... .... .. ...   ..                                        ",
"..                    ..                                        ",
".. .. ...... .....    ..                                        ",
"..                    ..                                        ",
".. ... .... .... ...  ..                                        ",
"..                    ..                                        ",
".. ...  .... .... ..  ..                                        ",
"..                    ..                                        ",
".. ....  .....  ....  ..                                        ",
"..                    ..                                        ",
".. ....  ....  .....  ..                                        ",
"..                    ..                                        ",
"..                    ..                                        ",
"........................                                        "
};
