/* XPM */
static char * saveAs_xpm[] = {
"18 18 246 2",
"  	c None",
". 	c #4D5E8E",
"+ 	c #97A1BB",
"@ 	c #98A1BB",
"# 	c #838EAD",
"$ 	c #A6AEC6",
"% 	c #B6BCD0",
"& 	c #B5BCD0",
"* 	c #B4BBCF",
"= 	c #B1B9CD",
"- 	c #AEB5CA",
"; 	c #ABB2C7",
"> 	c #A7AFC6",
", 	c #A1AAC3",
"' 	c #96A1BC",
") 	c #62719A",
"! 	c #586791",
"~ 	c #4F608D",
"{ 	c #3A4D82",
"] 	c #546494",
"^ 	c #AEB5CB",
"/ 	c #AFB6CB",
"( 	c #99A2BD",
"_ 	c #D1D5E1",
": 	c #E9EBF1",
"< 	c #E8EAF0",
"[ 	c #E6E8EE",
"} 	c #E2E4EB",
"| 	c #DEE0E8",
"1 	c #DADDE5",
"2 	c #D5D9E4",
"3 	c #CACFDD",
"4 	c #7581A4",
"5 	c #576793",
"6 	c #4C5D8D",
"7 	c #384B80",
"8 	c #536393",
"9 	c #AAB2C8",
"0 	c #ADB4CA",
"a 	c #E8EAF1",
"b 	c #E6E9F0",
"c 	c #E4E7EE",
"d 	c #C1C7D6",
"e 	c #A0A9C1",
"f 	c #9DA6BE",
"g 	c #949EB8",
"h 	c #A1A9C2",
"i 	c #6C799E",
"j 	c #4E5E8D",
"k 	c #455788",
"l 	c #394B7D",
"m 	c #526292",
"n 	c #A4ADC5",
"o 	c #A6AEC5",
"p 	c #939DB8",
"q 	c #CFD4DF",
"r 	c #E5E8EF",
"s 	c #E4E7ED",
"t 	c #BEC4D4",
"u 	c #B3BACC",
"v 	c #C0C7D6",
"w 	c #AEB6CA",
"x 	c #A1A9C1",
"y 	c #65749B",
"z 	c #485989",
"A 	c #425383",
"B 	c #37497C",
"C 	c #506291",
"D 	c #9BA6BF",
"E 	c #A0AAC2",
"F 	c #919BB7",
"G 	c #CED3DF",
"H 	c #E6E8EF",
"I 	c #E5E8EE",
"J 	c #E4E6ED",
"K 	c #B9C0D1",
"L 	c #AFB6CA",
"M 	c #ACB3C8",
"N 	c #B3B9CE",
"O 	c #69769C",
"P 	c #455582",
"Q 	c #3F507D",
"R 	c #364879",
"S 	c #4D5D8E",
"T 	c #929DBA",
"U 	c #97A1BD",
"V 	c #7D89AC",
"W 	c #8F99B6",
"X 	c #9EA6BD",
"Y 	c #9CA5BD",
"Z 	c #9AA3BD",
"` 	c #98A2BB",
" .	c #96A0BB",
"..	c #939DBA",
"+.	c #909AB6",
"@.	c #8C96B3",
"#.	c #8490AE",
"$.	c #55638D",
"%.	c #41507C",
"&.	c #3C4C77",
"*.	c #354677",
"=.	c #4A5B8D",
"-.	c #8995B4",
";.	c #909AB8",
">.	c #8B96B4",
",.	c #8590B1",
"'.	c #8691B2",
").	c #848FB0",
"!.	c #7F8AAC",
"~.	c #7683A6",
"{.	c #6B799F",
"].	c #606F9A",
"^.	c #546491",
"/.	c #4A5A88",
"(.	c #475682",
"_.	c #404F7B",
":.	c #3D4C77",
"<.	c #3A4872",
"[.	c #354575",
"}.	c #475A8B",
"|.	c #7C89B0",
"1.	c #808DB1",
"2.	c #8390B0",
"3.	c #8591B1",
"4.	c #AC9D7C",
"5.	c #FFB70A",
"6.	c #C5A14C",
"7.	c #707EA4",
"8.	c #63719B",
"9.	c #536391",
"0.	c #495A88",
"a.	c #43537E",
"b.	c #3E4D79",
"c.	c #3B4A73",
"d.	c #394870",
"e.	c #35436B",
"f.	c #334373",
"g.	c #445687",
"h.	c #6F7CA3",
"i.	c #7380A7",
"j.	c #7380A6",
"k.	c #717FA4",
"l.	c #9D8F74",
"m.	c #AD8F4A",
"n.	c #465788",
"o.	c #41527F",
"p.	c #3F4E79",
"q.	c #3B4972",
"r.	c #38466C",
"s.	c #364469",
"t.	c #324067",
"u.	c #324272",
"v.	c #415387",
"w.	c #64729C",
"x.	c #64729B",
"y.	c #6D7AA0",
"z.	c #6F7DA3",
"A.	c #6E7CA4",
"B.	c #A3926B",
"C.	c #AA9052",
"D.	c #5C6B91",
"E.	c #5A688E",
"F.	c #59668C",
"G.	c #586589",
"H.	c #566286",
"I.	c #455276",
"J.	c #333F62",
"K.	c #3D5085",
"L.	c #566793",
"M.	c #7986A8",
"N.	c #CBD0DC",
"O.	c #E3E6EC",
"P.	c #E2E5EC",
"Q.	c #EED28D",
"R.	c #F9DB94",
"S.	c #F5F6F8",
"T.	c #E7E9EE",
"U.	c #DFE1E7",
"V.	c #8D95AD",
"W.	c #374363",
"X.	c #33426E",
"Y.	c #3A4D81",
"Z.	c #4B5C8C",
"`.	c #7A86A8",
" +	c #D9DDE5",
".+	c #F4F5F7",
"++	c #FAD887",
"@+	c #F9DFA0",
"#+	c #EFF0F3",
"$+	c #939BB1",
"%+	c #364262",
"&+	c #31416F",
"*+	c #394C82",
"=+	c #485988",
"-+	c #7A86A7",
";+	c #D9DCE5",
">+	c #FAD57B",
",+	c #F8E2AD",
"'+	c #949CB2",
")+	c #32426F",
"!+	c #3C4F85",
"~+	c #485987",
"{+	c #7B86A4",
"]+	c #D7DAE4",
"^+	c #F5F5F7",
"/+	c #FBD26E",
"(+	c #F8E5B9",
"_+	c #495B8A",
":+	c #7480A3",
"<+	c #DADEE6",
"[+	c #F4F4F6",
"}+	c #FBCE62",
"|+	c #715B24",
"1+	c #303030",
"2+	c #CCCCCE",
"3+	c #939CB2",
"4+	c #31416E",
"5+	c #475989",
"6+	c #667499",
"7+	c #6E6F6F",
"8+	c #CBCBCC",
"9+	c #48598A",
"0+	c #69779E",
"a+	c #EEEFF2",
"b+	c #EDEEF1",
"c+	c #EAECEF",
"d+	c #E8EAED",
"e+	c #E9EBEE",
"f+	c #F0F2F4",
"g+	c #929BB2",
"h+	c #314270",
"i+	c #3A4D84",
"j+	c #3F5287",
"k+	c #495B8D",
"l+	c #5C6B96",
"m+	c #667395",
"n+	c #6C7797",
"o+	c #687292",
"p+	c #626D8D",
"q+	c #616C8C",
"r+	c #606B8D",
"s+	c #606C8C",
"t+	c #5F6B8B",
"u+	c #47557C",
"v+	c #334066",
"w+	c #36477C",
". + @ # $ % & * = - ; > , ' ) ! ~ { ",
"] ^ / ( _ : : < [ } | 1 2 3 4 5 6 7 ",
"8 9 0 + _ : a b c d e f g h i j k l ",
"m n o p q < b r s t u v w x y z A B ",
"C D E F G H I J } _ K L M N O P Q R ",
"S T U V W X Y Z `  ...+.@.#.$.%.&.*.",
"=.-.;.>.,.'.).!.~.{.].^./.(._.:.<.[.",
"}.|.1.2.3.4.5.6.7.8.9.0.a.b.c.d.e.f.",
"g.h.i.j.k.l.5.5.m.. n.o.p.q.r.s.t.u.",
"v.w.x.y.z.A.B.5.5.C.D.E.F.G.H.I.J.u.",
"K.L.M.N.O.O.P.Q.5.5.R.S.S.T.U.V.W.X.",
"Y.Z.`. +.+S.S.S.++5.5.@+S..+#+$+%+&+",
"*+=+-+;+.+S.S.S..+>+5.5.,+S.S.'+%+)+",
"!+~+{+]+S..+.+^+.+S./+5.5.(+S.'+%+&+",
"K._+:+<+S..+[+[+.+S.S.}+|+1+2+3+%+4+",
"K.5+6+1 [+[+[+[+[+[+^+S.7+1+8+'+%+&+",
"K.9+0+;+a+a+b+c+d+e+f+S.S..+[+g+%+h+",
"i+j+k+l+m+n+o+p+q+q+r+s+p+q+t+u+v+w+"};
