/* XPM */
static char *leftright_small[] = {
/* columns rows colors chars-per-pixel */
"12 12 2 1 ",
"  c none",
". c black",
/* pixels */
"            ",
"            ",
"            ",
"        .   ",
"         .  ",
"          . ",
" ...........",
"          . ",
"         .  ",
"            ",
"            ",
"            "
};
