/* XPM */
static char *text_only[]={
"22 22 31 1",
". c None",
"# c #000000",
"e c #0d0d00",
"u c #0f0f00",
"f c #1b001b",
"b c #1b1b00",
"l c #270027",
"i c #272700",
"o c #2a002a",
"z c #2a2a00",
"y c #515100",
"q c #545400",
"g c #a800a8",
"c c #a8a800",
"r c #ab00ab",
"p c #abab00",
"s c #ae00ae",
"x c #aeae00",
"A c #baba00",
"k c #bdbd00",
"h c #e400e4",
"d c #e4e400",
"C c #e700e7",
"B c #e7e700",
"m c #ed00ed",
"j c #eded00",
"v c #f000f0",
"t c #f0f000",
"w c #f300f3",
"n c #ff00ff",
"a c #ffff00",
"..################....",
"..#a#a##a#aaa##aa##...",
"..#a#aa#a#a###a##a#...",
"..#a#aaaa#aaa#a##a#...",
"..#a#a#aa#a###a##a#...",
"..#a#a##a#a#.##aa##...",
"..################....",
"....#bcddcefghhgf#....",
"....ijaaaklmnnnnmo....",
"...#paaaaqrnnnnnns#...",
"...#taaaauvnnnnnnw#...",
"...#taaaauvnnnnnnw#...",
"...#xaaaaysnnnnnns#...",
"....zjaaaAomnnnnmo....",
"....#bpBBpefrCCrf#....",
"..###############.###.",
".##aa##a##a#a##a###a#.",
".#a##a#aa#a#a###a#a##.",
".#a##a#aaaa#a#.##a##..",
".#a##a#a#aa#a####a#...",
".##aa##a##a#aaa##a#...",
"..#################..."};
