/* XPM */
static char * msg_xpm[] = {
"32 32 25 1",
" 	c None",
".	c #212321",
"+	c #3B3B31",
"@	c #706E13",
"#	c #D24E00",
"$	c #CC5700",
"%	c #747673",
"&	c #E48400",
"*	c #92948F",
"=	c #A2A05A",
"-	c #A29F82",
";	c #AFAF35",
">	c #E8A101",
",	c #F2AB00",
"'	c #FAC600",
")	c #F7D60F",
"!	c #D0CFB6",
"~	c #FFFE0B",
"{	c #FDFC3E",
"]	c #FFFC62",
"^	c #FEFC83",
"/	c #FFFC9A",
"(	c #FEFDAE",
"_	c #F9F8DA",
":	c #FCFCC4",
"                                ",
"                                ",
"                                ",
"              ####              ",
"              #&&#              ",
"             ##,'##             ",
"             #>''>#             ",
"            #$'::'$#            ",
"           ##,(__(,#$           ",
"           #&'____]$#           ",
"          ##':!**!:'$$          ",
"          #&/_****!/&#          ",
"         #$':!****!:)$#         ",
"         #,/__****!:/,#         ",
"        #&):::****:::)&#        ",
"       ##'(:::-***:(:/'#$       ",
"       #&](((:!%%!(((/]&#       ",
"      #$)/(((((%%:/(//^)$#      ",
"      #,]//////%%//^//^{,#      ",
"     #$~^//////--^^^^^]])&#     ",
"    ##']^]^^^^]^^^^]]]]]{'#$    ",
"    #&~]]]]]]]]]]]]]]]]{]~&#    ",
"   #$){]]]]]]{=++={{{{{{{{)$$   ",
"   #>~{{{{{{{{+...{{{~~~~~~>#   ",
"  #$~{~~~{{{{{+...{{~~{~{~~~$#  ",
"  #'~~~~~~~~~~;..@~~~~~~~~~~'#  ",
" #&~~~~~~~~~~~~~~~~~~~~~~~~~~&# ",
" #&))))))))))))))))))))))))))&# ",
" ######$#$$$#$##$#$#$#$#######$ ",
"                                ",
"                                ",
"                                "};
