/* XPM */
static char *move2[] = {
/* columns rows colors chars-per-pixel */
"16 16 2 1 ",
"  c gray100",
". c black",
/* pixels */
"                ",
"                ",
"        ...     ",
"         ...    ",
"          ...   ",
"           ...  ",
"............... ",
"................",
"............... ",
"           ...  ",
"          ...   ",
"         ...    ",
"        ...     ",
"                ",
"                ",
"                "
};
