/* XPM */
static char *spread[] = {
/* columns rows colors chars-per-pixel */
"24 24 2 1 ",
"  c gray100",
". c black",
/* pixels */
"                        ",
"                        ",
"              ..        ",
"             ...        ",
"            ...         ",
"           ...          ",
"          ...       ..  ",
"         .....      ..  ",
"        ...  ..   ......",
"..........   ..   ......",
"..........   ..     ..  ",
"...........  ..     ..  ",
"         .....          ",
"          ...     ......",
"           ...    ......",
"            ...         ",
"             ...        ",
"              ..        ",
"                        ",
"                        ",
"                        ",
"                        ",
"                        ",
"                        "
};
