/* XPM */
static char * Close_xpm[] = {
"16 16 3 1",
" 	c None",
".	c #EA0606",
"+	c #FFFFFF",
"     ......     ",
"   ..........   ",
"  .+.......+..  ",
" .+++.....+++.  ",
" .++++...++++.. ",
"...++++.++++....",
"....+++++++.....",
".....+++++......",
"....+++++++.....",
"...++++.++++....",
"..++++...++++...",
" .+++.....+++.. ",
" ..+.......+... ",
"  ............  ",
"    ........    ",
"     ......     "};
