/* XPM */
static char *search[] = {
/* columns rows colors chars-per-pixel */
"50 9 2 1 ",
"  c gray100",
". c black",
/* pixels */
"                                                  ",
"     .....  .....  ....  .....   ....   ..  ..    ",
"    ....... ..... ...... ...... ......  ..  ..    ",
"    ..      ..    ..  .. ..  .. ... ..  ..  ..    ",
"    ......  ....  ..  .. ..  .. ..      ......    ",
"     ...... ....  ...... .....  ..      ......    ",
"         .. ..    ...... .....  ... ..  ..  ..    ",
"    ....... ..... ..  .. .. ... ......  ..  ..    ",
"     .....  ..... ..  .. ..  ..  ....   ..  ..    "
};
