/* XPM */ 
static const unsigned char * search_xpm[] = {
"70 18 27 1",
" 	c None",
"!	c black",
"#	c white",
"$	c #D4E5F7",
"%	c #C1D9F3",
"&	c #ADCDF0",
"'	c #9DC4ED",
"(	c #D9E8F8",
")	c #B9D5F2",
"*	c #A0C6ED",
"+	c #8AB9E9",
",	c #80B3E7",
"-	c #719FCD",
".	c #CDE1F5",
"0	c #A8CBEF",
"1	c #90BDEA",
"2	c #7FB2E6",
"3	c #6E9AC7",
"4	c #98C1EC",
"5	c #84B5E8",
"6	c #7DAFE2",
"7	c #B3D1F1",
"8	c #7AABDC",
"9	c #6993BD",
":	c #73A1CF",
";	c #6A95C0",
"<	c #FF9933",
"                                                                      ",
"                                                                      ",
"                                                                      ",
"                                                                      ",
"      ####                                                            ",
"     #$%&'#                                           !!              ",
"    #()*+,-#           !!!!!                          !!              ",
"    #.01,23#          !!                              !!              ",
"    #%45,63#          !!      !!!!   !!!!  !! !  !!!! !!!!!           ",
"    #7+,689#          !!!!!  !!  !!     !! !!!! !!    !!  !!          ",
"     #:-3;#<           !!!!! !!!!!!  !!!!! !!   !!    !!  !!          ",
"      ####<<<             !! !!     !!  !! !!   !!    !!  !!          ",
"           <<<            !! !!     !!  !! !!   !!    !!  !!          ",
"            <<<       !!!!!   !!!!!  !!!!! !!    !!!! !!  !!          ",
"             <<<                                                      ",
"              <<                                                      ",
"                                                                      ",
"                                                                      "};