/* XPM */
static char * rna3d_xpm[] = {
"42 21 5 1",
" 	c None",
".	c #F1F1F1",
"+	c #464646",
"@	c #FF2B08",
"#	c #802B08",
"..................+++.....................",
"...............+++.+.++...................",
"..............+..+..+.++++++++............",
"............+++..+.++++....+..++..........",
"++++++.....++..++++...++..+..+..++........",
".+.+..+...+.++++........++..+...+.++......",
".+.+..+..+.++............+.+...+..+.+....+",
".+.+..+++++++++++.........+..++..+..+..++.",
"+++++++++...+....++........++....+...+++++",
".....++..+..+..++..+.........+++++++++++..",
"+++++....+.+..+...+.+............++.+..+..",
".+.+......++.+...+..++........++++.+...+..",
".++.........++..+..+..++...++++..++.....++",
".+..@@..@@@@..++..+....++++.+..+++........",
"...@##@.#@##@...++++++++.+..+..+..........",
"...##.@#.@#.#@.........++.+.+++...........",
".....@##.@#..@#..........+++..............",
"......@#.@#..@#...........................",
"...@#.@#.@#.@##...........................",
"...#@@##@@@@##............................",
"....###.#####............................."};
