/* XPM */
static char *uncheck[]={
"18 18 6 1",
". c None",
"b c #4c4c4c",
"a c #545454",
"# c #575757",
"d c #676767",
"c c #ffffff",
".#aaaaaaaaaaaaaa#.",
"#aaaaaaaaaaaaaaaa#",
"aaaaaaaaaaaaaaaaaa",
"aaaaaaaaaaaaaaaaaa",
"aaaabbbaaaabbbaaaa",
"aaaabccbaabccbaaaa",
"aaaabbccbbccbbaaaa",
"aaaaabbcbbcbdaaaaa",
"aaaaaabbccbdaaaaaa",
"aaaaaabbccbbaaaaaa",
"aaaaabbcbbcbbaaaaa",
"aaaabbccdbccbbaaaa",
"aaaabccdaabccbaaaa",
"aaaabbbaaaabbbaaaa",
"aaaaaaaaaaaaaaaaaa",
"aaaaaaaaaaaaaaaaaa",
"#aaaaaaaaaaaaaaaa#",
".#aaaaaaaaaaaaaa#."};
