/* XPM */
static char * close_xpm[] = {
"18 18 44 1",
" 	c None",
".	c #FF0000",
"+	c #FF2B2B",
"@	c #FF1111",
"#	c #FF3535",
"$	c #FF0707",
"%	c #FF3636",
"&	c #FFEEEE",
"*	c #FF8383",
"=	c #FF2828",
"-	c #FFC2C2",
";	c #FF4343",
">	c #FF3232",
",	c #FF0A0A",
"'	c #FFD0D0",
")	c #FFEBEB",
"!	c #FF7979",
"~	c #FF2424",
"{	c #FFB8B8",
"]	c #FFFFFF",
"^	c #FF7272",
"/	c #FF0D0D",
"(	c #FFD3D3",
"_	c #FFE7E7",
":	c #FF6F6F",
"<	c #FF2121",
"[	c #FFAEAE",
"}	c #FF7C7C",
"|	c #FF3C3C",
"1	c #FFD7D7",
"2	c #FFE4E4",
"3	c #FF8282",
"4	c #FFA4A4",
"5	c #FF8686",
"6	c #FF1414",
"7	c #FF4646",
"8	c #FFDADA",
"9	c #FF9090",
"0	c #FF1717",
"a	c #FFDDDD",
"b	c #FF5050",
"c	c #FFE1E1",
"d	c #FF6565",
"e	c #FF6767",
" ................ ",
"..................",
"..................",
"............+@.#$.",
"...%&*.....=-;>,..",
"...=')!...~{]^/...",
"....>(_:.<[]}@....",
".....|1234]56.....",
"......78]]90......",
"......09]ab.......",
".....65]cc87......",
"....@}][<d21|.....",
".../^]{~..:_(>....",
"..,e]-=....!);....",
".$#.@+......*>....",
"..................",
"..................",
" ................ "};
