/* XPM */
static char *edit_sec[] = {
/* columns rows colors chars-per-pixel */
"45 13 2 1 ",
"  c gray100",
". c black",
/* pixels */
"      ...         .           .              ",
"     .   .       .             .             ",
"    .     ........             .             ",
"    .                          .             ",
"    .     .......               ..           ",
"     .   .       .                ..     ... ",
"    .  ..        .             ...  ..  .   .",
"....  .          .             .  ..  ..     ",
"     .            .           .     ..       ",
"    .             .           .       ..     ",
"     .             ..       ..          .   .",
"     .               .......             ... ",
"     .                                       "
};
