/* XPM */
static char *exit[]={
"20 20 333 2",
"Qt c None",
"d# c None",
".o c None",
".# c #757575",
".n c #808080",
".G c #825853",
"cZ c #856460",
"dk c #8a615d",
".m c #564240",
".F c #854b45",
"da c #864b45",
".a c #5b403d",
".p c #80362e",
"cL c #7b2219",
".l c #832f25",
".Z c #7c2116",
".b c #832c22",
"cs c #822216",
"#g c #822317",
".k c #86281c",
".c c #862a1d",
"cb c #81271a",
"bG c #82281b",
"aW c #83291c",
"#A c #832a1d",
"#R c #832a1e",
".i c #852e21",
".h c #862e22",
".g c #862f22",
".d c #862f23",
".f c #863023",
".e c #863024",
".j c #842c1f",
"dj c #802116",
"d. c #812216",
".Y c #812015",
"db c #802015",
".E c #852014",
"c0 c #862114",
".H c #892315",
".q c #892316",
"di c #831d11",
"cY c #831e10",
"dc c #852013",
"#f c #862013",
".D c #912818",
"cM c #922818",
".0 c #932d1d",
".r c #932d1e",
"c9 c #992312",
".X c #a02c1b",
"cK c #862012",
"dh c #862012",
"#z c #882617",
"dd c #882616",
"ct c #92311f",
".I c #a73625",
".C c #92311f",
"#h c #943627",
".s c #943626",
"#Q c #862918",
"cr c #842213",
"ca c #852313",
"bW c #852413",
"bF c #862414",
"bp c #862515",
"bb c #862516",
"df c #862616",
"aV c #862716",
"aE c #872717",
"am c #872817",
"#8 c #872818",
"dg c #842212",
"de c #862918",
"#B c #943c2b",
"cc c #913725",
".A c #923826",
".z c #923927",
"bq c #933928",
".y c #933a28",
".x c #933a29",
".v c #933b2a",
".u c #933b2b",
".w c #943b2a",
".B c #913724",
".t c #943c2c",
".3 c #ba5d39",
".4 c #ba5f3a",
".5 c #bb603a",
"#j c #bd613f",
".2 c #bd623f",
".6 c #bd6640",
"ao c #bf6843",
"#. c #c06f48",
"## c #c07049",
".7 c #c16d4a",
"cW c #c17052",
"bH c #c17149",
"aG c #c2704d",
".9 c #c2724d",
"#a c #c2744d",
"br c #c3734c",
"bc c #c37651",
"#b c #c37750",
".8 c #c47350",
"aY c #c47451",
"#d c #c47f59",
".1 c #c57c5d",
"cv c #c67d55",
"#c c #c67d56",
"cN c #c68059",
"#O c #c6805a",
"#x c #c68159",
"#6 c #c7845d",
"cO c #c7855f",
"ak c #c7865f",
"aC c #c88862",
"cP c #c98963",
".V c #ca7653",
"aT c #cb8e68",
"cQ c #cc8e6a",
"b# c #cd916d",
".U c #ce7f5a",
".K c #ce7f63",
"cR c #ce9370",
"bn c #ce9472",
"bD c #cf9775",
"cS c #d09574",
"cT c #d09775",
"bU c #d09978",
"cU c #d09979",
"cI c #d19a7e",
"cV c #d29b7e",
"c. c #d29d7e",
"cp c #d39f82",
"c7 c #bf5537",
"cJ c #c05437",
".W c #c15438",
"cd c #c4764f",
"#v c #c47650",
".J c #c7624b",
"cq c #c76847",
"#y c #c86f4c",
"c# c #c96c4b",
"c6 c #c96d4b",
"c5 c #c96e4c",
"bV c #c96f4c",
"bE c #ca6f4d",
"bo c #ca704c",
"c4 c #ca714d",
"cu c #ca7652",
"ba c #cb714d",
"c3 c #cb724d",
"c2 c #cb734d",
"aU c #cb734e",
"aD c #cb744e",
"al c #cb754f",
"c1 c #cc7650",
"#7 c #cc7651",
"#P c #cc7751",
"aX c #ce7d5b",
".T c #ce7e5a",
".Q c #ce7e5b",
"aF c #ce7e5c",
"#S c #ce7e5f",
"bX c #ce7f5a",
".P c #cf7e5d",
"an c #cf7e5e",
"#i c #cf7e63",
".R c #cf7f5b",
".S c #cf7f5c",
".O c #cf7f5d",
".N c #cf7f5f",
".M c #cf7f60",
".L c #d08162",
"co c #d4a081",
"cG c #d4a082",
"#k c #b7532f",
"c8 c #b93921",
"#l c #b95934",
"cX c #ba3921",
"#m c #bc603b",
"#T c #bd623c",
"#C c #bf6540",
"at c #bf6c43",
"#e c #c14f35",
"aK c #c16f48",
"aL c #c26f47",
"a3 c #c27149",
"a2 c #c2724a",
"ab c #c3724b",
"as c #c3734e",
"#u c #c3744d",
"bf c #c3754e",
"ax c #c3774f",
"bY c #c47751",
"#w c #c57852",
"aP c #c57a52",
"a6 c #c57d55",
"#N c #c57d56",
"cw c #c67c55",
"#M c #c67d56",
"bi c #c68059",
"#5 c #c78059",
"by c #c7835a",
"cx c #c8825d",
"#n c #c97c5c",
"bv c #c9805b",
"ce c #c9815b",
"aQ c #c9835e",
"af c #c9835f",
"a7 c #c9865f",
"#9 c #ca8060",
"bM c #ca845f",
"#t c #cb8461",
"bj c #cb8b65",
"a1 c #cd8b6c",
"aj c #cd8f6c",
"ae c #ce8d6c",
"bI c #ce8d6e",
"ay c #cf8f6c",
"aJ c #d09174",
"bQ c #d09674",
"cy c #d19674",
"bz c #d29b7a",
"be c #d3997c",
"#Z c #d3997d",
"b9 c #d39d7d",
"cF c #d39d7e",
"bP c #d49c7b",
"#L c #d49c7e",
"#4 c #d49d7f",
"#D c #d59a80",
"#U c #d69a82",
"cH c #d6a78b",
"ac c #d79c81",
"#Y c #d79c82",
"#o c #d79e86",
"aw c #d79f83",
"#s c #d79f84",
"bT c #d7a385",
"cE c #d7a486",
"aB c #d8a78a",
"aO c #d9a287",
"aa c #d9a389",
"a5 c #d9a589",
"bx c #d9a88b",
"#0 c #daa68d",
"bh c #daa78b",
"bN c #dba78c",
"bZ c #dba88f",
"ap c #dca791",
"cf c #dcab91",
"b8 c #dcaf95",
"b2 c #dcaf96",
"b3 c #dcb198",
"cz c #ddb197",
"bC c #ddb198",
"cn c #ddb298",
"bs c #deb098",
"bL c #dfb29a",
"a8 c #dfb59e",
"cD c #e0b69e",
"b4 c #e0b8a0",
"aR c #e2baa4",
"#r c #e3b9a6",
"ar c #e3baa8",
"#p c #e4baaa",
"aS c #e4bea7",
"bk c #e4c0ab",
"#X c #e5beac",
"bm c #e5c1ac",
"ag c #e5c2ad",
"au c #e6baa5",
"aM c #e6bca7",
"aH c #e6c1b1",
"b. c #e6c3ae",
"bu c #e6c3b2",
"#q c #e6c3b3",
"a4 c #e7bda9",
"bg c #e7bfaa",
"bw c #e7c0ab",
"aZ c #e8c8ba",
"cA c #e8c9b6",
"b1 c #e8c9b7",
"cC c #e9cab7",
"cB c #e9cdbc",
"bR c #e9cebc",
"ai c #eacebe",
"#1 c #ebcebf",
"bO c #ebd2c4",
"#K c #ecd0c2",
"ad c #edd4c8",
"bS c #eed6c8",
"b5 c #eed7c9",
"#E c #efd5cb",
"az c #efd7c9",
"cm c #efd8ca",
"a. c #efd8ce",
"cg c #f0dace",
"bA c #f0dcd0",
"bJ c #f0dcd1",
"#3 c #f0ddd2",
"#H c #f1e3dc",
"b7 c #f2e2d8",
"a0 c #f3e4de",
"#V c #f4e3dc",
"cj c #f4eae4",
"aI c #f5e8e2",
"a# c #f6e9e2",
"bd c #f6ebe5",
"b0 c #f7e9e2",
"#W c #f7eae5",
"aA c #f7ece6",
"#G c #f7ede8",
"bB c #f7eee8",
"#J c #f8eee8",
"#I c #f8efeb",
"ci c #f8f0eb",
"bK c #f9ede8",
"#F c #f9efea",
"cl c #f9efeb",
"ch c #f9f0eb",
"#2 c #f9f3ee",
"a9 c #faf2ee",
"ck c #faf3ee",
"ah c #faf5f0",
"aq c #fbf3ef",
"bl c #fbf3f0",
"bt c #fbf5f1",
"b6 c #fbf5f2",
"av c #fbf7f4",
"aN c #fcf7f5",
"Qt.#.a.b.c.d.e.f.f.f.g.g.h.i.i.j.k.l.m.n",
".o.p.q.r.s.t.u.v.w.w.x.y.z.A.A.B.C.D.E.F",
".G.H.I.J.K.L.M.N.O.P.Q.R.S.Q.T.U.V.W.X.Y",
".Z.0.J.1.2.3.4.5.6.7.8.9#.###a#b#c#d#e#f",
"#g#h#i#j#k#l#m#n#o#p#q#r#s#t#u#v#w#x#y#z",
"#A#B.L.3#l#C#D#E#F#G#H#I#J#K#L#M#N#O#P#Q",
"#R.u#S.4#T#U#V#W#X#Y#Z#0#1#2#3#4#5#6#7#8",
"#A.v.N.5#9a.a#aaabacadaeafagahaiajakalam",
"#A.wanaoapaqarasatauavawaxayazaAaBaCaDaE",
"#A.waFaGaHaIaJaKaLaMaNaOaPaQaRaqaSaTaUaV",
"aW.xaXaYaZa0a1a2a3a4aNa5a6a7a8a9b.b#babb",
"aW.y.Tbc#qbdbebf#ubgaNbhbibjbkblbmbnbobp",
"aWbq.QbrbsbtbubvaxbwaNbxbybzbAbBbCbDbEbF",
"bG.A.QbHbIbJbKbLbMbNbObPbQbRbtbSbTbUbVbW",
"bG.AbX#abYbZb0#Jb1b2b3b4b5b6b7b8b9c.c#ca",
"cbcc.T#bcdcecfcgchcicjckclcmcnb9cocpcqcr",
"csctcucv#wcwcxcyczcAcBcCcDcEcFcGcHcIcJcK",
"cLcM.W#dcNcN#6cOcPcQcRcScTcUc.cpcVcWcXcY",
"cZc0.X#e#y#Pc1alaDc2c3c4boc5c6cqc7c8c9d.",
"d#dadbdcddde#8amaEaVdfbpbFbWcadgdhdidjdk"};
