/* XPM */
static char *not[] = {
/* columns rows colors chars-per-pixel */
"19 13 2 1 ",
"  c gray100",
". c black",
/* pixels */
"                   ",
"          ..       ",
"          ..       ",
"     .........     ",
"     .........     ",
"         ..        ",
"        ..         ",
"     .........     ",
"     .........     ",
"       ..          ",
"       ..          ",
"                   ",
"                   "
};
