/* XPM */
static char * bases_xpm[] = {
"69 19 100 2",
"  	c None",
". 	c #088B08",
"+ 	c #1857E5",
"@ 	c #E52218",
"# 	c #F8C7C5",
"$ 	c #FFFFFF",
"% 	c #F3A19D",
"& 	c #0B8C0B",
"* 	c #8CC98C",
"= 	c #EAF5EA",
"- 	c #F8FBF8",
"; 	c #C3E3C3",
"> 	c #E7372E",
", 	c #FEFDFD",
"' 	c #FEFEFE",
") 	c #FCE9E8",
"! 	c #E52319",
"~ 	c #84C584",
"{ 	c #69B869",
"] 	c #2B9B2B",
"^ 	c #7CC17C",
"/ 	c #F0807A",
"( 	c #F5AFAB",
"_ 	c #EB5951",
": 	c #E2F1E2",
"< 	c #C5E4C5",
"[ 	c #F8CBC9",
"} 	c #FDF2F1",
"| 	c #E84037",
"1 	c #F4A4A0",
"2 	c #FCFDFC",
"3 	c #A5D5A5",
"4 	c #131316",
"5 	c #E73A31",
"6 	c #F6B7B3",
"7 	c #FBDDDB",
"8 	c #FCECEB",
"9 	c #E5241A",
"0 	c #E3F2E3",
"a 	c #C4E3C4",
"b 	c #F0847F",
"c 	c #EC5D56",
"d 	c #86C686",
"e 	c #66B766",
"f 	c #299A29",
"g 	c #7AC07A",
"h 	c #A3A3A4",
"i 	c #F9D0CE",
"j 	c #EA4E46",
"k 	c #E94B43",
"l 	c #FEFCFC",
"m 	c #F4A9A5",
"n 	c #7CA0F0",
"o 	c #DEE7FB",
"p 	c #FBFCFE",
"q 	c #F0F4FD",
"r 	c #BFD0F7",
"s 	c #8ECA8E",
"t 	c #EBF5EB",
"u 	c #F9FCF9",
"v 	c #EA0606",
"w 	c #80A2F0",
"x 	c #86A7F1",
"y 	c #376EE8",
"z 	c #497BEA",
"A 	c #96B3F3",
"B 	c #E2E9FB",
"C 	c #C8D7F8",
"D 	c #A8BFF5",
"E 	c #A1BBF4",
"F 	c #F5F7FD",
"G 	c #F8F8F8",
"H 	c #AAAAAB",
"I 	c #1A1A1D",
"J 	c #9B9B9D",
"K 	c #111010",
"L 	c #E3EBFB",
"M 	c #C6D6F8",
"N 	c #2B65E7",
"O 	c #B2C7F6",
"P 	c #C7C7C8",
"Q 	c #EBEBEB",
"R 	c #5C5C5E",
"S 	c #8D8D8E",
"T 	c #69696A",
"U 	c #88A8F1",
"V 	c #7DA0F0",
"W 	c #356CE8",
"X 	c #B8CBF7",
"Y 	c #39393C",
"Z 	c #CACACA",
"` 	c #FAFAFA",
" .	c #EFEFEF",
"..	c #9A9A9B",
"+.	c #141417",
"@.	c #1958E5",
"#.	c #8AAAF1",
"$.	c #E6EDFC",
"%.	c #FCFDFE",
"&.	c #A8C0F5",
"                                                                                                                                          ",
"                                                                  . . . .                                                                 ",
"                                                              . . . . . . . .                                                             ",
"+ +       @ @ @ @                                       + + . . . . . . . . . .                                                           ",
"  + +   @ @ # $ % @                                 + + +   . . & * = - ; . . .                                                           ",
"      @ @ > , ' ) ! @                           + + +     . . . ~ $ { ] ^ . . . .                                                         ",
"    @ @ @ / $ ( $ _ @ @                       + +         . . . : < . . . . . . .                                                         ",
"    @ @ @ [ } | $ 1 @ @                       +           . . . 2 3 . . . . . . . . .                 4 4 4                               ",
"    @ @ 5 ' 6 @ 7 8 9 @                   + + +           . . . 0 a . . . . . . .     . . . .     4 4 4 4 4 4 4                           ",
"    @ @ b $ $ $ $ $ c @               + + + + + + +         . . d $ e f g . . .             . . 4 4 $ h 4 4 $ h 4                         ",
"      @ i 8 j k c l m               + + n o p q r + +       . . & s t u a . . .                 4 4 $ h 4 4 $ h 4                         ",
"        @ @ @ @ @ @   v             + w $ x y z A + +         . . . . . . . .                 4 4 4 $ h 4 4 $ h 4 4                       ",
"          @ @ @ @   v v v v       + + B C + + + + + + +           . . . .                     4 4 4 $ h 4 4 $ h 4 4                       ",
"                        v v v v   + + p D + E F F + + +                                       4 4 4 G H 4 I $ J 4 4                 K K   ",
"                          v v v v + + L M + N O $ + + +                                         4 4 P Q R S $ T 4 K K           K K K     ",
"                              v v   + U $ V W X $ + +                                           4 4 Y Z `  ...+.4   K K K K K K K         ",
"                                    + @.#.$.%.$.&.+ +                                             4 4 4 4 4 4 4                           ",
"                                      + + + + + + +                                                   4 4 4                               ",
"                                          + + +                                                                                           "};
