/* XPM */
static char *basesText[]={
"120 19 100 2",
"Qt c None",
".t c #008000",
".# c #088b08",
".f c #0b8c0b",
"#j c #111010",
".F c #131316",
"#C c #141417",
".a c #1857e5",
"#D c #1958e5",
"#h c #1a1a1d",
".R c #299a29",
"#m c #2b65e7",
".r c #2b9b2b",
"#v c #356ce8",
".8 c #376ee8",
"#x c #39393c",
".9 c #497bea",
"#q c #5c5c5e",
".Q c #66b766",
"#s c #69696a",
".q c #69b869",
".S c #7ac07a",
".Y c #7ca0f0",
".s c #7cc17c",
"#u c #7da0f0",
".6 c #80a2f0",
".p c #84c584",
".7 c #86a7f1",
".P c #86c686",
"#t c #88a8f1",
"#E c #8aaaf1",
".g c #8cc98c",
"#r c #8d8d8e",
".3 c #8eca8e",
"#. c #96b3f3",
"#B c #9a9a9b",
"#i c #9b9b9d",
"#d c #a1bbf4",
".T c #a3a3a4",
".E c #a5d5a5",
"#c c #a8bff5",
"#H c #a8c0f5",
"#g c #aaaaab",
"#n c #b2c7f6",
"#w c #b8cbf7",
".2 c #bfd0f7",
".j c #c3e3c3",
".M c #c4e3c4",
".y c #c5e4c5",
"#l c #c6d6f8",
"#o c #c7c7c8",
"#b c #c8d7f8",
"#y c #cacaca",
".Z c #dee7fb",
"#a c #e2e9fb",
".x c #e2f1e2",
"#k c #e3ebfb",
".L c #e3f2e3",
".b c #e52218",
".o c #e52319",
".K c #e5241a",
"#F c #e6edfc",
".k c #e7372e",
".G c #e73a31",
".B c #e84037",
".W c #e94b43",
"## c #ea0606",
".V c #ea4e46",
".h c #eaf5ea",
".w c #eb5951",
"#p c #ebebeb",
".4 c #ebf5eb",
".O c #ec5d56",
"#A c #efefef",
".u c #f0807a",
".N c #f0847f",
".1 c #f0f4fd",
".e c #f3a19d",
".C c #f4a4a0",
".v c #f5afab",
"#e c #f5f7fd",
".H c #f6b7b3",
".c c #f8c7c5",
".z c #f8cbc9",
"#f c #f8f8f8",
".i c #f8fbf8",
".U c #f9d0ce",
".5 c #f9fcf9",
"#z c #fafafa",
".I c #fbdddb",
".0 c #fbfcfe",
".n c #fce9e8",
".J c #fceceb",
".D c #fcfdfc",
"#G c #fcfdfe",
".A c #fdf2f1",
".X c #fefcfc",
".l c #fefdfd",
".m c #fefefe",
".d c #ffffff",
"QtQtQtQtQtQtQtQtQtQtQtQtQtQtQtQtQtQtQtQtQtQtQtQtQtQtQtQtQtQtQtQtQtQtQtQtQtQtQtQtQtQtQtQtQtQtQtQtQtQtQtQtQtQtQtQtQtQtQtQtQtQtQtQtQtQtQtQtQtQtQtQtQtQtQtQtQtQtQtQtQtQtQtQtQtQtQtQtQtQtQtQtQtQtQtQtQtQtQtQtQtQtQtQtQtQtQtQtQtQtQtQtQtQtQtQtQtQtQtQt",
"QtQtQtQtQtQtQtQtQtQtQtQtQtQtQtQtQtQtQtQtQtQtQtQtQtQtQtQtQtQtQtQtQt.#.#.#.#QtQtQtQtQtQtQtQtQtQtQtQtQtQtQtQtQtQtQtQtQtQtQtQtQtQtQtQtQtQtQtQtQtQtQtQtQtQtQtQtQtQtQtQtQtQtQtQtQtQtQtQtQtQtQtQtQtQtQtQtQtQtQtQtQtQtQtQtQtQtQtQtQtQtQtQtQtQtQtQtQtQtQt",
"QtQtQtQtQtQtQtQtQtQtQtQtQtQtQtQtQtQtQtQtQtQtQtQtQtQtQtQtQtQtQt.#.#.#.#.#.#.#.#QtQtQtQtQtQtQtQtQtQtQtQtQtQtQtQtQtQtQtQtQtQtQtQtQtQtQtQtQtQtQtQtQtQtQtQtQtQtQtQtQtQtQtQtQtQtQtQtQtQtQtQtQtQtQtQtQtQtQtQtQtQtQtQtQtQtQtQtQtQtQtQtQtQtQtQtQtQtQtQtQt",
".a.aQtQtQt.b.b.b.bQtQtQtQtQtQtQtQtQtQtQtQtQtQtQtQtQtQtQt.a.a.#.#.#.#.#.#.#.#.#.#QtQtQtQtQtQtQtQtQtQtQtQtQtQtQtQtQtQtQtQtQtQtQtQtQtQtQtQtQtQtQtQtQtQtQtQtQtQtQtQtQtQtQtQtQtQtQtQtQtQtQtQtQtQtQtQtQtQtQtQtQtQtQtQtQtQtQtQtQtQtQtQtQtQtQtQtQtQtQtQt",
"Qt.a.aQt.b.b.c.d.e.bQtQtQtQtQtQtQtQtQtQtQtQtQtQtQtQt.a.a.aQt.#.#.f.g.h.i.j.#.#.#QtQtQtQtQtQtQtQtQtQtQtQtQtQtQtQtQtQtQtQtQtQtQtQtQtQtQtQtQtQtQtQtQtQtQtQtQtQtQtQtQtQtQtQtQtQtQtQtQtQtQtQtQtQtQtQtQtQtQtQtQtQtQtQtQtQtQtQtQtQtQtQtQtQtQtQtQtQtQtQt",
"QtQtQt.b.b.k.l.m.n.o.bQtQtQtQtQtQtQtQtQtQtQtQtQt.a.a.aQtQt.#.#.#.p.d.q.r.s.#.#.#.#QtQtQtQtQtQtQtQtQtQtQtQtQtQtQtQtQtQtQtQtQtQtQtQtQtQtQtQt.t.t.t.t.t.t.tQtQtQtQtQtQtQt.t.t.tQtQtQtQtQtQt.t.t.t.t.t.tQtQtQt.t.t.t.t.t.t.tQtQtQt.t.t.t.t.t.tQtQtQt",
"QtQt.b.b.b.u.d.v.d.w.b.bQtQtQtQtQtQtQtQtQtQtQt.a.aQtQtQtQt.#.#.#.x.y.#.#.#.#.#.#.#QtQtQtQtQtQtQtQtQtQtQtQtQtQtQtQtQtQtQtQtQtQtQtQtQtQtQtQt.t.t.t.t.t.t.t.tQtQtQtQtQt.t.t.t.t.tQtQtQtQt.t.t.t.t.t.t.t.tQtQt.t.t.t.t.t.t.tQtQt.t.t.t.t.t.t.t.tQtQt",
"QtQt.b.b.b.z.A.B.d.C.b.bQtQtQtQtQtQtQtQtQtQtQt.aQtQtQtQtQt.#.#.#.D.E.#.#.#.#.#.#.#.#.#QtQtQtQtQtQtQtQt.F.F.FQtQtQtQtQtQtQtQtQtQtQtQtQtQtQt.t.t.tQtQt.t.t.tQtQtQtQtQt.t.t.t.t.tQtQtQtQt.t.t.tQtQtQtQtQtQtQt.t.t.tQtQtQtQtQtQt.t.t.tQtQtQtQtQtQtQt",
"QtQt.b.b.G.m.H.b.I.J.K.bQtQtQtQtQtQtQtQtQt.a.a.aQtQtQtQtQt.#.#.#.L.M.#.#.#.#.#.#.#QtQt.#.#.#.#QtQt.F.F.F.F.F.F.FQtQtQtQtQtQtQtQtQtQtQtQtQt.t.t.tQtQt.t.t.tQtQtQtQtQt.t.tQt.t.tQtQtQtQt.t.t.tQtQtQtQtQtQtQt.t.t.tQtQtQtQtQtQt.t.t.tQtQtQtQtQtQtQt",
"QtQt.b.b.N.d.d.d.d.d.O.bQtQtQtQtQtQtQt.a.a.a.a.a.a.aQtQtQtQt.#.#.P.d.Q.R.S.#.#.#QtQtQtQtQtQt.#.#.F.F.d.T.F.F.d.T.FQtQtQtQtQtQtQtQtQtQtQtQt.t.t.t.t.t.t.tQtQtQtQtQt.t.t.tQt.t.t.tQtQtQt.t.t.t.t.t.t.tQtQtQt.t.t.t.t.t.t.tQtQt.t.t.t.t.t.t.tQtQtQt",
"QtQtQt.b.U.J.V.W.O.X.bQtQtQtQtQtQtQt.a.a.Y.Z.0.1.2.a.aQtQtQt.#.#.f.3.4.5.M.#.#.#QtQtQtQtQtQtQtQt.F.F.d.T.F.F.d.T.FQtQtQtQtQtQtQtQtQtQtQtQt.t.t.t.t.t.t.t.tQtQtQtQt.t.tQtQtQt.t.tQtQtQtQtQt.t.t.t.t.t.tQtQt.t.t.t.t.t.t.tQtQtQtQt.t.t.t.t.t.tQtQt",
"QtQtQtQt.b.b.b.b.b.b.b.bQtQtQtQtQtQt.a.6.d.7.8.9#..a.aQtQtQtQt.#.#.#.#.#.#.#.#QtQtQtQtQtQtQtQt.F.F.F.d.T.F.F.d.T.F.FQtQtQtQtQtQtQtQtQtQtQt.t.t.tQtQtQt.t.tQtQtQt.t.t.t.t.t.t.t.tQtQtQtQtQtQtQtQt.t.t.tQtQt.t.t.tQtQtQtQtQtQtQtQtQtQtQt.t.t.tQtQt",
"QtQtQtQtQt.b.b.b.bQtQt##.bQtQtQtQt.a.a#a#b.a.a.a.a.a.a.aQtQtQtQtQt.#.#.#.#QtQtQtQtQtQtQtQtQtQt.F.F.F.d.T.F.F.d.T.F.FQtQtQtQtQtQtQtQtQtQtQt.t.t.tQtQtQt.t.tQtQtQt.t.t.t.t.t.t.t.t.tQtQt.tQtQtQtQt.t.t.tQtQt.t.t.tQtQtQtQtQtQt.tQtQtQtQt.t.t.tQtQt",
"QtQtQtQtQtQtQtQtQtQtQtQt####QtQtQt.a.a.0#c.a#d#e#e.a.a.aQtQtQtQtQtQtQtQtQtQtQtQtQtQtQtQtQtQtQt.F.F.F#f#g.F#h.d#i.F.FQtQtQtQtQtQtQtQt#j#jQt.t.t.t.t.t.t.t.tQtQtQt.t.tQtQtQtQtQt.t.tQtQt.t.t.t.t.t.t.t.tQtQt.t.t.t.t.t.t.tQtQt.t.t.t.t.t.t.t.tQtQt",
"QtQtQtQtQtQtQtQtQtQtQtQtQt######Qt.a.a#k#l.a#m#n.d.a.a.aQtQtQtQtQtQtQtQtQtQtQtQtQtQtQtQtQtQtQtQt.F.F#o#p#q#r.d#s.F#j#jQtQtQtQtQt#j#j#jQtQt.t.t.t.t.t.t.tQtQtQt.t.t.tQtQtQtQtQt.t.t.tQtQt.t.t.t.t.t.tQtQtQt.t.t.t.t.t.t.tQtQtQt.t.t.t.t.tQtQtQtQt",
"QtQtQtQtQtQtQtQtQtQtQtQtQtQtQt####Qt.a#t.d#u#v#w.d.a.aQtQtQtQtQtQtQtQtQtQtQtQtQtQtQtQtQtQtQtQtQt.F.F#x#y#z#A#B#C.FQt#j#j#j#j#j#j#jQtQtQtQtQtQtQtQtQtQtQtQtQtQtQtQtQtQtQtQtQtQtQtQtQtQtQtQtQtQtQtQtQtQtQtQtQtQtQtQtQtQtQtQtQtQtQtQtQtQtQtQtQtQtQt",
"QtQtQtQtQtQtQtQtQtQtQtQtQtQtQtQtQtQt.a#D#E#F#G#F#H.a.aQtQtQtQtQtQtQtQtQtQtQtQtQtQtQtQtQtQtQtQtQtQt.F.F.F.F.F.F.FQtQtQtQtQtQtQtQtQtQtQtQtQtQtQtQtQtQtQtQtQtQtQtQtQtQtQtQtQtQtQtQtQtQtQtQtQtQtQtQtQtQtQtQtQtQtQtQtQtQtQtQtQtQtQtQtQtQtQtQtQtQtQtQt",
"QtQtQtQtQtQtQtQtQtQtQtQtQtQtQtQtQtQtQt.a.a.a.a.a.a.aQtQtQtQtQtQtQtQtQtQtQtQtQtQtQtQtQtQtQtQtQtQtQtQtQt.F.F.FQtQtQtQtQtQtQtQtQtQtQtQtQtQtQtQtQtQtQtQtQtQtQtQtQtQtQtQtQtQtQtQtQtQtQtQtQtQtQtQtQtQtQtQtQtQtQtQtQtQtQtQtQtQtQtQtQtQtQtQtQtQtQtQtQtQt",
"QtQtQtQtQtQtQtQtQtQtQtQtQtQtQtQtQtQtQtQtQt.a.a.aQtQtQtQtQtQtQtQtQtQtQtQtQtQtQtQtQtQtQtQtQtQtQtQtQtQtQtQtQtQtQtQtQtQtQtQtQtQtQtQtQtQtQtQtQtQtQtQtQtQtQtQtQtQtQtQtQtQtQtQtQtQtQtQtQtQtQtQtQtQtQtQtQtQtQtQtQtQtQtQtQtQtQtQtQtQtQtQtQtQtQtQtQtQtQtQt"};
