/* XPM */
static char *beautifyb[] = {
/* columns rows colors chars-per-pixel */
"58 75 2 1 ",
"  c none",
". c black",
/* pixels */
"                                                          ",
"                                                          ",
"               ....                                  .    ",
"               .   .                                      ",
"               .   .   ...    ...      ...   .   .   .    ",
"               .   .  .   .  .        .   .  .   .   .    ",
"    .....      .   .      .  .            .  .   .   .    ",
"    .          ....    ....   ..       ....   . .    .    ",
"    .          .      .   .     .     .   .   . .    .    ",
"    .          .      .   .     .  .  .   .    .     .    ",
"    .          .       ... . ...   .   ... .   .     .    ",
"    .                                                     ",
".....                                                     ",
".....               .    .                                ",
"    .               .    .                                ",
"    .               .    .      . ..    ...   . ..  ...   ",
"    .               .    .      ..  .  .   .  ..   .   .  ",
"    .  ...          ......      .   .      .  .        .  ",
"    .  .            .    .      .   .   ....  .     ....  ",
"    .  .            .    .      .   .  .   .  .    .   .  ",
"    .  .            .    .  .   .   .  .   .  .    .   .  ",
"    .  .            .    .  .   ....    ... . .     ... . ",
"    ....                        .                         ",
"       .                 ....   .                         ",
"       .                 .   .                            ",
"       .                 .   .   ...    ...      ...      ",
"       .                 .   .  .   .  .        .         ",
"       .                 .   .      .  .        .         ",
"       .    ....         ....    ....   ..       ..       ",
"       .    .            .      .   .     .        .      ",
"       .    .            .      .   .     .  .     .      ",
"       .    .            .       ... . ...   .  ...       ",
"       .    .                                             ",
"       . ....                                             ",
"       . .  .            .    .      .                    ",
"       . .  .            .    .      .                    ",
"       . .  .            .    .     ....  ...   .   .     ",
"       . .  .            .    .      .   .   .  .   .     ",
"       . .  ....         ......      .       .   . .      ",
"       . .               .    .      .    ....    .       ",
"       . .               .    .      .   .   .   . .      ",
"       . .               .    .  .   .   .   .  .   .     ",
"       . .               .    .  .    ..  ... . .   .     ",
"       ...                                                ",
"         .               ....                             ",
"         .               .   .                            ",
"         .               .   .   ...    ...      ....     ",
"         .               .   .  .   .  .        .   .     ",
"         .               .   .      .  .        .   .     ",
"         .  .....        ....    ....   ..      .   .     ",
"         .  .            .      .   .     .     .  ..     ",
"         .  .            .      .   .     .  .   .. .     ",
"         .  .            .       ... . ...   .      .     ",
"         .  .                                       .     ",
"         ....                                    ...      ",
"            .              ....                           ",
"            .              .   .                          ",
"            .              .   .   ...    ...     .   .   ",
"            .              .   .  .   .  .        .   .   ",
"            . .....        .   .      .  .        .   .   ",
"            . .            ....    ....   ..       . .    ",
"            . .            .      .   .     .      . .    ",
"            . .            .      .   .     .  .    .     ",
"            . .            .       ... . ...   .    .     ",
"            ...                                           ",
"              .            ....                           ",
"              .            .   .                          ",
"              .            .   .   ...    ...     .   .   ",
"              .            .   .  .   .  .        .   .   ",
"              .            .   .      .  .        .   .   ",
"              ....         ....    ....   ..       . .    ",
"                           .      .   .     .      . .    ",
"                           .      .   .     .  .    .     ",
"                           .       ... . ...   .    .     ",
"                                                          "
};
