/* XPM */
static char *check[]={
"19 19 167 2",
".A c None",
"aG c None",
"#g c None",
".f c None",
".0 c None",
".P c None",
"#y c None",
"ae c None",
"#x c None",
"#5 c None",
"aH c None",
"Qt c None",
"aB c #5f8d5f",
"am c #686868",
".Q c #6ebc6e",
".# c #70c96e",
"aA c #8b8b8b",
".o c #adadad",
"aK c #b4b4b4",
"at c #5e5e5e",
"#U c #3b3b3b",
".a c #3fb73a",
"#4 c #434343",
"ad c #454545",
".7 c #459645",
".g c #1da71d",
"#6 c #1f621f",
".p c #27a127",
".B c #2ea02e",
"aI c #2f2f2f",
"au c #206620",
"#K c #2b2b2b",
"#h c #1b6f1b",
"#f c #242424",
"#w c #292929",
".Z c #1d1d1d",
"aF c #1b1b1b",
"aJ c #1a1a1a",
".J c #151515",
"az c #121212",
".z c #104710",
"al c #0f0f0f",
".e c #0c7f0c",
"ac c #0c0c0c",
".O c #0a570a",
"an c #085308",
"#3 c #0a0a0a",
"#T c #090909",
".n c #096409",
"#J c #090909",
".6 c #095709",
"#V c #076807",
"#v c #070b07",
"#e c #060e06",
".Y c #060906",
".R c #058b05",
".C c #069106",
"aE c #050905",
".1 c #038003",
".I c #051905",
".8 c #058305",
".v c #041a04",
"ay c #040b04",
".b c #18ac04",
"as c #041504",
".q c #049704",
"#L c #036c03",
".h c #039e03",
"ab c #031603",
"ak c #031b03",
"#2 c #022b02",
"#S c #023002",
"af c #015a01",
"#I c #023502",
"aC c #025602",
".K c #028802",
"#u c #024802",
"#d c #025002",
".d c #029f01",
"aD c #014201",
".X c #015a01",
".H c #016501",
"#z c #017901",
".9 c #018901",
"#n c #017d01",
".u c #007600",
".c c #1aae01",
".k c #098701",
".D c #039603",
".r c #0aa00a",
".S c #018c01",
"ax c #004600",
".m c #009000",
"#7 c #016301",
".5 c #018101",
".N c #018201",
".y c #038b03",
"ar c #014a01",
"aj c #004e00",
"#m c #007900",
".w c #019101",
".i c #03a100",
"aa c #005900",
"av c #006000",
"#R c #006b00",
"#i c #019001",
"#1 c #006700",
"#W c #007700",
"#H c #007d00",
"#o c #009500",
"#t c #018401",
".l c #009a00",
"#c c #089008",
".2 c #0aa70a",
"#. c #01a301",
".E c #1dae1d",
".W c #119a11",
".s c #13a713",
".j c #06a100",
".t c #019901",
".T c #0da50d",
"aw c #006b00",
"#M c #009b00",
".G c #1aa41a",
"aq c #008000",
"ao c #007500",
"ai c #008200",
"#l c #00b400",
".x c #1aab1a",
".L c #27c227",
".4 c #08bc08",
"a# c #009500",
"#0 c #00a300",
"#p c #00c800",
"#s c #02d502",
"## c #0cd30c",
".M c #22c322",
"ag c #008f00",
"ap c #00ac00",
"#Q c #00b200",
"#8 c #00b500",
"#D c #00b900",
"#E c #00ba00",
"#G c #00c000",
"#A c #00c300",
"ah c #00c600",
"a. c #00cd00",
"#9 c #00d100",
"#Z c #00d600",
"#X c #00d900",
"#Y c #00dc00",
"#P c #00e200",
"#O c #00e400",
"#N c #00e600",
"#F c #00e700",
"#C c #00eb00",
"#q c #00ef00",
"#B c #00f100",
"#j c #02e402",
"#k c #02f402",
"#r c #02f902",
"#a c #18f318",
"#b c #1bde1b",
".3 c #1bf61b",
".U c #2bd32b",
".V c #40e040",
".F c #42cb42",
"QtQtQtQtQtQtQtQtQtQtQtQtQtQtQtQtQtQtQt",
"QtQtQtQtQtQtQtQtQtQtQtQtQtQtQtQtQtQtQt",
".#QtQtQtQtQtQtQtQtQtQtQtQtQtQtQt.a.b.c",
".d.e.fQtQtQtQtQtQtQtQtQtQtQt.g.h.i.j.k",
".l.m.n.oQtQtQtQtQtQtQtQt.p.q.r.s.t.u.v",
".w.x.y.z.AQtQtQtQtQt.B.C.D.E.F.G.H.I.J",
".K.L.M.N.O.PQtQt.Q.R.S.T.U.V.W.X.Y.Z.0",
".1.2.3.4.5.6.7.8.9#.###a#b#c#d#e#f#gQt",
"#h#i#j#k#l#m#n#o#p#q#r#s#t#u#v#w#xQtQt",
"#y#z#A#B#C#D#E#F#B#B#G#H#I#J#KQtQtQtQt",
"Qt#L#M#N#N#O#O#N#P#Q#R#S#T#UQtQtQtQtQt",
"Qt#V#W#X#Y#Y#Y#Z#0#1#2#3#4#5QtQtQtQtQt",
"Qt#6#7#8#9#9a.a#aaabacadQtQtQtQtQtQtQt",
"Qtaeafagah#GaiajakalamQtQtQtQtQtQtQtQt",
"QtQtanaoapaqarasalatQtQtQtQtQtQtQtQtQt",
"QtQtauavawaxayazaAQtQtQtQtQtQtQtQtQtQt",
"QtQtaBaCaDaEaFaGQtQtQtQtQtQtQtQtQtQtQt",
"QtQtaHaIalaJaKQtQtQtQtQtQtQtQtQtQtQtQt",
"QtQtQtQtQtQtQtQtQtQtQtQtQtQtQtQtQtQtQt"};
