/* XPM */ 
static const unsigned char * dendro_xpm[] = {
"24 24 6 1",
" 	c None",
"!	c black",
"#	c #808080",
"$	c #464646",
"%	c #C0C0C0",
"&	c #545454",
"         !!!!#$$$$$$$$  ",
"         !              ",
"         !    #####     ",
"         !!!!########   ",
"         !    ######### ",
"     !!!!!              ",
"     !   !              ",
"     !   !    %%%%      ",
"     !   !!!!#%%%%%%%   ",
" !!!!!        %%%%%%%%% ",
" !   !                  ",
" !   !    !!!#$$$$$$$$$ ",
"!!   !!!!!!             ",
" !        !   ######### ",
" !        !   #######   ",
" !        !!!######     ",
" !   !!!                ",
" !   !      !#!!!!!!!!! ",
" !!!!!      !           ",
"     !  !!!!!           ",
"     !  !   !&&$$$$$$$$ ",
"     !  !   !!#$$$$$$   ",
"     !!!!      $$$$     ",
"        !               "};