/* XPM */
static char * editor_small_xpm[] = {
"44 24 32 1",
" 	c None",
".	c #5B13E4",
"+	c #FD0034",
"#	c #AC4B4A",
"$	c #A64EE0",
"%	c #6365DF",
"&	c #BC7246",
"*	c #7B7EC5",
"=	c #918094",
"-	c #BA7978",
";	c #40A258",
">	c #839060",
",	c #D673A9",
"'	c #B87EDE",
")	c #C09C24",
"!	c #90C133",
"~	c #62C9A1",
"{	c #B3B3F1",
"]	c #DBB6B7",
"^	c #C3C2DA",
"/	c #C1CCBA",
"(	c #DFCE67",
"_	c #DECC80",
":	c #F7DC28",
"<	c #A8FC00",
"[	c #EBE920",
"}	c #E1E0D7",
"|	c #C8F760",
"1	c #DAF29A",
"2	c #EFF0C5",
"3	c #EFF7DE",
"4	c #F6F7F6",
"                                            ",
" ):::!!![&$&&333333331>=!!<.!<<<<<<.!(<!.<| ",
" ):::;::[.[:[333333331.<<<<*%<<<<<>><<<**!| ",
" ):::;::[.:(-3}}}3}}}1$<!!><.<|||<=!<=<%!*| ",
" ):::;::[')('333333331$<_(%>=;<<<<!$<.!*;.| ",
" :):::;;[:$$&333333331<$$!!<<%<<<<<-$,;<<=1 ",
" ((((((((((((444444442&&[(&#))||||)-))!#))1 ",
" 44444444444444444444444]4]4]44444^4}444}^4 ",
" 243}4/~42443424344{43|{'11^11111112'^11{12 ",
" )4_2~~23(22_3)4_23.41=><|<.;<<<<<<.<!<!.<| ",
" )422;333(33_3)4_2**%1.<<<!>%<<<<<=!<<<*=!| ",
" )422;333(33_3)4_2.4.1.<_!>!.<!11|=!<$<.!*| ",
" )3_2;243(22_3)4_2%^.1'!>(%!>><<<<<.<.!>!.| ",
" 2(_33~;23(_33_(_^}3^=<='!!<<=<<<<<)'>!<<>1 ",
" 444444444444]-##}###2#&)_&-&_1111&-&&_-&&2 ",
" 444444444444444444444444444444444444444444 ",
" _((((~~(('$_4444444444'$4444+++++4{$'4{$'4 ",
" ):::;[::,&::444444444${44444+++++4.444.444 ",
" ):::;::[.:::444444444.444444++444${44''444 ",
" ):::;::[.[(,4/}}4/}/3.4''}}^++^}}${4.{'4.4 ",
" ):::!!:[-,_,444444444$'''444++4444.4.4.4.4 ",
" :::::!!::&-:444444444}'']444++4444-',4]''4 ",
" 333333333333444444444#-#}444++444-]#-]]##4 ",
"                                            "};
