/* XPM */
static char *help[]={
"18 18 207 2",
"Qt c None",
"a8 c #578dfa",
".C c #6094ff",
".p c #719fff",
"bm c #3c7bfb",
"bh c #3f7eff",
"at c #417ffb",
"#u c #4581ff",
".e c #518aff",
".# c #568eff",
"#g c #5b90ff",
"aL c #2068f9",
"bg c #2168f9",
"a9 c #296fff",
".2 c #2a70ff",
"aC c #3376ff",
".o c #3476ff",
".R c #4080ff",
".f c #4180ff",
"aj c #1f67fc",
"bl c #2268fb",
"#J c #226aff",
"bi c #236bff",
"#7 c #3879ff",
".d c #3a7bff",
"#v c #3d7cff",
".a c #3f7eff",
"aW c #1d66f9",
"a7 c #1e67f9",
"aX c #296fff",
".Q c #2a70ff",
".B c #2d72ff",
".D c #3e7eff",
".q c #3f7eff",
"#6 c #1c66fe",
"#U c #1d67fe",
"bk c #1e66fd",
"bj c #1e67fe",
"#V c #3678ff",
".c c #397aff",
".b c #3a7bff",
"bf c #1b64fa",
"aB c #1b65fa",
"b. c #226bff",
"#f c #236bff",
"au c #3073ff",
".n c #3074ff",
".g c #3c7cff",
"as c #1e67fc",
"aK c #2168f8",
"a6 c #2369f7",
"#t c #236bff",
"be c #296cf5",
".1 c #2a6ffd",
"b# c #2d70f8",
"aY c #2d70fc",
".A c #3174fd",
".m c #3477ff",
".h c #3c7cff",
".r c #3d7dff",
"aV c #2168f8",
"aM c #2e71fc",
".P c #2e72fc",
".E c #3e7dfe",
"ai c #276dfc",
"#I c #2a70ff",
"#8 c #3b7bfe",
"bd c #3c78f4",
".l c #3c7cfe",
"ba c #3e7bf6",
"#w c #3f7dfe",
".i c #407ffe",
"#5 c #2c71fe",
"#T c #2d72fe",
"bc c #427ffb",
"#W c #427ffd",
"bb c #437ffc",
"#K c #4480fd",
".j c #5087fb",
".k c #5088fb",
"aA c #3677fb",
"av c #4380fd",
"#e c #4883fb",
"a5 c #4a82f3",
".3 c #4e88fe",
"aZ c #5086f6",
".s c #538bfd",
".z c #578dfa",
"ar c #4c86fe",
"#H c #4f89ff",
"ak c #528bfe",
"ah c #538bff",
"#S c #538cff",
"#4 c #548cff",
"#G c #548dfe",
"#R c #548dff",
"#3 c #558dff",
"aJ c #588cf6",
"#s c #588efa",
"#9 c #5990fe",
"ag c #5a90ff",
"af c #5b90fe",
"#F c #5c91fd",
"am c #5d92ff",
"aD c #5e90f7",
"aa c #5e92fe",
"al c #5e93fe",
"a# c #5e93ff",
"a. c #5f94fe",
"aU c #6292f3",
"aN c #6695f4",
"aq c #6798fe",
".S c #6799fd",
"an c #6899fd",
"#X c #6899fe",
"aw c #6899ff",
"az c #6a9bfe",
"ab c #6b9bfc",
"#Y c #6d9dff",
".F c #709efa",
"#Z c #719efb",
"#h c #719ffc",
"aE c #75a3ff",
".0 c #76a0f6",
"a4 c #77a1f7",
"a0 c #79a3f8",
"#L c #7aa6fd",
"#2 c #7ca6fb",
"#Q c #7da7fa",
".O c #7ea5f5",
"#x c #7fa8fd",
"aF c #81a7f5",
"aO c #81abfe",
"aP c #82acff",
"ae c #83abfc",
"#M c #84adff",
"#N c #85aaf4",
"#r c #87aefc",
"a1 c #8aaef8",
"aQ c #8ab0fb",
".t c #8db2fc",
"aI c #91b6ff",
"aT c #94b7ff",
"ax c #97b7f5",
"ay c #97b7f8",
"#y c #97b9ff",
".y c #99b9fa",
"a2 c #99b9fd",
"a3 c #9abbfd",
"#C c #9cb9f7",
"#B c #a2c0ff",
"#q c #a3c1fd",
"#i c #a9c4fe",
".4 c #a9c5fc",
"#j c #aac5ff",
"#z c #acc7fe",
"#d c #b1cbfd",
"#n c #b7cbf5",
".5 c #bdd4ff",
".x c #bed3fb",
"#c c #bed4ff",
".u c #bfd4fd",
"#. c #c1d6ff",
".G c #c5d8fc",
".U c #c7d8fa",
"#0 c #c8d7f3",
"#A c #c8daff",
".9 c #cadbff",
".6 c #cbdaf7",
".T c #cbdcfe",
".v c #cedcf9",
".w c #cedcfa",
".N c #cfdefd",
".Z c #cfdefe",
".I c #d0ddf6",
".Y c #d0ddf8",
"ap c #d0dffe",
".M c #d3dff8",
"#k c #d5e0fa",
"#m c #d5e3ff",
"#D c #d6e0f4",
"ao c #d6e2fa",
".H c #d7e2fa",
"#O c #dde5f6",
".V c #dde6f8",
".L c #dde6f9",
"#E c #dde8fd",
"## c #e0eafc",
".K c #e4ebfa",
"aR c #e4edff",
".J c #e5ecf9",
"#1 c #e5edfd",
"ac c #eaeff8",
"aS c #eaf1ff",
"#P c #edf2fd",
"#b c #f5f8fe",
".8 c #f7f9ff",
"aG c #f8f9fb",
"#o c #f8fafc",
".X c #f8fafd",
"#p c #f9fbfe",
"ad c #fafbfe",
"aH c #fcfdff",
"#a c #fdfefe",
".7 c #fefefe",
"#l c #fefeff",
".W c #ffffff",
"QtQtQtQtQtQt.#.a.b.c.d.eQtQtQtQtQtQt",
"QtQtQtQt.f.g.h.i.j.k.l.m.n.oQtQtQtQt",
"QtQt.p.q.r.s.t.u.v.w.x.y.z.A.B.CQtQt",
"QtQt.D.E.F.G.H.I.J.K.L.M.N.O.P.QQtQt",
"Qt.R.r.S.T.U.V.W.W.W.W.X.Y.Z.0.1.2Qt",
"Qt.g.3.4.5.6.7.8.9#.###a#b#c#d#e#fQt",
"#g.h#h#i#j#k#l#m#j#j#n#o#p#q#r#s#t#u",
"#v#w#x#y#y#z#A#B#y#C#D.7#E#F#G#H#I#J",
".c#K#L#M#M#M#M#M#N#O.7#P#Q#R#R#S#T#U",
"#V#W#X#Y#Y#Y#Y#Z#0.W#1#2#3#3#3#4#5#6",
"#7#8#9a.a.a#aaabacadaeafagagagahaiaj",
".#.makalaaamamanaoapaqamamamamarasat",
"QtauavaqawawawanaxayazawawawaqaAaBQt",
"QtaC.AaDaEaEaEaFaGaHaIaEaEaEaJaKaLQt",
"QtQt.BaMaNaOaPaQaRaSaTaPaOaUaVaWQtQt",
"QtQt.CaXaYaZa0a1a2a3a1a4a5a6a7a8QtQt",
"QtQtQtQta9b.b#babbbcbdbebfbgQtQtQtQt",
"QtQtQtQtQtQtbhbibjbkblbmQtQtQtQtQtQt"};
