/* XPM */ 
static const unsigned char * help_text_xpm[] = {
"70 18 7 1",
" 	c None",
"!	c black",
"#	c #008000",
"$	c white",
"%	c #DADADA",
"&	c #F2F2F2",
"'	c #DEDEDE",
"                                                                      ",
"                                                                      ",
"    ###############                                                   ",
"   #################                                                  ",
"   ######$$$$#######                                                  ",
"   #####$%#$$$######                                                  ",
"   #####$%##&$######       !!   !! !!!!! !!    !!!!!                  ",
"   #####$%##&$######       !!   !! !!    !!    !!  !!                 ",
"   ########$$$######       !!   !! !!    !!    !!  !!                 ",
"   ########$$#######       !!!!!!! !!!!! !!    !!  !!                 ",
"   ########$$#######       !!   !! !!    !!    !!!!!                  ",
"   ########$########       !!   !! !!    !!    !!                     ",
"   #################       !!   !! !!    !!    !!                     ",
"   #######'$'#######       !!   !! !!!!! !!!!! !!                     ",
"   #######'$'#######                                                  ",
"   #################                                                  ",
"    ###############                                                   ",
"                                                                      "};