/* XPM */ 
static const unsigned char * help_xpm[] = {
"19 18 7 1",
" 	c None",
"!	c black",
"#	c #808080",
"$	c #008000",
"%	c white",
"&	c #DADADA",
"'	c #DEDEDE",
" #$$$$$$$$$$$$$$$# ",
"#$$$$$$$$$$$$$$$$$#",
"$$$$$$$$$$$$$$$$$$$",
"$$$$$$$$$$$$$$$$$$$",
"$$$$$$$%%%%$$$$$$$$",
"$$$$$$%&$&&%$$$$$$$",
"$$$$$$%&$$&%$$$$$$$",
"$$$$$$%&$$&%$$$$$$$",
"$$$$$$$$$$&&$$$$$$$",
"$$$$$$$$$&%$$$$$$$$",
"$$$$$$$$$%&$$$$$$$$",
"$$$$$$$$$%$$$$$$$$$",
"$$$$$$$$$$$$$$$$$$$",
"$$$$$$$$'%$$$$$$$$$",
"$$$$$$$$'%$$$$$$$$$",
"$$$$$$$$$$$$$$$$$$$",
"#$$$$$$$$$$$$$$$$$#",
" #$$$$$$$$$$$$$$$# "};