/* XPM */
static char *helpText[]={
"70 19 198 2",
".# c None",
"Qt c None",
".0 c #000000",
"b. c #1b64fa",
"ax c #1b65fa",
"#2 c #1c66fe",
"aR c #1d66f9",
"#Q c #1d67fe",
"bb c #1e66fd",
"a2 c #1e67f9",
"ao c #1e67fc",
"ba c #1e67fe",
"af c #1f67fc",
"aH c #2068f9",
"aG c #2168f8",
"b# c #2168f9",
"bc c #2268fb",
"#F c #226aff",
"a3 c #226bff",
"a1 c #2369f7",
"#d c #236bff",
"ae c #276dfc",
"a9 c #296cf5",
"aS c #296fff",
".Z c #2a6ffd",
".O c #2a70ff",
"#1 c #2c71fe",
"a4 c #2d70f8",
"aT c #2d70fc",
"#P c #2d72fe",
".z c #2d72ff",
"aI c #2e71fc",
".N c #2e72fc",
"aq c #3073ff",
".m c #3074ff",
".y c #3174fd",
"ay c #3376ff",
".n c #3476ff",
".l c #3477ff",
"aw c #3677fb",
"#R c #3678ff",
"#3 c #3879ff",
".d c #397aff",
".c c #3a7bff",
"#4 c #3b7bfe",
"a8 c #3c78f4",
"bd c #3c7bfb",
".k c #3c7cfe",
".g c #3c7cff",
"#s c #3d7cff",
".p c #3d7dff",
"a5 c #3e7bf6",
".C c #3e7dfe",
".B c #3e7eff",
"#t c #3f7dfe",
".b c #3f7eff",
".h c #407ffe",
".P c #4080ff",
"ap c #417ffb",
".f c #4180ff",
"a7 c #427ffb",
"#S c #427ffd",
"a6 c #437ffc",
"ar c #4380fd",
"#G c #4480fd",
"#r c #4581ff",
"#c c #4883fb",
"a0 c #4a82f3",
"an c #4c86fe",
".1 c #4e88fe",
"#E c #4f89ff",
"aU c #5086f6",
".i c #5087fb",
".j c #5088fb",
".e c #518aff",
"ag c #528bfe",
".q c #538bfd",
"ad c #538bff",
"#O c #538cff",
"#0 c #548cff",
"#D c #548dfe",
"#N c #548dff",
"#Z c #558dff",
".a c #568eff",
".x c #578dfa",
"aF c #588cf6",
"#q c #588efa",
"#5 c #5990fe",
"ac c #5a90ff",
"ab c #5b90fe",
"#e c #5b90ff",
"#C c #5c91fd",
"ai c #5d92ff",
"az c #5e90f7",
"#8 c #5e92fe",
"ah c #5e93fe",
"#7 c #5e93ff",
"#6 c #5f94fe",
".A c #6094ff",
"aQ c #6292f3",
"aJ c #6695f4",
"am c #6798fe",
".Q c #6799fd",
"aj c #6899fd",
"#T c #6899fe",
"as c #6899ff",
"av c #6a9bfe",
"#9 c #6b9bfc",
"#U c #6d9dff",
".D c #709efa",
"#V c #719efb",
"#f c #719ffc",
".o c #719fff",
"aA c #75a3ff",
".Y c #76a0f6",
"aZ c #77a1f7",
"aV c #79a3f8",
"#H c #7aa6fd",
"#Y c #7ca6fb",
"#M c #7da7fa",
".M c #7ea5f5",
"#u c #7fa8fd",
"aB c #81a7f5",
"aK c #81abfe",
"aL c #82acff",
"aa c #83abfc",
"#I c #84adff",
"#J c #85aaf4",
"#p c #87aefc",
"aW c #8aaef8",
"aM c #8ab0fb",
".r c #8db2fc",
"aE c #91b6ff",
"aP c #94b7ff",
"at c #97b7f5",
"au c #97b7f8",
"#v c #97b9ff",
".w c #99b9fa",
"aX c #99b9fd",
"aY c #9abbfd",
"#z c #9cb9f7",
"#y c #a2c0ff",
"#o c #a3c1fd",
"#g c #a9c4fe",
".2 c #a9c5fc",
"#h c #aac5ff",
"#w c #acc7fe",
"#b c #b1cbfd",
"#l c #b7cbf5",
".3 c #bdd4ff",
".v c #bed3fb",
"#a c #bed4ff",
".s c #bfd4fd",
".8 c #c1d6ff",
".E c #c5d8fc",
".S c #c7d8fa",
"#W c #c8d7f3",
"#x c #c8daff",
".7 c #cadbff",
".4 c #cbdaf7",
".R c #cbdcfe",
".t c #cedcf9",
".u c #cedcfa",
".L c #cfdefd",
".X c #cfdefe",
".G c #d0ddf6",
".W c #d0ddf8",
"al c #d0dffe",
".K c #d3dff8",
"#i c #d5e0fa",
"#k c #d5e3ff",
"#A c #d6e0f4",
"ak c #d6e2fa",
".F c #d7e2fa",
"#K c #dde5f6",
".T c #dde6f8",
".J c #dde6f9",
"#B c #dde8fd",
".9 c #e0eafc",
".I c #e4ebfa",
"aN c #e4edff",
".H c #e5ecf9",
"#X c #e5edfd",
"a. c #eaeff8",
"aO c #eaf1ff",
"#L c #edf2fd",
"## c #f5f8fe",
".6 c #f7f9ff",
"aC c #f8f9fb",
"#m c #f8fafc",
".V c #f8fafd",
"#n c #f9fbfe",
"a# c #fafbfe",
"aD c #fcfdff",
"#. c #fdfefe",
".5 c #fefefe",
"#j c #fefeff",
".U c #ffffff",
"QtQtQtQtQtQtQtQtQtQtQtQtQtQtQtQtQtQtQtQtQtQtQtQtQtQtQtQtQtQtQtQtQtQtQtQtQtQtQtQtQtQtQtQtQtQtQtQtQtQtQtQtQtQtQtQtQtQtQtQtQtQtQtQtQtQtQtQtQtQt",
"QtQtQt.#.#.#.#.#.#.a.b.c.d.c.e.#.#.#.#.#.#QtQtQtQtQtQtQtQtQtQtQtQtQtQtQtQtQtQtQtQtQtQtQtQtQtQtQtQtQtQtQtQtQtQtQtQtQtQtQtQtQtQtQtQtQtQtQtQtQt",
"QtQtQt.#.#.#.#.f.g.g.h.i.j.k.l.m.n.#.#.#.#QtQtQtQtQtQtQtQtQtQtQtQtQtQtQtQtQtQtQtQtQtQtQtQtQtQtQtQtQtQtQtQtQtQtQtQtQtQtQtQtQtQtQtQtQtQtQtQtQt",
"QtQtQt.#.#.o.b.p.q.r.s.t.u.v.w.x.y.z.A.#.#QtQtQtQtQtQtQtQtQtQtQtQtQtQtQtQtQtQtQtQtQtQtQtQtQtQtQtQtQtQtQtQtQtQtQtQtQtQtQtQtQtQtQtQtQtQtQtQtQt",
"QtQtQt.#.#.B.C.D.E.F.G.H.I.J.K.L.M.N.O.#.#QtQtQtQtQtQtQtQtQtQtQtQtQtQtQtQtQtQtQtQtQtQtQtQtQtQtQtQtQtQtQtQtQtQtQtQtQtQtQtQtQtQtQtQtQtQtQtQtQt",
"QtQtQt.#.P.p.Q.R.S.T.U.U.U.U.V.W.X.Y.Z.O.#QtQtQtQtQtQtQt.0.0.0QtQtQt.0.0.0QtQt.0.0.0.0.0.0.0QtQt.0.0.0QtQtQtQtQtQt.0.0.0.0.0.0.0QtQtQtQtQtQt",
"QtQtQt.#.g.1.2.3.4.5.6.7.8.9#.###a#b#c#d.#QtQtQtQtQtQtQt.0.0.0QtQtQt.0.0.0QtQt.0.0.0.0.0.0.0QtQt.0.0.0QtQtQtQtQtQt.0.0.0.0.0.0.0.0QtQtQtQtQt",
"QtQtQt#e.g#f#g#h#i#j#k#h#h#l#m#n#o#p#q#d#rQtQtQtQtQtQtQt.0.0.0QtQtQt.0.0.0QtQt.0.0.0QtQtQtQtQtQt.0.0.0QtQtQtQtQtQt.0.0.0QtQtQt.0.0QtQtQtQtQt",
"QtQtQt#s#t#u#v#v#w#x#y#v#z#A.5#B#C#D#E.O#FQtQtQtQtQtQtQt.0.0.0QtQtQt.0.0.0QtQt.0.0.0QtQtQtQtQtQt.0.0.0QtQtQtQtQtQt.0.0.0QtQtQt.0.0QtQtQtQtQt",
"QtQtQt.d#G#H#I#I#I#I#I#J#K.5#L#M#N#N#O#P#QQtQtQtQtQtQtQt.0.0.0.0.0.0.0.0.0QtQt.0.0.0.0.0.0.0QtQt.0.0.0QtQtQtQtQtQt.0.0.0.0.0.0.0.0QtQtQtQtQt",
"QtQtQt#R#S#T#U#U#U#U#V#W.U#X#Y#Z#Z#Z#0#1#2QtQtQtQtQtQtQt.0.0.0.0.0.0.0.0.0QtQt.0.0.0.0.0.0.0QtQt.0.0.0QtQtQtQtQtQt.0.0.0.0.0.0.0QtQtQtQtQtQt",
"QtQtQt#3#4#5#6#6#7#8#9a.a#aaabacacacadaeafQtQtQtQtQtQtQt.0.0.0QtQtQt.0.0.0QtQt.0.0.0QtQtQtQtQtQt.0.0.0QtQtQtQtQtQt.0.0.0QtQtQtQtQtQtQtQtQtQt",
"QtQtQt.a.lagah#8aiaiajakalamaiaiaiaianaoapQtQtQtQtQtQtQt.0.0.0QtQtQt.0.0.0QtQt.0.0.0QtQtQtQtQtQt.0.0.0QtQtQtQtQtQt.0.0.0QtQtQtQtQtQtQtQtQtQt",
"QtQtQt.#aqaramasasasajatauavasasasamawax.#QtQtQtQtQtQtQt.0.0.0QtQtQt.0.0.0QtQt.0.0.0.0.0.0.0QtQt.0.0.0.0.0.0.0QtQt.0.0.0QtQtQtQtQtQtQtQtQtQt",
"QtQtQt.#ay.yazaAaAaAaBaCaDaEaAaAaAaFaGaH.#QtQtQtQtQtQtQt.0.0.0QtQtQt.0.0.0QtQt.0.0.0.0.0.0.0QtQt.0.0.0.0.0.0.0QtQt.0.0.0QtQtQtQtQtQtQtQtQtQt",
"QtQtQt.#.#.zaIaJaKaLaMaNaOaPaLaKaQaGaR.#.#QtQtQtQtQtQtQtQtQtQtQtQtQtQtQtQtQtQtQtQtQtQtQtQtQtQtQtQtQtQtQtQtQtQtQtQtQtQtQtQtQtQtQtQtQtQtQtQtQt",
"QtQtQt.#.#.AaSaTaUaVaWaXaYaWaZa0a1a2.x.#.#QtQtQtQtQtQtQtQtQtQtQtQtQtQtQtQtQtQtQtQtQtQtQtQtQtQtQtQtQtQtQtQtQtQtQtQtQtQtQtQtQtQtQtQtQtQtQtQtQt",
"QtQtQt.#.#.#.#aSa3a4a5a6a7a8a9b.b#.#.#.#.#QtQtQtQtQtQtQtQtQtQtQtQtQtQtQtQtQtQtQtQtQtQtQtQtQtQtQtQtQtQtQtQtQtQtQtQtQtQtQtQtQtQtQtQtQtQtQtQtQt",
"QtQtQt.#.#.#.#.#.#.b#dbabbbcbd.#.#.#.#.#.#QtQtQtQtQtQtQtQtQtQtQtQtQtQtQtQtQtQtQtQtQtQtQtQtQtQtQtQtQtQtQtQtQtQtQtQtQtQtQtQtQtQtQtQtQtQtQtQtQt"};
