/* XPM */
static char * mapping_xpm[] = {
"70 19 2 1",
" 	c None",
".	c #131316",
"                                                                      ",
"                                                                      ",
"                                                                      ",
"                                                                      ",
"                                                                      ",
"....    ....     ...     .......   .......   ...  ...   ...     ..... ",
"....   .....    .....    ........  ........  ...  ....  ...   ........",
".....  .....    .....    ...   ..  ...   ..  ...  ....  ...   ...     ",
".....  .....    .. ..    ...   ..  ...   ..  ...  ..... ...  ...      ",
"..... .. ...   ... ...   ........  ........  ...  ..... ...  ...   ...",
"... .... ...   ..   ..   .......   .......   ...  ... .....  ...   ...",
"... ...  ...  ........   ...       ...       ...  ... .....  ...    ..",
"...  ..  ...  .........  ...       ...       ...  ...  ....   ...   ..",
"...      ...  ..     ..  ...       ...       ...  ...  ....   ........",
"...      ... ...     ... ...       ...       ...  ...   ...     ......",
"                                                                      ",
"                                                                      ",
"                                                                      ",
"                                                                      "};
