/* XPM */
static char *mask[]={
"19 19 3 1",
". c None",
"a c #0000ff",
"# c #ff0000",
"...................",
"...................",
".............#####.",
"...........###.....",
"...........#.......",
"..........aaaaaaaaa",
"........aaa#.......",
".......aa..#.......",
"......aa...#.......",
"......a....#.......",
"......a....#.......",
"......a....#.......",
".#####a...##.......",
"##...#a####........",
"##....a............",
".#....a............",
".....aa............",
".....a.............",
"..................."};
