/* XPM */
static char *pjump[] = {
/* columns rows colors chars-per-pixel */
"39 9 2 1 ",
"  c gray100",
". c black",
/* pixels */
"                                       ",
"   ........  ..  ..  ..   ..  .....    ",
"   ........  ..  ..  ... ...  ......   ",
"       ..    ..  ..  .......  ..  ..   ",
"       ..    ..  ..  .......  ......   ",
"       ..    ..  ..  .. . ..  .....    ",
"   ..  ..    ..  ..  ..   ..  ..       ",
"   ......    ......  ..   ..  ..       ",
"    ....      ....   ..   ..  ..       "
};
