/* XPM */
static char *protect[]={
"22 22 45 1",
". c None",
"a c #303030",
"b c #8d8d8d",
"# c #959595",
"u c #aeaeae",
"I c #bdbdbd",
"F c #bebebe",
"m c #c0c0c0",
"c c #c2c2c2",
"L c #c6c6c6",
"K c #cbcbcb",
"G c #cccccc",
"n c #cfcfcf",
"r c #d1d1d1",
"A c #d2d2d2",
"B c #d3d3d3",
"C c #d4d4d4",
"d c #d6d6d6",
"p c #d8d8d8",
"k c #dcdcdc",
"x c #dddddd",
"s c #dedede",
"N c #dfdfdf",
"j c #e0e0e0",
"e c #e1e1e1",
"O c #e2e2e2",
"z c #e5e5e5",
"P c #e8e8e8",
"D c #eaeaea",
"t c #ebebeb",
"q c #ececec",
"v c #eeeeee",
"l c #efefef",
"g c #f0f0f0",
"w c #f1f1f1",
"o c #f2f2f2",
"h c #f3f3f3",
"Q c #f5f5f5",
"f c #f6f6f6",
"i c #f7f7f7",
"H c #f8f8f8",
"M c #f9f9f9",
"y c #fafafa",
"E c #fbfbfb",
"J c #ffffff",
".#aaaaaaaaaaaaaaaaaa#.",
"baaaaaaaaaaaaaaaaaaaab",
"aaaaaaaaaaaaaaaaaaaaaa",
"aaaaaaaaaaaaaaaaaaaaaa",
"aaaaaaaaacddcaaaaaaaaa",
"aaaaaaaaefghijaaaaaaaa",
"aaaaaaaklmaanopaaaaaaa",
"aaaaaaaqraaaastaaaaaaa",
"aaaaaaaruaaaacpaaaaaaa",
"aaaaaaaaaaaaappaaaaaaa",
"aaaaaasvggwooowxaaaaaa",
"aaaaaayzArABCpDEaaaaaa",
"aaaaaafFaaaaaaGHaaaaaa",
"aaaaaafIaaJJaaKHaaaaaa",
"aaaaaaiLaaaaaaAMaaaaaa",
"aaaaaayDkkksNOlyaaaaaa",
"aaaaaaPQJiiiiifPaaaaaa",
"aaaaaaaaaaaaaaaaaaaaaa",
"aaaaaaaaaaaaaaaaaaaaaa",
"aaaaaaaaaaaaaaaaaaaaaa",
"baaaaaaaaaaaaaaaaaaaab",
".#aaaaaaaaaaaaaaaaaa#."};
