/* XPM */
static char *save[]={
"32 32 51 1",
". c None",
"W c #090909",
"S c #0e0e0e",
"T c #0b0b05",
"# c #010101",
"a c #000000",
"e c #000000",
"b c #010100",
"i c #020202",
"U c #030300",
"B c #090900",
"d c #0a0a00",
"V c #0b0b0b",
"c c #0c0c00",
"f c #0d0d0d",
"r c #0e0e0e",
"h c #0f0f0f",
"g c #121212",
"O c #161616",
"Q c #191919",
"P c #232323",
"I c #242300",
"M c #302f00",
"L c #474500",
"K c #484700",
"z c #4e4d00",
"J c #585700",
"A c #605e00",
"k c #6c6a00",
"N c #747300",
"R c #7b7b7b",
"q c #818181",
"j c #848200",
"l c #8c8c8c",
"n c #9e9e9e",
"p c #c1bec3",
"H c #c1bfc2",
"o c #c1bfc3",
"F c #c1c0c2",
"m c #c1c1c1",
"y c #c2bdc4",
"x c #c2bec3",
"G c #c2bec4",
"u c #c3bdc5",
"C c #c4bcc6",
"w c #c4bcc7",
"s c #c6b9cb",
"E c #c6bac9",
"v c #c7b8cc",
"t c #c8b7ce",
"D c #cab5d1",
"................................",
".#aaaaaaaaaaaaaaaaaaaaaaaaaaaa#.",
".abccdefggggggggggggggggfehggia.",
".acjjkelmmmmmmmmmmmmmmmmlenmmga.",
".acjjkelmmmmmmmmmmmmmmmmlenmmga.",
".acjjkelmmmmmmmmmmmmopmmleqnnra.",
".acjjkelmmmmmmmmmmmmstmmleeeeea.",
".acjjkelmmmuvvwmmmmmxymmlezAABa.",
".acjjkelmmmCDDEmmmmmmmmmlekjjca.",
".acjjkelmmmCDDEmmmmmmmmmlekjjca.",
".acjjkelmmmFGGHmmmmmmmmmlekjjca.",
".acjjkelmmmmmmmmmmmmmmmmlekjjca.",
".acjjkelmmmmmmmmmmmmmmmmlekjjca.",
".acjjkelmmmmmmmmmmmmmmmmlekjjca.",
".acjjkelmmmmmmmmmmmmmmmmlekjjca.",
".acjjkelmmmmmmmmmmmmmmmmlekjjca.",
".acjjjjIeeeeeeeeeeeeeeeeIjjjjca.",
".acjjjjJKKKKKKKKKKKKKKKKJjjjjca.",
".acjjjjjjjjjjjjjjjjjjjjjjjjjjca.",
".acjjjjjjjjjjjjjjjjjjjjjjjjjjca.",
".acjjjjLMMMMMMMMMMMMMMMMMMNjjca.",
".acjjjjIeeeeeeeeeeeeOPPPQekjjca.",
".acjjjjIeeeeeeeeeeeeRmmmlekjjca.",
".acjjjjIeeeeeeeeeeeeRmmmlekjjca.",
".acjjjjIeeeeeeeeeeeeRmmmlekjjca.",
".acjjjjIeeeeeeeeeeeeRmmmlekjjca.",
".acjjjjIeeeeeeeeeeeeRmmmlekjjca.",
".acjjjjIeeeeeeeeeeeeRmmmlekjjca.",
".acjjjjIeeeeeeeeeeeeRmmmlekjjca.",
".STccccUeeeeeeeeeeeeVgggfedccTS.",
"..WaaaaaaaaaaaaaaaaaaaaaaaaaaW..",
"................................"};
