/* XPM */
static char *weighted3[] = {
/* columns rows colors chars-per-pixel */
"70 48 2 1 ",
"  c gray100",
". c black",
/* pixels */
"......................................................................",
".                                                                    .",
".              ..............................................        .",
".              . .    . . .  . . .  . .    . .     . .    . .        .",
".              . .    . . .  . . .  . .    . .     . .    . .        .",
".              . .    . . .  . . .  . .    . .     . .    . .        .",
".              . .    . . .  . . .  . .    . .     . .    . .        .",
".                                                                    .",
". . .   . .   . . .   . . .   . .   . .   . . .   . . .   . .   . .  .",
". . .   . .   . . .   . . .   . .   . .   . . .   . . .   . .   . .  .",
". . .   . .   . . .   . . .   . .   . .   . . .   . . .   . .   . .  .",
". . .   . .   . . .   . . .   . .   . .   . . .   . . .   . .   . .  .",
"......................................................................",
".                                                                    .",
".                                                                    .",
".                                                                    .",
".                                                                    .",
".                                                                    .",
".                                                                    .",
".                                .                                   .",
".                               ...                                  .",
".                              .....                                 .",
".                                .                                   .",
".                                .                                   .",
".                                .                                   .",
".                                .                                   .",
".                                ..                                  .",
".                             .  .                  .                .",
".                                .                                   .",
".                             .  .                  .                .",
".                                .                                   .",
".                             .  ..         .       .                .",
".                                .                                   .",
".               .             .  .          .       .                .",
".                                .                                   .",
".               .             .  .          .       .                .",
".                                ..                                  .",
".               .             .  .          .       .                .",
".                                .                                 . .",
".               .             .  .          .       .              ...",
"............ . . . . . . . . . . . . . . . . . . . . . . . . .........",
".  .    .    .    .    .    .    .    .    .    .   .    .    .    ...",
".                                .                                 . .",
".                                .                                   .",
".                                .                                   .",
".                                ..                                  .",
".                                .                                   .",
"......................................................................"
};
