/* XPM */
static char *undo[] = {
/* columns rows colors chars-per-pixel */
"19 18 2 1 ",
"  c gray100",
". c black",
/* pixels */
"                   ",
"                   ",
"   .               ",
"   ..   .....      ",
"   ... ........    ",
"   .............   ",
"   ......   ....   ",
"   .....     ....  ",
"   ......     ...  ",
"   .......    ...  ",
"              ...  ",
"              ...  ",
"             ....  ",
"            ....   ",
"       ........    ",
"       .......     ",
"                   ",
"                   "
};
