/* XPM */
static char * colorMaps_xpm[] = {
"60 20 11 1",
" 	c None",
".	c #545454",
"+	c #FFFFFF",
"@	c #FF0000",
"#	c #0099FF",
"$	c #99FF66",
"%	c #C0C0FF",
"&	c #A8DCFF",
"*	c #FF794B",
"=	c #FFFF00",
"-	c #FFC0C0",
" .......................................................... ",
".+..+..+++..+++..+...+++..+++..+++..+++..+++..+++...++..+++.",
".+..+...+...+....+....+...+.+..+.....+.....+..+....+....+.+.",
".+..+...+...+....+....+...+.+..+.....+.....+..+....++...+.+.",
".++++...+...+++..+....+...+.+..+++...+.....+..+.....+...+++.",
".+..+...+...+....+....+...+.+..+.....+.....+..+.+...++..+.+.",
".+..+...+...+....+....+...+.+..+.....+...+.+..+.+....+..+.+.",
".+..+..+++..+++..+++..+...+++..+....+++..+++..+++..++...+++.",
"............................................................",
"............................................................",
"............................................................",
".@..@..###..$$$..%...&&&..@@@..$$$..***..===..---...$$..***.",
".@..@...#...$....%....&...@.@..$.....*.....=..-....$....*.*.",
".@..@...#...$....%....&...@.@..$.....*.....=..-....$$...*.*.",
".@@@@...#...$$$..%....&...@.@..$$$...*.....=..-.....$...***.",
".@..@...#...$....%....&...@.@..$.....*.....=..-.-...$$..*.*.",
".@..@...#...$....%....&...@.@..$.....*...=.=..-.-....$..*.*.",
".@..@..###..$$$..%%%..&...@@@..$....***..===..---..$$...***.",
"............................................................",
" .......................................................... "};
