/* XPM */ 
static const unsigned char * replace_xpm[] = {
"60 18 2 1",
" 	c None",
"!	c black",
"                                                            ",
"                                                            ",
"                                                            ",
"                                                            ",
"                               !!                           ",
"         !!!!!                 !!                           ",
"         !!  !!                !!                           ",
"         !!  !!   !!!!  !!!!!  !!  !!!!   !!!!  !!!!        ",
"         !!  !!  !!  !! !!  !! !!     !! !!    !!  !!       ",
"         !!!!!   !!!!!! !!  !! !!  !!!!! !!    !!!!!!       ",
"         !! !!   !!     !!  !! !! !!  !! !!    !!           ",
"         !!  !!  !!     !!  !! !! !!  !! !!    !!           ",
"         !!   !!  !!!!! !!!!!  !!  !!!!!  !!!!  !!!!!       ",
"                        !!                                  ",
"                        !!                                  ",
"                                                            ",
"                                                            ",
"                                                            "};