/* XPM */
static char *import[]={
"32 32 64 1",
". c None",
"Y c #009b00",
"3 c #00ad00",
"7 c #00be00",
"S c #027d02",
"U c #044e03",
"5 c #0cb50c",
"M c #0f850e",
"1 c #15a215",
"8 c #1acf1a",
"X c #1c8a1b",
"9 c #1e5c1d",
"4 c #20b820",
"W c #29a228",
"J c #347733",
"K c #3c9b3b",
"2 c #40cc40",
"R c #528c51",
"6 c #535353",
"Z c #5bcb5b",
"# c #666666",
"T c #6abd6a",
"B c #777777",
"V c #7ac279",
"v c #7e7e7e",
"y c #828282",
"0 c #82dd82",
"D c #838383",
"x c #858585",
"a c #8a8a8a",
"L c #8dc28d",
"m c #8e8e8e",
"u c #929292",
"s c #959595",
"r c #989898",
"O c #98d298",
"t c #9c9c9c",
"l c #9e9e9e",
"z c #a1a1a1",
"b c #a2a2a2",
"A c #a4a4a4",
"k c #a7a7a7",
"N c #a9d3a9",
"q c #aaaaaa",
"j c #adadad",
"c c #b2b2b2",
"i c #b6b6b6",
"p c #bababa",
"Q c #badcba",
"d c #bdbdbd",
"E c #c2c2c2",
"h c #c3c3c3",
"e c #c6c6c6",
"f c #c9c9c9",
"P c #cae4ca",
"g c #cbcbcb",
"I c #cccccc",
"F c #cdcdcd",
"w c #cfcfcf",
"o c #d2d2d2",
"n c #d5d5d5",
"C c #dcdcdc",
"G c #e7e7e7",
"H c #f4f4f4",
"............#######.............",
"......#abcdefggehddijkla#.......",
"....mdnopqlrssrrtllltrutjkm.....",
"..vwnctxyyyxamsrlzAqjcccksrcx...",
".BCdmyyyyyDamustlAkjccipppcuja..",
".cwxyyyyyyxamurtzAqjcipddddpac..",
".bCayyyyyyDamurlbkqcipdEhhEpsd..",
".aFnryyyyyxamsrlbkjcipEhfecqox..",
".lcGHnquxyxamsrlbkjcipdijiopji..",
".bfHHHHHGFpjblllzbAqcdfoFjcCCj..",
".bgHHHHHAcpEIooooowhpicpnGCIgq..",
".mfGHHHHffeehEEheJJKKKKLIIIIha..",
".BsCHHHGIIIIIIIIgMNOLLMBeIgjtt..",
".rmpnCGGIIIIIIIIgMPQNNMRjAkEAz..",
".zEwedEeljidEheehMQdOLSRhGpqCi..",
".bICCnfdvBymurlAkMNOLTURqpCCIc..",
".lICCCCCdijkAAAkqMLLVRSRonIIIA..",
".vdnCCCnIggggFwooMLVTWSREIIgAs..",
".sajgnnnIfKXXXXXXMTTRYSMMMMMMM..",
".zdkrbiehIXPQNOLVTTZWYYYYYYYYY..",
".bgFeibsyxXQNO0VTZZWYYYYYYYYY1U.",
".zIonowfiqXOO0VTZ2W3Y33333333WU.",
".vhonnnngfWO0VZ24533333333333KU.",
".6vpwnnnIgW455333373777775422T..",
"..6#ujEIgIVRRRRRRY77777JJJJJUU..",
"....6#BaxuzAAkqqkY77777JauB.....",
".......66#BBBBvvD3888849........",
".................122222U........",
".................WZZZZ0U........",
".................20000OS........",
".................K000OOU........",
"................................"};
