/* XPM */
static char *markinvert22[]={
"22 22 34 1",
". c None",
"# c #000000",
"a c #0066ff",
"d c #060006",
"m c #060600",
"b c #0d6fff",
"k c #1b001b",
"h c #1b0f0c",
"C c #1b1b00",
"s c #1f7aff",
"c c #1f7bff",
"x c #3589ff",
"p c #4c99ff",
"l c #4d99ff",
"t c #64a8ff",
"A c #64a9ff",
"q c #65a9ff",
"e c #6c006c",
"D c #6f6f00",
"u c #7ab7ff",
"y c #7ab8ff",
"w c #8cc3ff",
"z c #8cc4ff",
"v c #99ccff",
"f c #c000c0",
"E c #c0c000",
"F c #c3c300",
"i c #cf00cf",
"B c #d200d2",
"n c #d2d200",
"g c #f900f9",
"j c #ff00ff",
"o c #ff8d72",
"r c #ffff00",
".................#....",
".................##...",
".................#a#..",
"..............####aa#.",
"........######.#aaabc#",
"......#defggfed##abc##",
"......hijjjjjjik##c#l#",
".....mnojjjjjjj##.#pq#",
"#######rojjjjjj#s#ltu#",
"#vvvwu#rrojjjjj#xlqyw#",
".#vzyA#rrrojjjj#pAuwv#",
"#vwuAp#rrrrojjj#Ayzv#.",
"#wyqlx#rrrrrojj#uwvvv#",
"#utl#s#rrrrrroj#######",
"#qp#.##rrrrrrroBd.....",
"#l#c#.Cnrrrrrrnh#.....",
"##cba#.mDErrFDm.......",
"#cbaaa#..####.........",
".#aa####..............",
"..#a#.................",
"...##.................",
"....#................."};
