/* XPM */ 
static const unsigned char * helixtext_xpm[] = {
"120 19 12 1",
" 	c None",
"!	c black",
"#	c #545454",
"$	c #00FF00",
"%	c #FF0000",
"&	c #808080",
"'	c white",
"(	c #BFFFFF",
")	c #FFFFBF",
"*	c #BF9C9C",
"+	c #DFFFFF",
",	c #FFFFDF",
" ###################################################################################################################### ",
"###$$######################################################$$$$$########################################################",
"###$$#############################$$$$$$$################$$$##%$$$######################################################",
"###%$$###########################$$#%###$$$#############$$%###%#$$$#####################################################",
"###%#$$##########################$##%###%#$$$##########$$#%###%###%#####################################################",
"###%##$$##########$$$$$#########$%##%###%###$$########$$##%###%###%#####################################################",
"###%##%$$#######$$$%##$$$######$$%##%###%###%$$######$$%##%###%###%###########&'###&'#&''''#&'####&'''#&'##&'###########",
"###%##%#$$####$$$##%##%#$$$####$#%##%###%###%#$$####$$#%##%###%###%###########&'###&'#&'####&'#####&'##&(##&)###########",
"###%##%##$###$$#%##%##%##%$$##$$#%##%###%###%##$$##$$##%##%###%###%###########&'###&'#&'####&'#####&'###&'*+############",
"###%##%##$$#$$##%##%##%##%#$$$$##%##%###%###%###$$$$###%##%###%###%###########&''''''#&''',#&'#####&'####&'#############",
"###%##%###$$$###%##%##%##%##$$###%##%###%###%####$$$###%##%###%###%###########&'###&'#&'####&'#####&'####&'#############",
"###%##%###$$####%##%##%##%##$$$##%##%###%###%###$$#$$##%##%###%###%###########&'###&'#&'####&'#####&'###&'*+############",
"###%##%##$$$$###%##%##%##%#$$#$$#%##%###%###%##$$###$$#%##%###%###%###########&'###&'#&'####&'#####&'##&+##&,###########",
"###%##%#$$##$$##%##%##%##%$$###$$%##%###%###%#$$######$$##%###%###%###########&'###&'#&''''#&''''#&'''#&'##&'###########",
"###%##%$$####$$$%##%##%##$$#####$$##%###%###%$$#########$$$$##%#$$$#####################################################",
"###%#$$$######$$$##%##%#$$#######$$$$###%##$$$#############$$$$$$$######################################################",
"###%#$#########$$$#%##$$############$$$$$$$$############################################################################",
"###$$$###########$$$$$$#################################################################################################",
" ##$$################################################################################################################## "};