/* XPM */
static char *info[]={
"32 32 64 1",
". c None",
"z c #16438c",
"Q c #1664ae",
"1 c #216cb1",
"I c #235bac",
"Y c #236cbd",
"Z c #2376c0",
"N c #2662b2",
"U c #2669ba",
"u c #27579d",
"R c #2765b6",
"S c #2969b8",
"W c #2a6bbb",
"X c #2a6ebe",
"c c #2b4b80",
"T c #2c72c2",
"O c #2f67a7",
"n c #31568f",
"M c #316bb3",
"V c #3176c5",
"P c #326fbc",
"h c #3762a2",
"0 c #3b7cc7",
"3 c #3d87cd",
"g c #3f6197",
"G c #4177be",
"p c #4270ad",
"2 c #4682cb",
"H c #4d7fc1",
"b c #4f6b97",
"4 c #518acf",
"m c #547ab3",
"A c #5c87c2",
"5 c #5c90d3",
"L c #678ec6",
"K c #6892ca",
"J c #6999d6",
"f c #6e86ad",
"6 c #74a0da",
"9 c #7692c6",
"y c #789bcd",
"8 c #7fa6df",
"l c #83a2ce",
"a c #889bbb",
"i c #88a6d2",
"7 c #8eb1e4",
"q c #93add5",
"F c #9ab2d6",
"o c #9baac3",
"C c #a4bfea",
"j c #a5b8d7",
"k c #b2c1db",
"D c #bccde7",
"# c #c7cdd7",
"d c #cbd7ea",
"B c #dae2ee",
"r c #e1e9f4",
"e c #e7e9ed",
"x c #e9eef7",
"v c #eff3f9",
"w c #f5f7fb",
"E c #fbfbfd",
"s c #fdfeff",
"t c #ffffff",
"...........#abccccbad...........",
"........efghfijkkjlmngf.........",
".......onpqrstttsttsdlngj.......",
"......nujvwvxxxxxxxxwwxyzb......",
".....nAdrBBBBBrrBBBBBBrrkhb.....",
"....nmBddddddxstwBddddddBCub....",
"...gmdDDDDDDBtttsvDDDDDDDdjuf...",
"..oujkkkkkkkBttttEkkkkkkkkDyzo..",
"..nyjjjjjjjFDEtttBqjjjjjjFjjGg..",
".fuFqqqqqqqqqkxwdiiqqqqqqqFFlu..",
".gAilililiiiiliilliiiiiiilAHpIb.",
".hJyyyyyyyyKKyyyyyyyyyyLHMIIINn.",
"oOKLLLKKKKyDDddBxrKKKAMIIIIIINuj",
"fMAAAAAAAAKdEstttwAHPNNNNNNIINQo",
"bMHHHHHHHHHGlvtttvpNRRRRRNNNNNQa",
"gSGGGGGGGGGGTDtttvSUUSSSRRRNNRQa",
"bQMPPPPPPVPVWDtttvMUXWWSSSRRRRQa",
"mQURSWWXXXXXYDtttvMYXXXXWWSSRUQo",
"aQYWWXXXXTTTYDtttvMXTTXXXXWWSYQj",
".QZWXXXTTTVVTDtttvPVVVTTXXXXUZu#",
".pZXXTTTVV00VDtttvG00VVVTTTXXZg.",
".f1TTVV000020dsttvG02200VVTTV1a.",
"..O3VV0022222dtttvm2222200VV3p..",
"..aG302224442dsttwA2444220V3Oj..",
"...h44244456Dsttttr75544Hmmmb...",
"....p55455JDrBBBBBBdL555H5Km....",
"....op6J5JJJKLKKKLLLLJJ5L5m.....",
".....#h676J6686888666J67Lm......",
".......fm8C7888888887C8mf.......",
"........afyq7CCCCCC7i9fo........",
".........BkammA99Amma#..........",
".............#kkkk#B............"};
