/* XPM */
static char *mark_all[]={
"22 22 32 1",
". c None",
"# c #000000",
"i c #009400",
"y c #00ab00",
"v c #00b700",
"n c #00c300",
"z c #00cf00",
"t c #00db00",
"u c #00f300",
"A c #00ff00",
"j c #310031",
"q c #3c003c",
"d c #3f003f",
"a c #3f3f00",
"o c #690069",
"s c #696900",
"l c #780078",
"g c #787800",
"e c #b100b1",
"b c #b1b100",
"w c #c000c0",
"r c #c3c300",
"f c #e400e4",
"c c #e6e600",
"D c #e700e7",
"B c #f000f0",
"x c #f0f000",
"C c #f300f3",
"p c #fc00fc",
"m c #fcfc00",
"k c #ff00ff",
"h c #ffff00",
"....####......####....",
"..#abccba####deffed#..",
".#ghhhhhh#i#jkkkkkkl#.",
".amhhhhhh#nn##okkkkpq.",
"#rhhs#####tutv##okkkw#",
"#xhh#yzzztuAAuty#kkkB#",
"#xhh#yzzztuAAuty#kkkC#",
"#rhhs#####tutv##okkkw#",
".amhhhhhh#nn##okkkkpq.",
".#ghhhhhh#i#jkkkkkkl#.",
"..#abccba####deDDed#..",
"....####......####....",
"......................",
"......................",
"......................",
"......######.###......",
".....##h##h#.#h#......",
".....#h#h#h#.#h#......",
".....#h#h#h#.#h#......",
".....#hhh#h###h###....",
".....#h#h#hhh#hhh#....",
".....#############...."};
