/* XPM */
static char *mark_only[]={
"22 22 15 1",
"# c None",
". c #000000",
"b c #1b001b",
"e c #270027",
"h c #2a002a",
"c c #a800a8",
"i c #ab00ab",
"j c #ae00ae",
"d c #e400e4",
"m c #e700e7",
"f c #ed00ed",
"k c #f000f0",
"l c #f300f3",
"g c #ff00ff",
"a c #ffff00",
".....................#",
".aa.aa..a..aaaa.a..a.#",
".aa.aa.a.a.a..a.a.a..#",
".a.a.a.a.a.aaaa.aa..##",
".a.a.a.aaa.a.a..a.a..#",
".a.a.a.a.a.a..a.a..a.#",
".....................#",
"#######.bcddcb.#######",
"#######efggggfh#######",
"######.iggggggj.######",
"######.kggggggl.######",
"######.kggggggl.######",
"######.jggggggj.######",
"#######hfggggfh#######",
"#######.bimmib.#######",
"##...............#...#",
"#..aa..a..a.a..a...a.#",
"#.a..a.aa.a.a...a.a..#",
"#.a..a.aaaa.a.#..a..##",
"#.a..a.a.aa.a....a.###",
"#..aa..a..a.aaa..a.###",
"##.................###"};
