/* XPM */
static char *quitText[]={
"70 19 201 2",
".# c None",
"Qt c None",
"#. c #000000",
".Y c #a62213",
".c c #a62214",
".I c #a62313",
".b c #a62314",
".d c #a62414",
".s c #a72616",
".a c #a72718",
"bb c #a92b17",
"bg c #a92b18",
"bc c #ad3622",
".H c #ad3722",
".r c #ad3823",
".e c #b03e2c",
"bf c #b13f26",
"a5 c #b14026",
"aT c #b75135",
".X c #b8573b",
"aM c #b95538",
".K c #b95732",
"ay c #b95839",
"aj c #ba593a",
".L c #ba5a36",
"be c #ba5a3a",
"ba c #bb5a3d",
"#9 c #bb5b3b",
"bd c #bb5d3c",
"#X c #bb5d3d",
".q c #bb5d41",
".0 c #bb5e38",
".M c #bb5f39",
"## c #bc5f3a",
"#L c #bc5f3e",
"#A c #bc6140",
"#m c #bc6242",
".v c #bd623f",
".9 c #bd6544",
".Z c #be623f",
".w c #be6440",
".x c #bf6742",
".y c #c06944",
".z c #c06b46",
".J c #c06b49",
".u c #c16a49",
".f c #c16a53",
".N c #c16c48",
"#D c #c16e47",
".A c #c16e48",
".p c #c16e4f",
".o c #c26f50",
".B c #c2704a",
".n c #c27051",
"a. c #c27153",
"a6 c #c2724f",
".G c #c27250",
"#o c #c36f4c",
"#O c #c3714a",
".m c #c37153",
".l c #c37254",
"ak c #c3734c",
".C c #c3734d",
".k c #c47356",
".j c #c47357",
"#0 c #c4744d",
".T c #c4744e",
"#n c #c47459",
".i c #c4745a",
"aA c #c4754e",
".D c #c4754f",
".h c #c4755b",
"az c #c4764f",
".U c #c47750",
"#r c #c57551",
".E c #c57851",
".V c #c57b53",
".6 c #c57b54",
".g c #c6785e",
".S c #c67953",
"#u c #c67b55",
"aU c #c67d56",
".F c #c67d57",
"#N c #c77956",
"#Z c #c77d59",
".7 c #c77e57",
".W c #c77f58",
".8 c #c78059",
"a7 c #c7805a",
"#T c #c7815a",
"#E c #c87c56",
".t c #c87d63",
"#H c #c88059",
"#k c #c8815b",
"aV c #c8825c",
"#l c #c8835c",
"#P c #c97e59",
"al c #c9805d",
"#S c #c9835d",
"#z c #c9855e",
"#5 c #c9855f",
"#K c #c98761",
"#1 c #ca815d",
"ab c #ca855f",
"ap c #ca8560",
"#4 c #ca8661",
"af c #ca8962",
"ae c #cb8a64",
"#W c #cb8a65",
"#y c #cb8b66",
"as c #cc8b66",
"#8 c #cd8e6a",
"aW c #cd8f6b",
"#e c #ce8767",
"#f c #cf8b6b",
"b# c #cf9074",
"a8 c #cf916e",
"a4 c #cf9174",
"ai c #cf926e",
"a9 c #d09473",
"ax c #d09573",
"ao c #d19372",
"aL c #d19778",
"aS c #d2997c",
".R c #d39475",
"b. c #d3997c",
"aE c #d39a7a",
"aF c #d39b7a",
"a2 c #d39c7d",
"aK c #d39d7c",
".O c #d49276",
".5 c #d49b7d",
".1 c #d5987d",
"aw c #d59e7e",
"a1 c #d59f7f",
"aR c #d5a082",
"#a c #d69a80",
"#j c #d6a083",
"#v c #d7a082",
"a3 c #d7a589",
"#U c #d8a284",
"#J c #d8a485",
"#B c #d99f85",
"#6 c #d9a587",
"at c #d9aa8d",
"#C c #daa48a",
"aa c #dca990",
"ah c #ddae93",
"a# c #dfab91",
"#d c #dfad97",
"aB c #dfae96",
"aD c #dfb199",
"aX c #dfb297",
"aJ c #dfb49b",
"aN c #e0b39b",
"a0 c #e1b69d",
"aQ c #e1b8a0",
".Q c #e3b49f",
".P c #e4b5a0",
"#V c #e4baa1",
"aG c #e4bea8",
"#t c #e4c0ae",
"#g c #e5bba6",
"#7 c #e5bda5",
"#M c #e6c0af",
"#Y c #e7c2b1",
"#I c #e7c3af",
"ag c #e8c7b2",
"ar c #e9cab9",
"aY c #ebcebb",
"aZ c #eccebb",
"#s c #eccebf",
"#G c #eed5c8",
"#R c #efd6ca",
"#3 c #efd8cb",
"ad c #efd9cc",
"aq c #f0d8ca",
"#x c #f6e6dd",
"#F c #f7e5dc",
"#Q c #f7e6dd",
"#q c #f7e8e1",
"#c c #f7e9e2",
"#2 c #f8e6de",
"ac c #f8e7df",
".4 c #f8e8e0",
"an c #f8eae4",
".2 c #faede7",
"av c #faefe8",
"#p c #faf1ed",
"#h c #faf2ed",
"aH c #faf4ef",
"au c #faf5f0",
"aP c #fbf0e9",
"aO c #fbf2ed",
"#w c #fbf4f0",
"am c #fbf5f3",
"#i c #fbf7f4",
"#b c #fcf7f5",
"aI c #fcf9f7",
"aC c #fdfaf8",
".3 c #ffffff",
"QtQtQtQtQtQtQtQtQtQtQtQtQtQtQtQtQtQtQtQtQtQtQtQtQtQtQtQtQtQtQtQtQtQtQtQtQtQtQtQtQtQtQtQtQtQtQtQtQtQtQtQtQtQtQtQtQtQtQtQtQtQtQtQtQtQtQtQtQtQt",
"QtQtQtQt.#.#.a.b.c.c.c.c.c.c.c.c.c.c.b.a.#.#QtQtQtQtQtQtQtQtQtQtQtQtQtQtQtQtQtQtQtQtQtQtQtQtQtQtQtQtQtQtQtQtQtQtQtQtQtQtQtQtQtQtQtQtQtQtQtQt",
"QtQtQtQt.#.d.e.f.g.h.i.j.k.l.m.n.o.p.q.r.d.#QtQtQtQtQtQtQtQtQtQtQtQtQtQtQtQtQtQtQtQtQtQtQtQtQtQtQtQtQtQtQtQtQtQtQtQtQtQtQtQtQtQtQtQtQtQtQtQt",
"QtQtQtQt.s.e.t.u.v.w.x.y.z.A.B.C.D.E.F.G.H.sQtQtQtQtQtQtQtQtQtQtQtQtQtQtQtQtQtQtQtQtQtQtQtQtQtQtQtQtQtQtQtQtQtQtQtQtQtQtQtQtQtQtQtQtQtQtQtQt",
"QtQtQtQt.I.f.J.K.L.M.N.O.P.Q.R.S.T.U.V.W.X.IQtQtQtQt.#.#.#.#.#.#.#.#.#.#.#.#.#.#QtQtQtQtQtQtQtQtQtQtQtQtQtQt.#.#.#.#.#.#.#.#.#.#.#.#QtQtQtQt",
"QtQtQtQt.Y.g.Z.L.0.1.2.3.3.3.3.4.5.6.7.8.9.YQtQtQtQt.#.#.#.##.#.#.#.#..#.#.#.#.##.#.#.QtQtQt#.#.#.QtQt#.#.#..#.##.#.#.#.#.#.#.#.#..#QtQtQtQt",
"QtQtQtQt.Y.h.w###a#b#c#d#e#f#g#h#i#j#k#l#m.YQtQtQtQt.#.#.##.#.#.#.#.#.#..#.#.#.##.#.#.QtQtQt#.#.#.QtQt#.#.#..#.##.#.#.#.#.#.#.#.#..#QtQtQtQt",
"QtQtQtQt.Y#n.x#o#p#q#e#r#s#t#u#v#w#x#y#z#A.YQtQtQtQt.#.##.#.#..#.#.##.#.#..#.#.##.#.#.QtQtQt#.#.#.QtQt#.#.#..#.#.#.#.##.#.#..#.#.#.#QtQtQtQt",
"QtQtQtQt.Y.j.y#B.3#C#D#E#F#G#H.8#I.3#J#K#L.YQtQtQtQt.##.#.#.#..#.#.##.#.#.#..#.##.#.#.QtQtQt#.#.#.QtQt#.#.#..#.#.#.#.##.#.#..#.#.#.#QtQtQtQt",
"QtQtQtQt.Y.k.z#M.3#N#O#P#Q#R#S#T#U.3#V#W#X.YQtQtQtQt.##.#.#.#..#.#.##.#.#.#..#.##.#.#.QtQtQt#.#.#.QtQt#.#.#..#.#.#.#.##.#.#..#.#.#.#QtQtQtQt",
"QtQtQtQt.Y.l.A#Y.3#Z#0#1#2#3#4#5#6.3#7#8#9.YQtQtQtQt.##.#.#.#..#.#.##.#.#.#..#.##.#.#.QtQtQt#.#.#.QtQt#.#.#..#.#.#.#.##.#.#..#.#.#.#QtQtQtQt",
"QtQtQtQt.Ya..Ba#.3aa.Uabacadaeafag.3ahaiaj.YQtQtQtQt.##.#.#.#..#.#.##.#.#.#..#.##.#.#.QtQtQt#.#.#.QtQt#.#.#..#.#.#.#.##.#.#..#.#.#.#QtQtQtQt",
"QtQtQtQt.Y.nakalamanaoapaqarasatauavawaxay.YQtQtQtQt.#.##.#.#..#.#.##.#.#..#.#.##.#.#.QtQtQt#.#.QtQtQt#.#.#..#.#.#.#.##.#.#..#.#.#.#QtQtQtQt",
"QtQtQtQt.Y.oazaAaBaC#caDaEaFaGaHaIaJaKaLaM.YQtQtQtQt.#.#.##.#.#.#.#.#.#..#.#.#.#Qt#.#.#.#.#.#.#.QtQtQt#.#.#..#.#.#.#.##.#.#..#.#.#.#QtQtQtQt",
"QtQtQtQt.Y.p.E.U.6aNaO.3.3.3.3aPaQaKaRaSaT.YQtQtQtQt.#.#.#.##.#.#.#.#..#.#.#.#.#QtQt#.#.#.#.#.QtQtQtQt#.#.#..#.#.#.#.##.#.#..#.#.#.#QtQtQtQt",
"QtQtQtQt.I.qaU.V.7aVaWaXaYaZa0a1a2aRa3a4a5.IQtQtQtQt.#.#.#.#.#.#.##.#..#.#.#.#.#QtQtQtQtQtQtQtQtQtQtQtQtQtQtQtQtQtQtQtQtQtQtQtQtQtQtQtQtQtQt",
"QtQtQtQt.s.ra6.Wa7#l#z#K#W#8a8a9aLb.b#babb.sQtQtQtQt.#.#.#.#.#.#.##.#.#..#.#.#.#QtQtQtQtQtQtQtQtQtQtQtQtQtQtQtQtQtQtQtQtQtQtQtQtQtQtQtQtQtQt",
"QtQtQtQt.#.dbc.X.9#m#A#Lbd#9beayaMaTbfbg.d.#QtQtQtQt.#.#.#.#.#.#.#.##.#..#.#.#.#QtQtQtQtQtQtQtQtQtQtQtQtQtQtQtQtQtQtQtQtQtQtQtQtQtQtQtQtQtQt",
"QtQtQtQt.#.#.a.b.c.c.c.c.c.c.c.c.c.c.b.a.#.#QtQtQtQtQtQtQtQtQtQtQtQtQtQtQtQtQtQtQtQtQtQtQtQtQtQtQtQtQtQtQtQtQtQtQtQtQtQtQtQtQtQtQtQtQtQtQtQt"};
