/* XPM */
static char *replace[] = {
/* columns rows colors chars-per-pixel */
"50 15 2 1 ",
"  c gray100",
". c black",
/* pixels */
"                                                  ",
"                                                  ",
"  .....                ..                         ",
"  .    .                .                         ",
"  .    .                .                         ",
"  .    .  ....  . ...   .    ....   ....   ....   ",
"  .....  .    . ..   .  .        . .    . .    .  ",
"  . .    ...... .    .  .    ..... .      ......  ",
"  .  .   .      ..   .  .   .    . .      .       ",
"  .   .  .    . . ...   .   .   .. .    . .    .  ",
"  .    .  ....  .     .....  ... .  ....   ....   ",
"                .                                 ",
"                .                                 ",
"                                                  ",
"                                                  "
};
