/* XPM */
static char *_to5[] = {
/* columns rows colors chars-per-pixel */
"49 9 2 1 ",
"  c none",
". c black",
/* pixels */
"        ..                                     ..",
".....   ..                             ....    ..",
"..      ..    ..                      ..  ..   ..",
"..           ..                           ..     ",
"....        ......................      ...      ",
"   ..       ......................        ..     ",
"   ..        ..                           ..     ",
".  ..         ..                      ..  ..     ",
"....                                   ....      "
};
