/* XPM */
static char *jm3[] = {
/* columns rows colors chars-per-pixel */
"20 20 2 1 ",
"  c gray100",
". c black",
/* pixels */
"        ..          ",
"      ......        ",
"     ........   .   ",
"     ........  ...  ",
"..    ........ ...  ",
" ... ........ ...   ",
" ....  ..... ....   ",
" ...... ........    ",
"   ...........      ",
"       ......       ",
"        .....       ",
"       .......      ",
"       ......       ",
"       .......      ",
"      .... ..       ",
"       ...  ..      ",
"       ...  ...     ",
"       ...  ...     ",
"      ...   ...     ",
"       ..   ...     "
};
