/* XPM */
static char *clear[] = {
/* columns rows colors chars-per-pixel */
"13 13 2 1 ",
"  c gray100",
". c black",
/* pixels */
"             ",
" .        .  ",
" ..      ..  ",
"  ..    ..   ",
"   ..  ..    ",
"    ....     ",
"     ..      ",
"    ....     ",
"   ..  ..    ",
"  ..    ..   ",
" ..      ..  ",
" .        .  ",
"             "
};
