/* XPM */ 
static const unsigned char * secedit_xpm[] = {
"32 32 3 1",
" 	c None",
"!	c black",
"#	c #808080",
"         #!#         #! #       ",
"         # #       !! !#        ",
"         #!#      !  !#         ",
"         # #     #!  !#        #",
"         #!#   ## #!!  #      #!",
"         # # ##!##   #! #    # #",
" !!      !!!# ##      # #   #!# ",
"!  !####!   !#         # !!! #  ",
"!  !  ! !   !           !   !   ",
"!  !####!   !        !! !   !   ",
" !!      !!!        !  !!   !   ",
"         # #         !!# !!!    ",
"         #!#         # #        ",
"   !!    # #         # #        ",
"##!  !   #!#         # #        ",
"! !  !   # #         !!!        ",
"##!  !   #!#        !   !#######",
"   !!    # #        !   !#######",
"         #!#       ##!!!        ",
"         # #     ##! # ##       ",
"         !!!   ##! ##  ##       ",
"       !!   !!#!  #     ##      ",
"#######!     !  ##      ##      ",
"! ! ! !       !#        #!!     ",
"######!       !         !  !    ",
"       !     !##         !!     ",
"       !!   !!  ####            ",
"         !!! ## ! ! ##!!        ",
"         # #   ####  !  !#######",
"         #!#       ##!  !#######",
"         # #          !!        ",
"         #!#                    "};