/* XPM */
static char * secedit_xpm[] = {
"42 21 175 2",
"  	c None",
". 	c #F2F2F2",
"+ 	c #808080",
"@ 	c #1F1F1F",
"# 	c #828282",
"$ 	c #B5B5B5",
"% 	c #E7E7E7",
"& 	c #F1F1F1",
"* 	c #E0E0E0",
"= 	c #8F8F8F",
"- 	c #616161",
"; 	c #CFCFCF",
"> 	c #242424",
", 	c #7F7F7F",
"' 	c #393939",
") 	c #CACACA",
"! 	c #5A5A5A",
"~ 	c #9D9D9D",
"{ 	c #EFEFEF",
"] 	c #8E8E8E",
"^ 	c #8C8C8C",
"/ 	c #0F0F0F",
"( 	c #696969",
"_ 	c #4F4F4F",
": 	c #8D8D8D",
"< 	c #353535",
"[ 	c #676767",
"} 	c #4A4A4A",
"| 	c #474747",
"1 	c #000000",
"2 	c #EAEAEA",
"3 	c #E8E8E8",
"4 	c #737373",
"5 	c #BABABA",
"6 	c #666666",
"7 	c #D1D1D1",
"8 	c #6C6C6C",
"9 	c #4E4E4E",
"0 	c #A9A9A9",
"a 	c #ADADAD",
"b 	c #DCDCDC",
"c 	c #D0D0D0",
"d 	c #9F9F9F",
"e 	c #C4C4C4",
"f 	c #191919",
"g 	c #CDCDCD",
"h 	c #A8A8A8",
"i 	c #252525",
"j 	c #B3B3B3",
"k 	c #080808",
"l 	c #AAAAAA",
"m 	c #818181",
"n 	c #BBBBBB",
"o 	c #DFDFDF",
"p 	c #EDEDED",
"q 	c #BCBCBC",
"r 	c #BEBEBE",
"s 	c #ABABAB",
"t 	c #141414",
"u 	c #A5A5A5",
"v 	c #919191",
"w 	c #C1C1C1",
"x 	c #878787",
"y 	c #7B7B7B",
"z 	c #A3A3A3",
"A 	c #ACACAC",
"B 	c #575757",
"C 	c #464646",
"D 	c #939393",
"E 	c #B7B7B7",
"F 	c #3A3A3A",
"G 	c #565656",
"H 	c #545454",
"I 	c #949494",
"J 	c #A7A7A7",
"K 	c #C7C7C7",
"L 	c #848484",
"M 	c #1B1B1B",
"N 	c #979797",
"O 	c #727272",
"P 	c #C6C6C6",
"Q 	c #8B8B8B",
"R 	c #B0B0B0",
"S 	c #525252",
"T 	c #757575",
"U 	c #1E1E1E",
"V 	c #2E2E2E",
"W 	c #909090",
"X 	c #717171",
"Y 	c #929292",
"Z 	c #E1E1E1",
"` 	c #2D2D2D",
" .	c #7E7E7E",
"..	c #858585",
"+.	c #3C3C3C",
"@.	c #5F5F5F",
"#.	c #D4D4D4",
"$.	c #DADADA",
"%.	c #3F3F3F",
"&.	c #D8D8D8",
"*.	c #7C7C7C",
"=.	c #6E6E6E",
"-.	c #BDBDBD",
";.	c #C9C9C9",
">.	c #D5D5D5",
",.	c #3E3E3E",
"'.	c #DDDDDD",
").	c #7A7A7A",
"!.	c #C8C8C8",
"~.	c #B9B9B9",
"{.	c #444444",
"].	c #B2B2B2",
"^.	c #9B9B9B",
"/.	c #BFBFBF",
"(.	c #797979",
"_.	c #E5E5E5",
":.	c #5D5D5D",
"<.	c #505050",
"[.	c #030303",
"}.	c #6A6A6A",
"|.	c #D9D9D9",
"1.	c #C3C3C3",
"2.	c #D2D2D2",
"3.	c #999999",
"4.	c #A1A1A1",
"5.	c #707070",
"6.	c #202020",
"7.	c #8A8A8A",
"8.	c #CECECE",
"9.	c #4C4C4C",
"0.	c #CCCCCC",
"a.	c #AEAEAE",
"b.	c #454545",
"c.	c #4B4B4B",
"d.	c #686868",
"e.	c #E9E9E9",
"f.	c #DEDEDE",
"g.	c #D3D3D3",
"h.	c #6B6B6B",
"i.	c #373737",
"j.	c #B4B4B4",
"k.	c #E2E2E2",
"l.	c #7D7D7D",
"m.	c #868686",
"n.	c #3B3B3B",
"o.	c #C5C5C5",
"p.	c #494949",
"q.	c #A6A6A6",
"r.	c #838383",
"s.	c #787878",
"t.	c #636363",
"u.	c #888888",
"v.	c #767676",
"w.	c #747474",
"x.	c #969696",
"y.	c #0D0D0D",
"z.	c #585858",
"A.	c #E6E6E6",
"B.	c #212121",
"C.	c #9A9A9A",
"D.	c #6F6F6F",
"E.	c #111111",
"F.	c #414141",
"G.	c #AFAFAF",
"H.	c #B1B1B1",
"I.	c #6D6D6D",
"J.	c #5B5B5B",
"K.	c #F0F0F0",
"L.	c #989898",
"M.	c #B6B6B6",
"N.	c #959595",
"O.	c #EEEEEE",
"P.	c #B8B8B8",
"Q.	c #404040",
"R.	c #898989",
". . . . . . . . . + . @ # $ % & & & * = - ; > , ' ) ! ~ { & & & & & & & & & & & & & ",
". . . . . . . . . + ] ] ^ / ( _ & & & * : < [ & } | ~ { & & & & & & & & & & & & & & ",
". . . 1 1 . . . . 2 3 4 / 5 & 6 * & & & 7 8 & & & 9 0 a b { & & & & & & & & & & & & ",
"+ + 1 . . 1 . . & & & c d & e f g & & & h i 7 & j k h l m + n o p q r & & & & & & & ",
"1 . 1 . . 1 . & & & & s t u f v & & & w x y i z k : A z B C D E F _ G H w & & & & & ",
"+ + 1 . . 1 I * & & & & J K u & & & w L M N O P a & & & ) e Q R S & & T l U & & & & ",
"& & & 1 1 V W = * & & & & & & & & w X Y = ~ p & & & & & & & * Z `  ...t +.@.#.& & & ",
"& & & & $.+ D %.= * & & & & & & w , $ _ ~ p & & & & & & & & & & &.*. .=.w -.;.c & & ",
"& & & & & >. .l  .= * & & & & w ^ ,.*.~ p & & & & & & & & & & & '.).!.~.& & & & & & ",
"& & & & & & >., {.].= ^...& /.(.- 0 ~ p & & & & & & & & & & & & _.:.] 0 & & & & & & ",
"& & & & & & & >.m H <.[.M ).> &.}.~ p & & & & & & & & & 2 |.1.& & q 2.: p & & & & & ",
"& & & & & & & & E } & >.o & 8 V 3.p & & & & & & & & & & 4.5.6.7.o d z 8.& & & & & & ",
"& & & & & & & & J 9.& & & & & 4 2 & & & & & & & & & & & D 8 0...a.b.c.J & & & & & & ",
"& & & & & & & & f d.& & & & e.` ..& & & & & & & & & & r ^ F G M [.J a.[.J 8.$.f.8.g.",
"& & & & & & & & e h.& & & & & {.i.j.a.p 2 & & & p & ~.v k.a d L J & & a.l.m.n.o.( p.",
"& & & & & & & & q.` &.& & & & l.* +.*.r...0.$.e.,.s.U ; R d & T 8 & & 4 t.u.v.$ (.!.",
"& & & & & & & w u.w.` J I m x.y.4.R * O W ! z.[ 8 & (.> N & & e.,.8 4 i.k.A.& & & & ",
"& & & & & & w r.B.C.D./.E.F.@.r !.w = G.5 - H.I.J.& & (.K.& & & e.^.~ k.& & & & & & ",
"& & & & & & T L.^ ~ & ; (.A.a ) & & o % & j M.N.} J.a.[.u & & & & & & & & K.& & & & ",
"& & & & & & -._ ~ & & & 5 f.].e & & & & & & & O.R B N.z., P.& & & & & & & & & & & & ",
"& & & & & & & & & & & & A *.Q.R.e & & & & & & 8., , A.P , , P.& & & & & & & & & & & "};
