/* XPM */
static char *zoom[] = {
/* columns rows colors chars-per-pixel */
"13 13 2 1 ",
"  c none",
". c black",
/* pixels */
"             ",
"   ....      ",
"  .    .     ",
" .  .   .    ",
" .      .    ",
" .      .    ",
" .      .    ",
"  .    ..    ",
"   ......    ",
"        ..   ",
"         ..  ",
"          .. ",
"             "
};
