/* XPM */
static char *markid[]={
"22 22 4 1",
". c none",
"a c #000000",
"# c #696969",
"b c #ffff00",
"......................",
"......................",
"......................",
"#a#.#a##aa##aaa##a##a#",
"aba#abaabbaabbbaabaaba",
"abbabbaabbaabaabababa#",
"ababababaababbbaabba#.",
"abaaababbbbabaabababa#",
"aba.ababaababaababaaba",
"#a#.#a#a##a#a##a#a##a#",
"......................",
"......................",
"......#aa#aaaaa#......",
"......abbabbbbba#.....",
"......abbabbaabba.....",
"......abbabbaabba.....",
"......abbabbaabba.....",
"......abbabbaabba.....",
"......abbabbbbba#.....",
"......#aa#aaaaa#......",
"......................",
"......................"};
