/* XPM */
static char *gen_map[] = {
/* columns rows colors chars-per-pixel */
"24 18 2 1 ",
"  c gray100",
". c black",
/* pixels */
"                        ",
"    .        .    .     ",
"     .       .   .      ",
"      .   . .   .       ",
"       .  . .  .        ",
"        .     .   ..    ",
"     .          ..      ",
"      ..                ",
"                ..      ",
"     ...                ",
"  ...           ....    ",
"        .     .     ..  ",
"       .  . .  .        ",
"      .  .   .  .       ",
"         .   .          ",
"        .     .         ",
"        .     .         ",
"                        "
};
