/* XPM */
static char * ARB_DIST_xpm[] = {
"32 32 4 1",
" 	c None",
".	c #B003B2",
"+	c #DF8BE1",
"@	c #FFFFFF",
"@@@@@@@@@@@@@@@@@@@@@@@@@@@@@@@@",
"@@@@@@@@@@@@@@@@@@@@@@@@@@@@@@@@",
"@@@@@@@@@@@@@@@@@@@@@@@@@@@@@@@@",
"@@@@@@@@@@@@@@@@@@@@@@@@@@@@@@@@",
"@@@@@@@@@@@@@@@@@@@@@@@@@@@@@@@@",
"@@@@@@@@@@@@@@@@@@@@@@@@...@@@@@",
"@@@@@@@@@@@@@@@@@@@@@@@@...@@@@@",
"@@@@@@@@@@@@@@@@@@@@@@@@...@@@@@",
"@@@@@@@@@@@@@@@@@@@@@@@@...@@@@@",
"@@@@@@@@@@@@@@@@@@@@@@@@...@@@@@",
"@@@@@@@@@@@@@@@@@@@@@@@@...@@@@@",
"@@@@@@@@@@@@@@@@@@@@@@@@...@@@@@",
"@@@@@@@@@@@@@@@@@@@@@@@@...@@@@@",
"@@@@@@@@@@@@@@@@@@@@@@@@...@@@@@",
"@@@@@@@@@@@@@@@@@@@@@@@@...@@@@@",
"@@@@@@@@@@@@@@@@@@@@@@@@...+@@@@",
"@@@@@@@@@@@+.@@@@++...@@.....+@@",
"@@@@@@@@@@+..@@@+.....@@......+@",
"@@@@@@@@@+...@@+......@@.......+",
"@@@@@@@@+....@@+......@@........",
"@@@@@@@+.....@@....++@@@@@++....",
"@@@@@@+......@@...+@@@@@@@@@+...",
"@@@@@+.......@@...+@@@@@@@@@+...",
"@@@@+....+...@@...@@@@@@@@@@+...",
"@@@+....+@...@@...@@@@@@@@++....",
"@@+....+@@...@@...@@@...........",
"@+....+@@@...@@...@@@..........+",
"+....+@@@@...@@...@@@.........+@",
"....+@@@@@...@@...@@@........+@@",
"@@@@@@@@@@@@@@@@@@@@@@@@@@@@@@@@",
"@@@@@@@@@@@@@@@@@@@@@@@@@@@@@@@@",
"@@@@@@@@@@@@@@@@@@@@@@@@@@@@@@@@"};
