/* XPM */ 
static const unsigned char * unmask_xpm[] = {
"19 19 8 1",
" 	c None",
"!	c black",
"#	c #545454",
"$	c #FF0000",
"%	c #00FF00",
"&	c #FFFF00",
"'	c #0000FF",
"(	c #808080",
" ################# ",
"###################",
"##########$#####%##",
"##%%######$&&&&&%##",
"##%%%%#####$####%##",
"###%%%%####$&&&%###",
"####%%%%%##$'##%###",
"######%%%%##$#%####",
"########%%%%$%#####",
"#########%%%%%#####",
"##########%%%%%####",
"######((((###%%%%##",
"####(((###((#(%%%%#",
"###(###(####((##%%#",
"##(#(###((###(#####",
"##(##(####(#(######",
"##(###(###((#######",
"#######(#(#########",
" #######(######### "};