/* XPM */
static char *text[]={
"22 22 12 1",
". c None",
"# c #000000",
"a c #00c300",
"b c #00cb00",
"c c #00cf00",
"g c #00db00",
"d c #00e300",
"e c #00ef00",
"h c #00f300",
"i c #00fb00",
"f c #00ff00",
"j c #ffff00",
"..............#####...",
"..............#abc#...",
"..............#bde#...",
"...........####cef####",
"...........#abcghfhgc#",
"...........#bdehifihe#",
"...........#cefffffff#",
"...........####hif####",
"..............#ghf#...",
"..............#cef#...",
"..............#####...",
"......................",
"#####..#############..",
"#j#j##.#j#jjjj##jjj##.",
"#j#jj###j#j####j###j#.",
"#j#j#j##j#j####j#.#j#.",
"#j#j#j##j#jjj##j#.#j#.",
"#j#j##j#j#j####j#.#j#.",
"#j#j###jj#j#..#j###j#.",
"#j#j#.##j#j#..##jjj##.",
"#####..#####...#####..",
"......................"};
