/* XPM */
static char *beautifyt[] = {
/* columns rows colors chars-per-pixel */
"64 83 2 1 ",
"  c none",
". c black",
/* pixels */
"                                    ....                        ",
"                                    .   .                       ",
"                                    .   .   ...    ...     .   .",
"                                    .   .  .   .  .        .   .",
"                                    .   .      .  .        .   .",
"                       ...          ....    ....   ..       . . ",
"                       .            .      .   .     .      . . ",
"                       .            .      .   .     .  .    .  ",
"                       .            .       ... . ...   .    .  ",
"                       .                                        ",
"                     ...                                        ",
"                     . .            ....                        ",
"                     . .            .   .                       ",
"                     . .            .   .   ...    ...     .   .",
"                     . .            .   .  .   .  .        .   .",
"                     . ...          .   .      .  .        .   .",
"                     .              ....    ....   ..       . . ",
"                     .              .      .   .     .      . . ",
"                     .              .      .   .     .  .    .  ",
"                     .              .       ... . ...   .    .  ",
"                  ....                                          ",
"                  .  .            ....                          ",
"                  .  .            .   .                         ",
"                  .  .            .   .   ...    ...      ....  ",
"                  .  .            .   .  .   .  .        .   .  ",
"                  .  .            .   .      .  .        .   .  ",
"                  .  ...          ....    ....   ..      .   .  ",
"                  .               .      .   .     .     .  ..  ",
"                  .               .      .   .     .  .   .. .  ",
"                  .               .       ... . ...   .      .  ",
"                  .                                          .  ",
"                ...                                       ...   ",
"                . .               ....                          ",
"                . .               .   .                         ",
"                . .               .   .   ...    ...      ...   ",
"                . .               .   .  .   .  .        .      ",
"                . .  ...          .   .      .  .        .      ",
"                . .  .            ....    ....   ..       ..    ",
"                . .  .            .      .   .     .        .   ",
"                . .  .            .      .   .     .  .     .   ",
"                . .  .            .       ... . ...   .  ...    ",
"                . ....                                          ",
"                .    .            .    .      .                 ",
"                .    .            .    .      .                 ",
"                .    .            .    .     ....  ...   .   .  ",
"                .    .            .    .      .   .   .  .   .  ",
"                .    .            ......      .       .   . .   ",
"                .    ...          .    .      .    ....    .    ",
"                .                 .    .      .   .   .   . .   ",
"                .                 .    .  .   .   .   .  .   .  ",
"                .                 .    .  .    ..  ... . .   .  ",
"                .                                               ",
"             ....                                               ",
"             .  .            .    .                             ",
"             .  .            .    .                             ",
"             .  .            .    .      . ..    ...   . ..  .. ",
"             .  .            .    .      ..  .  .   .  ..   .   ",
"             .  ...          ......      .   .      .  .    .   ",
"             .               .    .      .   .   ....  .     .. ",
"             .               .    .      .   .  .   .  .    .   ",
"             .               .    .  .   .   .  .   .  .    .   ",
"             .               .    .  .   ....    ... . .     .. ",
"    ..........                           .                    . ",
"    .        .          ....             .                    . ",
"    .        .          .   .                                   ",
"    .        .          .   .   ...    ...      ...   .   .   . ",
"    .        .          .   .  .   .  .        .   .  .   .   . ",
"    .        .          .   .      .  .            .  .   .   . ",
"    .        ...        ....    ....   ..       ....   . .    . ",
"    .                   .      .   .     .     .   .   . .    . ",
"    .                   .      .   .     .  .  .   .    .     . ",
"    .                   .       ... . ...   .   ... .   .     . ",
"    .                                                           ",
".....                        .                                  ",
"    .            .    .      .                                  ",
"    .            .    .      .                                  ",
"    .            .    .      . ..    ...    ...    . ..  ..     ",
"    .            .    .      ..  .  .   .  .   .   ..  ..  .    ",
"    .......      ......      .   .      .  .   .   .   .   .    ",
"                 .    .      .   .   ....  .....   .   .   .    ",
"                 .    .      .   .  .   .  .       .   .   .    ",
"                 .    .  .   .   .  .   .  .   .   .   .   .    ",
"                 .    .  .   .   .   ... .  ...    .   .   .    "
};
