/* XPM */
static char *select[] = {
/* columns rows colors chars-per-pixel */
"24 24 2 1 ",
"  c gray80",
". c gray60",
/* pixels */
" . . . . . . . . . . . .",
". . . . . . . . . . . . ",
" . . . . . . . . . . . .",
". . . . . . . . . . . . ",
" . . . . . . . . . . . .",
". . . . . . . . . . . . ",
" . . . . . . . . . . . .",
". . . . . . . . . . . . ",
" . . . . . . . . . . . .",
". . . . . . . . . . . . ",
" . . . . . . . . . . . .",
". . . . . . . . . . . . ",
" . . . . . . . . . . . .",
". . . . . . . . . . . . ",
" . . . . . . . . . . . .",
". . . . . . . . . . . . ",
" . . . . . . . . . . . .",
". . . . . . . . . . . . ",
" . . . . . . . . . . . .",
". . . . . . . . . . . . ",
" . . . . . . . . . . . .",
". . . . . . . . . . . . ",
" . . . . . . . . . . . .",
". . . . . . . . . . . . ",
};
