/* XPM */
static char * align_xpm[] = {
"60 12 4 1",
" 	c None",
".	c #00A100",
"+	c #008000",
"@	c #FFFFFF",
" .++++++++++++++++++++++++++++++++++++++++++++++++++++++++. ",
".++++++++++++++++++++++++++++++++++++++++++++++++++++++++++.",
"+++++++++++++++@@@+++@@++++@@@@++@@@@@@+@@+++@++++++++++++++",
"+++++++++++++++@@@+++@@+++++@@++@@++++++@@@++@++++++++++++++",
"++++++++++++++@@+@@++@@+++++@@++@@++++++@@@@+@++++++++++++++",
"++++++++++++++@@+@@++@@+++++@@++@@++++++@+@@@@++++++++++++++",
"++++++++++++++@@+@@++@@+++++@@++@@++@@@+@++@@@++++++++++++++",
"+++++++++++++@@@@@@@+@@+++++@@++@@+++@@+@+++@@++++++++++++++",
"+++++++++++++@@+++@@+@@+++++@@++@@+++@@+@++++@++++++++++++++",
"+++++++++++++@@+++@@+@@@@@+@@@@++@@@@@@+@++++@++++++++++++++",
".++++++++++++++++++++++++++++++++++++++++++++++++++++++++++.",
" .++++++++++++++++++++++++++++++++++++++++++++++++++++++++. "};
