/* XPM */
static char *repeat[] = {
/* columns rows colors chars-per-pixel */
"29 10 2 1 ",
"  c none",
". c black",
/* pixels */
"                             ",
"                             ",
" ...  ... ...  ...  ..  ...  ",
" .  . .   .  . .   .  .  .   ",
" .  . .   .  . .   .  .  .   ",
" ...  ..  ...  ..  ....  .   ",
" . .  .   .    .   .  .  .   ",
" .  . ... .    ... .  .  .   ",
"                             ",
"                             "
};
