/* XPM */
static char *reset[] = {
/* columns rows colors chars-per-pixel */
"24 24 2 1 ",
"  c gray100",
". c black",
/* pixels */
"   .............        ",
"   ..............       ",
"   ...............      ",
"   .....    ......      ",
"   ....      .....      ",
"   .....    ......      ",
"   ..............       ",
"   .............        ",
"   ............         ",
"   ...........          ",
"   ............         ",
"   ...... ......        ",
"   ......  ......       ",
"   ......   ......      ",
"   ......    ......     ",
"                        ",
"                        ",
"  ..  ...  .. ... ...   ",
"  . . .   .   .    .    ",
"  ..  ..   .  ..   .    ",
"  . . .     . .    .    ",
"  . . ... ..  ...  .    ",
"                        ",
"                        "
};
