/* XPM */
static char *align[] = {
/* columns rows colors chars-per-pixel */
"34 15 2 1 ",
"  c gray100",
". c black",
/* pixels */
"                                  ",
"                                  ",
"    ..    ..                      ",
"   .  .    .    .                 ",
"  .    .   .                      ",
"  .    .   .   ..   ... . . ...   ",
"  .    .   .    .  .   .  ..   .  ",
"  ......   .    .  .   .  .    .  ",
"  .    .   .    .   ...   .    .  ",
"  .    .   .    .  .      .    .  ",
"  .    .  ...  ...  ....  .    .  ",
"                   .    .         ",
"                    ....          ",
"                                  ",
"                                  "
};
