/* XPM */
static char *beautifyc[] = {
/* columns rows colors chars-per-pixel */
"20 88 2 1 ",
"  c gray100",
". c black",
/* pixels */
"                    ",
"                    ",
"                    ",
"                    ",
"                    ",
"              ..... ",
"              .     ",
"              .     ",
"              .     ",
"              .     ",
"           ....     ",
"           .  .     ",
"           .  .     ",
"           .  .     ",
"           .  .     ",
"           .  .     ",
"           .  ..... ",
"           .        ",
"           .        ",
"           .        ",
"           .        ",
"        ....        ",
"        .  .        ",
"        .  .        ",
"        .  .        ",
"        .  .        ",
"        .  .....    ",
"        .           ",
"        .           ",
"        .           ",
"        .           ",
"     ....           ",
"     .  .           ",
"     .  .           ",
"     .  .           ",
"     .  .           ",
"     .  .           ",
"     .  ....        ",
"     .              ",
"     .              ",
"     .              ",
"     .              ",
"  ....              ",
"  .  .              ",
"  .  .              ",
"  .  .              ",
"  .  .              ",
"  .  ..........     ",
"  .                 ",
"  .                 ",
"  .                 ",
"...                 ",
"...                 ",
"  .                 ",
"  .                 ",
"  .                 ",
"  .                 ",
"  .                 ",
"  .  .....          ",
"  .  .              ",
"  .  .              ",
"  .  .              ",
"  .  .              ",
"  ....              ",
"     .              ",
"     .              ",
"     .              ",
"     .              ",
"     .  ....        ",
"     .  .           ",
"     .  .           ",
"     .  .           ",
"     .  .           ",
"     ....           ",
"        .           ",
"        .           ",
"        .  ..       ",
"        .  .        ",
"        .  .        ",
"        ....        ",
"           .        ",
"           .        ",
"           .        ",
"           ..       ",
"                    ",
"                    ",
"                    ",
"                    "
};
