/* XPM */
static char *moveAllLeft[] = {
/* columns rows colors chars-per-pixel */
"17 17 2 1 ",
"  c gray100",
". c black",
/* pixels */
"      .          ",
"     ..          ",
"    ...          ",
"   ....          ",
"  .............. ",
" ............... ",
"  .............. ",
"   ....          ",
" .. ... ........ ",
"  .. .. ........ ",
"   .. .          ",
" .. ..  ........ ",
"  .. .. ........ ",
"   .. .          ",
"    ..           ",
"     ..          ",
"      .          "
};
