/* XPM */
static char * radial_xpm[] = {
"23 23 44 1",
" 	c None",
".	c #F7F7F7",
"+	c #F8F8F8",
"@	c #FFFFFF",
"#	c #8A8A8A",
"$	c #000000",
"%	c #FAFAFA",
"&	c #050505",
"*	c #6E6E6E",
"=	c #777777",
"-	c #6A6A6A",
";	c #B1B1B1",
">	c #3A3A3A",
",	c #3D3D3D",
"'	c #060606",
")	c #F1F1F1",
"!	c #D1D1D1",
"~	c #010101",
"{	c #040404",
"]	c #191919",
"^	c #F6F6F6",
"/	c #F9F9F9",
"(	c #AFAFAF",
"_	c #030303",
":	c #F5F5F5",
"<	c #909090",
"[	c #F4F4F4",
"}	c #AEAEAE",
"|	c #353535",
"1	c #FBFBFB",
"2	c #0B0B0B",
"3	c #121212",
"4	c #656565",
"5	c #F2F2F2",
"6	c #D3D3D3",
"7	c #494949",
"8	c #020202",
"9	c #F3F3F3",
"0	c #FEFEFE",
"a	c #CDCDCD",
"b	c #FCFCFC",
"c	c #A0A0A0",
"d	c #474747",
"e	c #BEBEBE",
".++++++.++@+++++++.++..",
"+..+#$++.%$+++.+.++..++",
"+..+.$.+..$.&.$$.++..++",
"+...*$=+..$.$@$...+..+.",
"...++-$+..$;$$@+.++.+++",
"+.....$>..$$,$....+.'+.",
"+..++..$).$$$..+.+@$!++",
"+..+..$@~.{$@....]$^.++",
"...+++/$$($_++++$$+.+++",
"+..+..++:$$@..:$$++..++",
"@$_$<+...+$..@$)...+...",
"+.[}~$$$$$$@'$:+.++..++",
"+.....++[|$$$.....+..[+",
"+......+...$......@$$$.",
"+......+...$^..12$$3[+.",
"+++......++$${$$45.+...",
"+.+.@+...@$6+[7$$$$$$$$",
"+..+$$$$&$^.+...@$8:55)",
".+.+@$$$$$9+++++++@$$$0",
"+.$$$$$$${:.......++~$$",
".+@@$ab$$$@++++++++.+c$",
"+.d$..$$/$e+++...++..++",
"+..++.$$+.++++.+.++.+++"};
