/* XPM */ 
static const unsigned char * close_text_xpm[] = {
"70 18 6 1", 
" 	c None",
"!	c black",
"#	c #FF0000",
"$	c #FF3F3F",
"%	c white",
"&	c #FFBFBF",
"                                                                      ",
"                                                                      ",
"   ##############                                                     ",
"  ############$##$                                                    ",
"  ###########$##$#                                                    ",
"  ####%&####&%#$##       !!!!!  !!     !!!!!    !!!!!  !!!!!!         ",
"  ####&%&##&%&$###      !!      !!    !!   !!  !!      !!             ",
"  #####&%&&%&$####      !!      !!    !!   !!  !!      !!             ",
"  ######&%%&$#####      !!      !!    !!   !!  !!!!!   !!!!!!         ",
"  ######&%%&######      !!      !!    !!   !!   !!!!!  !!             ",
"  #####&%&&%&#####      !!      !!    !!   !!      !!  !!             ",
"  ####&%&$#&%&####      !!      !!    !!   !!      !!  !!             ",
"  ###$%&$###&%####       !!!!!  !!!!!  !!!!!   !!!!!   !!!!!!         ",
"  ##$##$##########                                                    ",
"  #$##$###########                                                    ",
"   ##############                                                     ",
"                                                                      ",
"                                                                      "};
