/* XPM */
static char * logo_xpm[] = {
"210 84 4 1",
" 	c None",
".	c #A0A0A0",
"+	c #535353",
"@	c #020202",
"                                                                                                                                                       ..................                                         ",
"                                                                                                                                                       +@@@@@@@@@@@@@@@@@                                         ",
"                                                                                                                                                       +@@@@@@@@@@@@@@@@@                                         ",
"                                                                                                                                                       +@@@@@@@@@@@@@@@@@                                         ",
"                                                                                                                                                       +@@@@@@@@@@@@@@@@@                                         ",
"                                                                                                                                                       +@@@@@@@@@@@@@@@@@                                         ",
"                                                                                                                                                       +@@@@@@@@@@@@@@@@@                                         ",
"                                                                                                                                                       +@@@@@@@@@@@@@@@@@                                         ",
"                                                                                                                                                       +@@@@@@@@@@@@@@@@@                                         ",
"                                                                                                                                                       +@@@@@@@@@@@@@@@@@                                         ",
"                                                                                                                                                       +@@@@@@@@@@@@@@@@@                                         ",
"                                                                                                                                                       +@@@@@@@@@@@@@@@@@                                         ",
"                                                                                                                                                       +@@@@@@@@@@@@@@@@@                                         ",
"                                                                                                                                                       +@@@@@@@@@@@@@@@@@                                         ",
"                                                                                                                                                       +@@@@@@@@@@@@@@@@@                                         ",
"                                                                                                                                                       +@@@@@@@@@@@@@@@@@                                         ",
"                                                                                                                                                       +@@@@@@@@@@@@@@@@@                                         ",
"                                                                                                                                                       +@@@@@@@@@@@@@@@@@                                         ",
"                                                                                                                                                       +@@@@@@@@@@@@@@@@@                                         ",
"                                                                                                                                                       +@@@@@@@@@@@@@@@@@                                         ",
"                                                                                                                                                       +@@@@@@@@@@@@@@@@@                                         ",
"                                                                                                                                                       +@@@@@@@@@@@@@@@@@                                         ",
"                                                                                                                                                       +@@@@@@@@@@@@@@@@@                                         ",
"                                                                                                                                                       +@@@@@@@@@@@@@@@@@                                         ",
"                                                                                                                                                       +@@@@@@@@@@@@@@@@@                                         ",
"                                                                                                                                                       +@@@@@@@@@@@@@@@@@                                         ",
"                                                                                                                                                       +@@@@@@@@@@@@@@@@@                                         ",
"                                                                                                                                                       +@@@@@@@@@@@@@@@@@                                         ",
"                                                                                                                                                       +@@@@@@@@@@@@@@@@@                                         ",
"                                                                                                                                                       +@@@@@@@@@@@@@@@@@                                         ",
"                                                                                                                                                       +@@@@@@@@@@@@@@@@@                                         ",
"                                                                                                                                                       +@@@@@@@@@@@@@@@@@                                         ",
"                                                                                                                                                       +@@@@@@@@@@@@@@@@@                                         ",
"                                                                                                                                                       +@@@@@@@@@@@@@@@@@                                         ",
"                                                                                                                                                       +@@@@@@@@@@@@@@@@@                                         ",
"                                                                                 .                                                         .           +@@@@@@@@@@@@@@@@@                                         ",
"                                                                               .++                                             ..+++@@@@@@@+           +@@@@@@@@@@@@@@@@@@@@@@@@+++...                            ",
"                                                                              +@@+                                        ..++@@@@@@@@@@@@@+           +@@@@@@@@@@@@@@@@@@@@@@@@@@@@@@@++..                       ",
"                                                                            .@@@@+                                      .@@@@@@@@@@@@@@@@@@+           +@@@@@@@@@@@@@@@@@@@@@@@@@@@@@@@@@@@@+.                    ",
"                                                                          .@@@@@@+                                  ..+@@@@@@@@@@@@@@@@@@@@+           +@@@@@@@@@@@@@@@@@@@@@@@@@@@@@@@@@@@@@@@+.                 ",
"                                                                        .+@@@@@@@+                                .+@@@@@@@@@@@@@@@@@@@@@@@+           +@@@@@@@@@@@@@@@@@@@@@@@@@@@@@@@@@@@@@@@@@@.               ",
"                                                                       +@@@@@@@@@+                              .@@@@@@@@@@@@@@@@@@@@@@@@@@+           +@@@@@@@@@@@@@@@@@@@@@@@@@@@@@@@@@@@@@@@@@@@@.             ",
"                                                                     +@@@@@@@@@@@+                            .@@@@@@@@@@@@@@@@@@@@@@@@@@@@+           +@@@@@@@@@@@@@@@@@@@@@@@@@@@@@@@@@@@@@@@@@@@@@@.           ",
"                                                                   .@@@@@@@@@@@@@+                           +@@@@@@@@@@@@@@@@@@@@@@@@@@@@@+           +@@@@@@@@@@@@@@@@@@@@@@@@@@@@@@@@@@@@@@@@@@@@@@@+          ",
"                                                                 .+@@@@@@@@@@@@@@+                         +@@@@@@@@@@@@@@@@@@@@@@@@@@@@@@@+           +@@@@@@@@@@@@@@@@@@@@@@@@@@@@@@@@@@@@@@@@@@@@@@@@@.        ",
"                                                                +@@@@@@@@@@@@@@@@+                        +@@@@@@@@@@@@@@@@@@@@@@@@@@@@@@@@+           +@@@@@@@@@@@@@@@@@@@@@@@@@@@@@@@@@@@@@@@@@@@@@@@@@@.       ",
"                                                              .@@@@@@@@@@@@@@@@@@+                      .@@@@@@@@@@@@@@@@@@@@@@@@@@@@@@@@@@+           +@@@@@@@@@@@@@@@@@@@@@@@@@@@@@@@@@@@@@@@@@@@@@@@@@@@+      ",
"                                                            .+@@@@@@@@@@@@@@@@@@@+                     +@@@@@@@@@@@@@@@@@@@@@@@@@@@@@@@@@@@+           +@@@@@@@@@@@@@@@@@@@@@@@@@@@@@@@@@@@@@@@@@@@@@@@@@@@@+     ",
"                                                           +@@@@@@@@@@@@@@@@@@@@@+                    +@@@@@@@@@@@@@@@@@@@@@@@@@@@@@@@@@@@@+           +@@@@@@@@@@@@@@@@@@@@@@@@@@@@@@@@@@@@@@@@@@@@@@@@@@@@@.    ",
"                                                         +@@@@@@@@@@@@@@@@@@@@@@@+                   +@@@@@@@@@@@@@@@@@@@@@@@@@@@@@@@@@@@@@+           +@@@@@@@@@@@@@@@@@@@@@@@@@@@@@@@@@@@@@@@@@@@@@@@@@@@@@@.   ",
"                                                       .@@@@@@@@@@@@@@@@@@@@@@@@@+                  +@@@@@@@@@@@@@@@@@@@@@@@@@@@@@@@@@@@@@@+           +@@@@@@@@@@@@@@@@@@@@@@@@@@@@@@@@@@@@@@@@@@@@@@@@@@@@@@@   ",
"                                                     .@@@@@@@@@@@@@@@@@@@@@@@@@@@+                 +@@@@@@@@@@@@@@@@@@@@@@@@@@@@@@@@@@@@@@@+           +@@@@@@@@@@@@@@@@@@@@@@@@@@@@@@@@@@@@@@@@@@@@@@@@@@@@@@@+  ",
"                                                   .+@@@@@@@@@@@@@@@@@@@@@@@@@@@@+                +@@@@@@@@@@@@@@@@@@@@@@@@@@@@@@@@@@@@@@@@+           +@@@@@@@@@@@@@@@@@@@@@@@@@@@@@@@@@@@@@@@@@@@@@@@@@@@@@@@@  ",
"                                                  .@@@@@@@@@@@@@@@@@@@@@@@@@@@@@@+               +@@@@@@@@@@@@@@@@@@@@@@@@@@@@@@@@@@@@@@++++           +++++++++++++++++++++++++@@@@@@@@@@@@@@@@@@@@@@@@@@@@@@@@+ ",
"                                                .@@@@@@@@@@@@@@@@@@@@@@@@@@@@@@@@+              .@@@@@@@@@@@@@@@@@@@@@@@@@@@@@@@@+..                                               ..+@@@@@@@@@@@@@@@@@@@@@@@@@@@ ",
"                                              .@@@@@@@@@@@@@@@@@@@@@@@@@@@@@@@@@@+              @@@@@@@@@@@@@@@@@@@@@@@@@@@@@+..                                                       .+@@@@@@@@@@@@@@@@@@@@@@@@.",
"                                             +@@@@@@@@@@@@@@@@@@@@@@@@@@@@@@@@@@@+             @@@@@@@@@@@@@@@@@@@@@@@@@@@+                                                               .@@@@@@@@@@@@@@@@@@@@@@.",
"                                           +@@@@@@@@@@@@@@@@@@@@@@@@@@@@@@@@@@@@@+            .@@@@@@@@@@@@@@@@@@@@@@@@@.                                                                   +@@@@@@@@@@@@@@@@@@@@+",
"                                         .@@@@@@@@@@@@@@@@@@@@@@@@@@@@@@@@@@@@@@@+            @@@@@@@@@@@@@@@@@@@@@@@@.                                                                     .@@@@@@@@@@@@@@@@@@@@+",
"                                       .+@@@@@@@@@@@@@@@@@@@@@@@@@@@@@@@@@@@@@@@@+           +@@@@@@@@@@@@@@@@@@@@@@+                                                                        @@@@@@@@@@@@@@@@@@@@+",
"                                      +@@@@@@@@@@@@@@@@@@@@@@@@@@@@@@@@@@@@@@@@@@+          .@@@@@@@@@@@@@@@@@@@@@@.                                                                        .@@@@@@@@@@@@@@@@@@@@+",
"                                    +@@@@@@@@@@@@@@@@@@@@@@@@@@@@@@@@@@@@@@@@@@@@+          @@@@@@@@@@@@@@@@@@@@@+.                                                                        .@@@@@@@@@@@@@@@@@@@@@+",
"                                  .@@@@@@@@@@@@@@@@@@@@@@@@@@@@@@@@@@@@@@@@@@@@@@+         .@@@@@@@@@@@@@@@@@@@@@.                                                                       .+@@@@@@@@@@@@@@@@@@@@@@.",
"                                .@@@@@@@@@@@@@@@@@@@@@@@@@@@@@@@@@@@@@@@@@@@@@@@@+         +@@@@@@@@@@@@@@@@@@@@.                                                                     .+@@@@@@@@@@@@@@@@@@@@@@@@@.",
"                              .+@@@@@@@@@@@@@@@@@@@@@@@@@@@@@@@@@@@@@@@@@@@@@@@@@+        .@@@@@@@@@@@@@@@@@@@@.                                                                ...++@@@@@@@@@@@@@@@@@@@@@@@@@@@+ ",
"                             .@@@@@@@@@@@@@@@@@@@@@@@@@@@@@@@@@+@@@@@@@@@@@@@@@@@+        +@@@@@@@@@@@@@@@@@@@.                                  +@@@@@@@@@@@@@@@@@@@@@@@@@@@@@@@@@@@@@@@@@@@@@@@@@@@@@@@@@@@@@@. ",
"                           .@@@@@@@@@@@@@@@@@@@@@@@@@@@@@@@@@+. @@@@@@@@@@@@@@@@@+        @@@@@@@@@@@@@@@@@@@+                                   +@@@@@@@@@@@@@@@@@@@@@@@@@@@@@@@@@@@@@@@@@@@@@@@@@@@@@@@@@@@@@@  ",
"                         .+@@@@@@@@@@@@@@@@@@@@@@@@@@@@@@@@+.   @@@@@@@@@@@@@@@@@+       .@@@@@@@@@@@@@@@@@@@                                    +@@@@@@@@@@@@@@@@@@@@@@@@@@@@@@@@@@@@@@@@@@@@@@@@@@@@@@@@@@@@@.  ",
"                        +@@@@@@@@@@@@@@@@@@@@@@@@@@@@@@@@+.     @@@@@@@@@@@@@@@@@+       +@@@@@@@@@@@@@@@@@@+                                    +@@@@@@@@@@@@@@@@@@@@@@@@@@@@@@@@@@@@@@@@@@@@@@@@@@@@@@@@@@@@+   ",
"                      .@@@@@@@@@@@@@@@@@@@@@@@@@@@@@@@@+.       @@@@@@@@@@@@@@@@@+       @@@@@@@@@@@@@@@@@@@                                     +@@@@@@@@@@@@@@@@@@@@@@@@@@@@@@@@@@@@@@@@@@@@@@@@@@@@@@@@@@@@    ",
"                    .@@@@@@@@@@@@@@@@@@@@@@@@@@@@@@@@+.         @@@@@@@@@@@@@@@@@+      .@@@@@@@@@@@@@@@@@@.                                     +@@@@@@@@@@@@@@@@@@@@@@@@@@@@@@@@@@@@@@@@@@@@@@@@@@@@@@@@@@@     ",
"                  .+@@@@@@@@@@@@@@@@@@@@@@@@@@@@@@@+.           @@@@@@@@@@@@@@@@@+      +@@@@@@@@@@@@@@@@@@                                      +@@@@@@@@@@@@@@@@@@@@@@@@@@@@@@@@@@@@@@@@@@@@@@@@@@@@@@@@@@.     ",
"                 +@@@@@@@@@@@@@@@@@@@@@@@@@@@@@@@+.             @@@@@@@@@@@@@@@@@+      +@@@@@@@@@@@@@@@@@+                                      +@@@@@@@@@@@@@@@@@@@@@@@@@@@@@@@@@@@@@@@@@@@@@@@@@@@@@@@@@.      ",
"               +@@@@@@@@@@@@@@@@@@@@@@@@@@@@@@@+.               @@@@@@@@@@@@@@@@@+      @@@@@@@@@@@@@@@@@@.                                      +@@@@@@@@@@@@@@@@@@@@@@@@@@@@@@@@@@@@@@@@@@@@@@@@@@@@@@@@  .+.   ",
"             .@@@@@@@@@@@@@@@@@@@@@@@@@@@@@@@+.                 @@@@@@@@@@@@@@@@@+      @@@@@@@@@@@@@@@@@@                                       +@@@@@@@@@@@@@@@@@@@@@@@@@@@@@@@@@@@@@@@@@@@@@@@@@@@@@@+ +@@+@@. ",
"            +@@@@@@@@@@@@@@@@@@@@@@@@@@@@@@+.                   @@@@@@@@@@@@@@@@@+     .@@@@@@@@@@@@@@@@@+                                       +@@@@@@@@@@@@@@@@@@@@@@@@@@@@@@@@@@@@@@@@@@@@@@@@@@@@@. .@..+..@.",
"          +@@@@@@@@@@@@@@@@@@@@@@@@@@@@@@+.                     @@@@@@@@@@@@@@@@@+     .@@@@@@@@@@@@@@@@@+                                       +@@@@@@@@@@@@@@@@@@@@@@@@@@@@@@@@@@@@@@@@@@@@@@@@@@@+   +.+@+@+.+",
"        .@@@@@@@@@@@@@@@@@@@@@@@@@@@@@@+.                       @@@@@@@@@@@@@@@@@+     +@@@@@@@@@@@@@@@@@.                                       +@@@@@@@@@@@@@@@@@@@@@@@@@@@@@@@@@@@@@@@@@@@@@@@@@+     @ @. .. @",
"      .@@@@@@@@@@@@@@@@@@@@@@@@@@@@@@+.                         @@@@@@@@@@@@@@@@@+     +@@@@@@@@@@@@@@@@@.                                       +@@@@@@@@@@@@@@@@@@@@@@@@@@@@@@@@@@@@@@@@@@@@@@@+       @ @     @",
"    .+@@@@@@@@@@@@@@@@@@@@@@@@@@@@@+.                           @@@@@@@@@@@@@@@@@+     +@@@@@@@@@@@@@@@@@.                                       +@@@@@@@@@@@@@@@@@@@@@@@@@@@@@@@@@@@@@@@@@@@@+.         @.@+.++.+",
"   +@@@@@@@@@@@@@@@@@@@@@@@@@@@@@+.                             @@@@@@@@@@@@@@@@@+     +@@@@@@@@@@@@@@@@@.                                       +@@@@@@@@@@@@@@@@@@@@@@@@@@@@@@@@@@@@@@@@@+.            ++.@@+.++",
" .@@@@@@@@@@@@@@@@@@@@@@@@@@@@@+.                               @@@@@@@@@@@@@@@@@+     +@@@@@@@@@@@@@@@@@                                        +@@@@@@@@@@@@@@@@@@@@@@@@@@@@@@@@@@@@+..                 @@+..@@ ",
"++++++++++++++++++++++++++++++.                                 ++++++++++++++++++     ++++++++++++++++++                                        .+++++++++++++++++++++++++++++....                        .+++.  ",
"                                                                                                                                                                                                                  "};
