/* XPM */
static char *separator[]={
"3 54 2 1",
"# c #808080",
". c #ffffff",
".#.",
".#.",
".#.",
".#.",
".#.",
".#.",
".#.",
".#.",
".#.",
".#.",
".#.",
".#.",
".#.",
".#.",
".#.",
".#.",
".#.",
".#.",
".#.",
".#.",
".#.",
".#.",
".#.",
".#.",
".#.",
".#.",
".#.",
".#.",
".#.",
".#.",
".#.",
".#.",
".#.",
".#.",
".#.",
".#.",
".#.",
".#.",
".#.",
".#.",
".#.",
".#.",
".#.",
".#.",
".#.",
".#.",
".#.",
".#.",
".#.",
".#.",
".#.",
".#.",
".#.",
".#."};
