/* XPM */
static char *check[]={
"18 18 17 1",
". c None",
"a c #545454",
"# c #575757",
"n c #5e5e5e",
"h c #646464",
"e c #6e6e6e",
"j c #767676",
"m c #848484",
"f c #989898",
"b c #9b9b9b",
"l c #b2b2b2",
"g c #bcbcbc",
"o c #c9c9c9",
"d c #d3d3d3",
"i c #d5d5d5",
"k c #dfdfdf",
"c c #ffffff",
".#aaaaaaaaaaaaaa#.",
"#aaaaaaaaaaaaaaaa#",
"aaaaaaaaaaaaaaaaaa",
"aaaaaaaaaaaaaaaaaa",
"aaaaaaaaaaaaabcaaa",
"aaaaaaaaaaaadceaaa",
"aaaaaaaaaaafcgaaaa",
"aaaaaaaaaahicaaaaa",
"aaaaaaaaaacceaaaaa",
"aaaajfaaadcgaaaaaa",
"aaaakcfafccaaaaaaa",
"aaaaalclcceaaaaaaa",
"aaaaaamccgaaaaaaaa",
"aaaaaaanoaaaaaaaaa",
"aaaaaaaaaaaaaaaaaa",
"aaaaaaaaaaaaaaaaaa",
"#aaaaaaaaaaaaaaaa#",
".#aaaaaaaaaaaaaa#."};
