/* XPM */
static char * mapping_xpm[] = {
"90 18 6 1",
" 	c None",
".	c #545454",
"+	c #808080",
"@	c #FFFFFF",
"#	c #FFFFDF",
"$	c #BFBFBF",
" ........................................................................................ ",
"..........................................................................................",
"..........................................................................................",
"..........................................................................................",
"..........................................................................................",
"..........................................................................................",
"....+@@.....@#...+@@...+@@@@..+@@@@..+@@@.+@...@..+@@@@@......+@@@.+@..+@.+@@@@..+@@@@....",
"....+@@+...@@#...+@@...+@..+@.+@..+@..+@..+@@..@.+@............+@..+@@.+@.+@....+@...+@...",
"....+@@@+.@++#..+@.+#..+@..+@.+@..+@..+@..+@@@.@.+@............+@..+@$@+@.+@....+@...+@...",
"....+@.@@@+.+#..+@.+@..+@..+@.+@..+@..+@..+@+@@@.+@............+@..+@+@@@.+@@@@.+@...+@...",
"....+@...@..+#..+#.+@..+@@@@..+@@@@...+@..+@.+$@.+@..@@@.......+@..+@.+@@.+@....+@...+@...",
"....+@......+#.+@@@@@@.+@.....+@......+@..+@..@@.+@...+@.......+@..+@..+@.+@....+@...+@...",
"....+@......+#.+@...+@.+@.....+@......+@..+@...@.+@...+@.......+@..+@..+@.+@....+@...+@...",
"....+@......+#.+#...+@.+@.....+@.....+@@@.+@...@..+@@@@#......+@@@.+@..+@.+@.....+@@@@....",
"..........................................................................................",
"..........................................................................................",
"..........................................................................................",
".........................................................................................."};
