/* XPM */
static char * icon_xpm[] = {
"120 40 5 1",
" 	c None",
".	c black",
"X	c gray100",
"o	c #0a0",
"O	c #d93600",
"                                                                                                                        ",
"                                                                                                                        ",
"         .....................                                                           .....................          ",
"         .XXXXXXXXXXXXXXXXXXX.                                                           .XXXXXXXXXXXXXXXXXXX.          ",
"         .XXXXXXXXXXXXXXXXXXX.                                                           .XXXXXXXXXXXXXXXXXXX.          ",
"         .XXXXXXXXXXXXXXXXXXX.                                        .                  .XXXXXXXXXXXXXXXXXXX.          ",
"         .XXXXXXXXXXXXXXXXXXX.                                        ..                 .XXXXXXXXXXXXXXXXXXX.          ",
"         .XXXXXXXXXXXXXXXXXXX.                                        ...                .XXXXXXXXXXXXXXXXXXX.          ",
"         .....................                                        ....               .....................          ",
"         .ooooooooooooooooooo.              ...............................              .OOOOOOOOOOOOOOOOOOO.          ",
"         .ooooooooooooooooooo.              ................................             .OOOOOOOOOOOOOOOOOOO.          ",
"         .ooooooooooooooooooo.              ...............................              .OOOOOOOOOOOOOOOOOOO.          ",
"         .....................                                        ....               .....................          ",
"         .XXXXXXXXXXXXXXXXXXX.                                        ...                .XXXXXXXXXXXXXXXXXXX.          ",
"         .XXXXXXXXXXXXXXXXXXX.                                        ..                 .XXXXXXXXXXXXXXXXXXX.          ",
"         .XXXXXXXXXXXXXXXXXXX.                                        .                  .XXXXXXXXXXXXXXXXXXX.          ",
"         .....................                                                           .....................          ",
"         .XXXXXXXXXXXXXXXXXXX.                                        .                  .XXXXXXXXXXXXXXXXXXX.          ",
"         .XXXXXXXXXXXXXXXXXXX.                                        ..                 .XXXXXXXXXXXXXXXXXXX.          ",
"         .XXXXXXXXXXXXXXXXXXX.                                        ...                .XXXXXXXXXXXXXXXXXXX.          ",
"         .....................                                        ....               .....................          ",
"         .ooooooooooooooooooo.              ...............................              .OOOOOOOOOOOOOOOOOOO.          ",
"         .ooooooooooooooooooo.              ................................             .OOOOOOOOOOOOOOOOOOO.          ",
"         .ooooooooooooooooooo.              ...............................              .OOOOOOOOOOOOOOOOOOO.          ",
"         .ooooooooooooooooooo.                                        ....               .OOOOOOOOOOOOOOOOOOO.          ",
"         .....................                                        ...                .....................          ",
"                                                                      ..                                                ",
"                                                                      .                                                 ",
"                                                                                                                        ",
"   ...                                                                           ......                                 ",
"  .   .                                                                            .                            .       ",
"  .                                                                                .                            .       ",
"  .      ...  .   . . ..   ...   ...                                               .    ...  . ..   ...   ...  ....     ",
"   ...  .   . .   . ..  . .   . .   .                                              .       . ..  . .   . .   .  .       ",
"      . .   . .   . .     .     .....                                              .    .... .     .   . .....  .       ",
"      . .   . .   . .     .     .                                                  .   .   . .     .   . .      .       ",
"  .   . .   . .  .. .     .   . .   .                                              .   .  .. .      .... .   .  .  .    ",
"   ...   ...   .. . .      ...   ...                                               .    .. . .         .  ...    ..     ",
"                                                                                                   .   .                ",
"                                                                                                    ...                 "};
