/* XPM */ 
static const unsigned char * closetext_xpm[] = {
"70 19 12 1",
" 	c None",
"!	c black",
"#	c #545454",
"$	c #FF0000",
"%	c #FF3F3F",
"&	c white",
"'	c #FFBFBF",
"(	c #808080",
")	c #BFFFFF",
"*	c #FFFFBF",
"+	c #FFFFDF",
",	c #DFFFFF",
" #################################################################### ",
"##$$$$$$$$$$$$$$$$$###################################################",
"#$$$$$$$$$$$$$$$$$$$##################################################",
"#$$$$$$$$$$$$$%$$%$$##################################################",
"#$$$$&'$$$$$$%&$%$$$##################################################",
"#$$$$'&'$$$$%&&%$$$$##################################################",
"#$$$$$'&'$$%&&%$$$$$#######()&&&#(&#####()&&*###(&&&&#(&&&&###########",
"#$$$$$$'&'%&&%$$$$$$######()#####(&####()###(*#(&#####(&##############",
"#$$$$$$$'&&&%$$$$$$$######(&#####(&####(&###(&#(&#####(&##############",
"#$$$$$$$%&&'$$$$$$$$######(&#####(&####(&###(&#(&&&&##(&&&+###########",
"#$$$$$$%&&'&'$$$$$$$######(&#####(&####(&###(&##((((&#(&##############",
"#$$$$$%&&%$'&'$$$$$$######(&#####(&####(&###(&#####(,#(&##############",
"#$$$$%&&%$$$'&'$$$$$######()#####(&####()###(*#####(&#(&##############",
"#$$$%&&%$$$$$'&$$$$$#######()&&&#(&&&&##()&&*##&&&&&##(&&&&###########",
"#$$%$$%$$$$$$$$$$$$$##################################################",
"#$$$$$$$$$$$$$$$$$$$##################################################",
"#$$$$$$$$$$$$$$$$$$$##################################################",
"##$$$$$$$$$$$$$$$$$###################################################",
" #################################################################### "};