/* XPM */
static char *close[]={
"19 18 5 1",
". c None",
"# c #ff0000",
"a c #ff3f3f",
"c c #ffbfbf",
"b c #ffffff",
".#################.",
"###################",
"###################",
"#############a##a##",
"####bc######ab#a###",
"####cbc####abba####",
"#####cbc##abba#####",
"######cbcabba######",
"#######cbbba#######",
"#######abbc########",
"######abbcbc#######",
"#####abba#cbc######",
"####abba###cbc#####",
"###abba#####cb#####",
"##a##a#######c#####",
"###################",
"###################",
".#################."};
