/* XPM */ 
static const unsigned char * colors_xpm[] = {
"60 19 15 1",
" 	c None",
"!	c black",
"#	c #545454",
"$	c #FF0000",
"%	c #FF00FF",
"&	c #99FF66",
"'	c #FFCCFF",
"(	c #D93600",
")	c #FFCC00",
"*	c #00FF00",
"+	c #FFC0C0",
",	c #FF9933",
"-	c #FFFF99",
".	c #00FFFF",
"0	c #0099FF",
" ########################################################## ",
"############################################################",
"##$$$$$$###%%%%%%####&&&&&&####''''''####((((((####))))))###",
"##$$$$$$###%%%%%%####&&&&&&####''''''####((((((####))))))###",
"##$$$$$$###%%%%%%####&&&&&&####''''''####((((((####))))))###",
"##$$$$$$###%%%%%%####&&&&&&####''''''####((((((####))))))###",
"##$$$$$$###%%%%%%####&&&&&&####''''''####((((((####))))))###",
"##$$$$$$###%%%%%%####&&&&&&####''''''####((((((####))))))###",
"############################################################",
"############################################################",
"############################################################",
"##******###++++++####,,,,,,,###------####......####000000###",
"##******###++++++####,,,,,,,###------####......####000000###",
"##******###++++++####,,,,,,,###------####......####000000###",
"##******###++++++####,,,,,,,###------####......####000000###",
"##******###++++++####,,,,,,,###------####......####000000###",
"##******###++++++####,,,,,,,###------####......####000000###",
"############################################################",
" ########################################################## "};