/* XPM */ 
static const unsigned char * helptext_xpm[] = {
"70 19 11 1",
" 	c None",
"!	c black",
"#	c #545454",
"$	c #008000",
"%	c white",
"&	c #DADADA",
"'	c #808080",
"(	c #F2F2F2",
")	c #DFFFFF",
"*	c #FFFFDF",
"+	c #DEDEDE",
" #################################################################### ",
"###$$$$$$$$$$$$$$$$$##################################################",
"##$$$$$$$$$$$$$$$$$$$#################################################",
"##$$$$$$$$$$$$$$$$$$$#################################################",
"##$$$$$$$$$$$$$$$$$$$#################################################",
"##$$$$$$$%%%%$$$$$$$$#################################################",
"##$$$$$$%&$%%%$$$$$$$#########'%###'%#'%%%%#'%####'%%%%###############",
"##$$$$$$%&$$(%$$$$$$$#########'%###'%#'%####'%####'%##'%##############",
"##$$$$$$%&$$(%$$$$$$$#########'%###'%#'%####'%####'%##')##############",
"##$$$$$$$$$%%%$$$$$$$#########'%%%%%%#'%%%*#'%####'%##'%##############",
"##$$$$$$$$$%%$$$$$$$$#########'%###'%#'%####'%####'%%%%###############",
"##$$$$$$$$$%%$$$$$$$$#########'%###'%#'%####'%####'%##################",
"##$$$$$$$$$%$$$$$$$$$#########'%###'%#'%####'%####'%##################",
"##$$$$$$$$$$$$$$$$$$$#########'%###'%#'%%%%#'%%%%#'%##################",
"##$$$$$$$$+%+$$$$$$$$#################################################",
"##$$$$$$$$+%+$$$$$$$$#################################################",
"##$$$$$$$$$$$$$$$$$$$#################################################",
"###$$$$$$$$$$$$$$$$$##################################################",
" #################################################################### "};