/* XPM */ 
static const unsigned char * mask_xpm[] = {
"19 19 7 1",
" 	c None",
"!	c black",
"#	c #545454",
"$	c #FF0000",
"%	c #00FF00",
"&	c #FFFF00",
"'	c #0000FF",
" ################# ",
"###################",
"##########$#####%##",
"##########$&&&&&%##",
"###########$####%##",
"###########$&&&%###",
"###########$'##%###",
"############$#%####",
"############$%#####",
"############%%#####",
"##########%%%%#####",
"######%%%%###%#####",
"####%%%###&&#$#####",
"###%###&####&$#####",
"##%#&###&&###$#####",
"##%##&####&#$######",
"##%###&###$$#######",
"#######&#$#########",
" #######$######### "};