/* XPM */
static char * protect_xpm[] = {
"22 22 43 1",
" 	c None",
".	c #303030",
"+	c #C2C2C2",
"@	c #D6D6D6",
"#	c #E1E1E1",
"$	c #F6F6F6",
"%	c #F0F0F0",
"&	c #F3F3F3",
"*	c #F7F7F7",
"=	c #E0E0E0",
"-	c #DCDCDC",
";	c #EFEFEF",
">	c #C0C0C0",
",	c #CFCFCF",
"'	c #F2F2F2",
")	c #D8D8D8",
"!	c #ECECEC",
"~	c #D1D1D1",
"{	c #DEDEDE",
"]	c #EBEBEB",
"^	c #AEAEAE",
"/	c #EEEEEE",
"(	c #F1F1F1",
"_	c #DDDDDD",
":	c #FAFAFA",
"<	c #E5E5E5",
"[	c #D2D2D2",
"}	c #D3D3D3",
"|	c #D4D4D4",
"1	c #EAEAEA",
"2	c #FBFBFB",
"3	c #BEBEBE",
"4	c #CCCCCC",
"5	c #F8F8F8",
"6	c #BDBDBD",
"7	c #FFFFFF",
"8	c #CBCBCB",
"9	c #C6C6C6",
"0	c #F9F9F9",
"a	c #DFDFDF",
"b	c #E2E2E2",
"c	c #E8E8E8",
"d	c #F5F5F5",
"  ..................  ",
" .................... ",
"......................",
"......................",
".........+@@+.........",
"........#$%&*=........",
".......-;>..,').......",
".......!~....{].......",
".......~^....+).......",
".............)).......",
"......{/%%('''(_......",
"......:<[~[}|)12......",
"......$3......45......",
"......$6..77..85......",
"......*9......[0......",
"......:1---{ab;:......",
"......cd7*****$c......",
"......................",
"......................",
"......................",
" .................... ",
"  ..................  "};
