/* XPM */ 
static const unsigned char * refreshtext_xpm[] = {
"70 19 8 1",
" 	c None",
"!	c black",
"#	c #616161",
"$	c #545454",
"%	c #0066CC",
"&	c #99CCFF",
"'	c white",
"(	c #808080",
" #$$$$$$$$$$$$$$$$$$$$$$$$$$$$$$$$$$$$$$$$$$$$$$$$$$$$$$$$$$$$$$$$$$# ",
"#$%%%%%%%%%%%%%%%%$$$$$$$$$$$$$$$$$$$$$$$$$$$$$$$$$$$$$$$$$$$$$$$$$$$#",
"$%%%%%%%%%%%%%%%%%%$$$$$$$$$$$$$$$$$$$$$$$$$$$$$$$$$$$$$$$$$$$$$$$$$$$",
"$%%%%%%%%%%%%%%%%%%$$$$$$$$$$$$$$$$$$$$$$$$$$$$$$$$$$$$$$$$$$$$$$$$$$$",
"$%%%%%%%%%%%%%%%%%%$$$$$$$$$$$$$$$$$$$$$$$$$$$$$$$$$$$$$$$$$$$$$$$$$$$",
"$%%%&%%&'''&%%%%%%%$$$$$$$$$$$$$$$$$$$$(''$$$$$$$$$$$$$$$$$$('$$$$$$$$",
"$%%%'&''%%%'&%%%%%%$$$$(''''$$$$$$$$$$('$$$$$$$$$$$$$$$$$$$$('$$$$$$$$",
"$%%%''&%%%%%'&%%%%%$$$$('$$('$$$$$$$$$('$$$$$$$$$$$$$$$$$$$$('$$$$$$$$",
"$%%%''&%%%%%%%%%%%%$$$$('$$('$$$('''$$(''$('$'$$('''$$$('''$(''''$$$$$",
"$%%%'''&%%%%%%%%%%%$$$$('$$('$$('$$('$('$$('''$('$$('$('$$$$('$$('$$$$",
"$%%%%%%%%%%%&'''%%%$$$$(''''$$$(''''($('$$('$$$(''''($('''$$('$$('$$$$",
"$%%%%%%%%%%%%&''%%%$$$$('$('$$$('$$$$$('$$('$$$('$$$$$$((('$('$$('$$$$",
"$%%%%%&'%%%%%&''%%%$$$$('$$('$$('$$$$$('$$('$$$('$$$$$$$$('$('$$('$$$$",
"$%%%%%%&'%%%''&'%%%$$$$('$$$('$$(''''$('$$('$$$$(''''$('''$$('$$('$$$$",
"$%%%%%%%&'''&%%&%%%$$$$$$$$$$$$$$$$$$$$$$$$$$$$$$$$$$$$$$$$$$$$$$$$$$$",
"$%%%%%%%%%%%%%%%%%%$$$$$$$$$$$$$$$$$$$$$$$$$$$$$$$$$$$$$$$$$$$$$$$$$$$",
"#%%%%%%%%%%%%%%%%%%$$$$$$$$$$$$$$$$$$$$$$$$$$$$$$$$$$$$$$$$$$$$$$$$$$#",
"##%%%%%%%%%%%%%%%%#$$$$$$$$$$$$$$$$$$$$$$$$$$$$$$$$$$$$$$$$$$$$$$$$$$#",
" #$$$$$$$$$$$$$$$$$$$$$$$$$$$$$$$$$$$$$$$$$$$$$$$$$$$$$$$$$$$$$$$$$$# "};