/* XPM */
static char *saveAs[]={
"19 18 232 2",
"a9 c #2d395a",
"aZ c #2f3b5c",
"aO c #313d60",
"bK c #313e64",
"bm c #31416f",
"b. c #314170",
"bx c #314271",
"aw c #324067",
"bd c #324270",
"ax c #324273",
"a0 c #33426f",
"ae c #334373",
"ad c #34426a",
"#Y c #354575",
"#F c #354677",
"av c #364469",
"#n c #364879",
"## c #36487c",
"bL c #36487d",
"au c #37456b",
".I c #374a7f",
".W c #384a7c",
"b# c #384b82",
"ac c #394870",
".q c #394c81",
"at c #3a4870",
"#X c #3a4871",
"ab c #3a4972",
"by c #3a4d84",
"#E c #3c4c77",
"aP c #3c4f84",
"be c #3c4f85",
"#W c #3d4c77",
"aa c #3d4c78",
"bh c #3d5085",
"bz c #3e5186",
"as c #3f4d78",
"#V c #3f4e79",
"#m c #3f507d",
"ay c #3f5186",
"#D c #404f7b",
"ar c #40507b",
"a# c #41507b",
"aN c #424f73",
"#l c #425280",
"#. c #425382",
"af c #425486",
"bJ c #435179",
"aq c #445585",
"ba c #445586",
".V c #445687",
"#Z c #445789",
".9 c #455687",
"#U c #465581",
"bi c #465889",
"bA c #46588b",
"a. c #475885",
"#G c #47588b",
"a1 c #47598a",
"#T c #485886",
"#C c #495884",
"ap c #495a8b",
"Qt c #495a8c",
".H c #4b5c8c",
"#9 c #4c5d8d",
"#a c #4c5e8f",
".X c #4d5e8f",
".p c #4e5f8d",
".J c #4e5f90",
"#S c #4f5f8d",
".r c #4f6091",
"bn c #51618b",
"ao c #526291",
"#k c #54638e",
"aQ c #546592",
"aM c #556285",
".n c #556591",
"bo c #556592",
".8 c #566692",
".G c #566693",
"aL c #586488",
"aK c #59668b",
".o c #596791",
"aJ c #5a678d",
"bB c #5a6a97",
"aI c #5b6a90",
".U c #5c6a93",
"#8 c #5c6b96",
"#R c #5c6c97",
"aH c #5d6c93",
"aG c #5e6d97",
"an c #5e6e98",
"bI c #5f6b8b",
"bH c #5f6b8d",
".F c #5f6d96",
"bG c #616c8c",
"bF c #626d8d",
"bj c #627097",
"aA c #62719a",
"bC c #637194",
"az c #64729c",
"#Q c #66749d",
"aF c #66759d",
"am c #68779e",
"bb c #69779c",
"a2 c #6a779e",
"#7 c #6a78a0",
"aE c #6a79a0",
"bE c #6b7595",
"bf c #6b7799",
"aR c #6b799f",
"aB c #6c79a0",
"al c #6c7aa1",
"bD c #6d7898",
"aD c #6e7ca4",
"ag c #6f7ca2",
"aC c #6f7da2",
"ak c #707da5",
"#P c #717ea2",
"aj c #7280a4",
"ai c #7380a6",
"ah c #7380a7",
"#6 c #7683a7",
"#q c #7a86aa",
".b c #7b87a8",
"#O c #7b87aa",
"#0 c #7b89b0",
"#5 c #7c89ab",
"aY c #7e87a2",
"bw c #808aa5",
"#1 c #808db1",
"bl c #818ba5",
"#4 c #818eae",
"a8 c #828ba5",
"#N c #828dae",
"#B c #828ead",
"#d c #838eae",
"#2 c #8390b0",
"#K c #848fb0",
"#M c #8590b1",
"#3 c #8591b1",
".0 c #8691af",
"#L c #8792b2",
"#H c #8894b3",
".L c #8a95b2",
"#r c #8a95b3",
"#A c #8b95b2",
".u c #8c97b5",
"#J c #8d98b5",
"#z c #8f99b5",
".S c #909ab5",
"#I c #909ab8",
"#o c #919cb9",
"#y c #929bb9",
".m c #939eba",
"#x c #959fbb",
".# c #96a0ba",
"#w c #97a1ba",
"#v c #99a2bc",
"#b c #9aa5be",
"#u c #9ba4be",
"#p c #9ca6c1",
"#t c #9da6bd",
".R c #9da6be",
".a c #9da6bf",
"#s c #9ea6bd",
".Q c #9ea7bf",
".l c #9ea8c1",
".7 c #9fa7bf",
".c c #a0a9c2",
".P c #a3acc3",
".Y c #a3acc4",
".k c #a6aec6",
".6 c #a6afc5",
"#c c #a6afc6",
".T c #a7afc6",
".K c #a9b1c7",
".j c #aab1c7",
"#j c #abb2c8",
".Z c #acb4c9",
".i c #adb4c8",
".s c #adb4ca",
"#i c #aeb5c9",
".h c #afb7cc",
"#h c #b1b9cc",
".g c #b3bace",
".f c #b4bbcf",
".t c #b5bccf",
".d c #b6bcd0",
".e c #b6bdd1",
".5 c #bfc6d5",
".4 c #c3c8d7",
"aS c #c4cad8",
"#g c #c4cad9",
"#e c #c6cbd9",
".1 c #c6ccd9",
".E c #c7ccda",
".v c #c8cddb",
"bg c #cfd3df",
"bc c #d2d5e0",
"a3 c #d2d6e0",
"bk c #d3d7e1",
"bp c #d4d7e1",
".D c #d4d8e4",
".C c #d8dce5",
".B c #dddfe6",
"aX c #dee0e6",
".A c #e0e2ea",
"aW c #e2e4ea",
"aU c #e2e5eb",
"aT c #e2e5ec",
"aV c #e3e5eb",
".3 c #e3e5ec",
"bv c #e3e6eb",
".O c #e3e6ec",
".z c #e4e7ed",
".2 c #e5e8ee",
".N c #e5e8ef",
"#f c #e6e8ef",
"bt c #e7e9ed",
".y c #e7e9ef",
".M c #e7e9f0",
"br c #e8eaed",
".x c #e8eaf0",
"bu c #e9ebed",
".w c #e9ebf1",
"bs c #eaecee",
"bq c #ecedf0",
"a7 c #eeeff2",
"a6 c #f4f4f6",
"a4 c #f4f5f7",
"a5 c #f5f6f8",
"Qt.#.a.b.c.d.e.f.g.h.i.j.k.l.m.n.o.p.q",
".r.s.t.u.v.w.w.x.y.z.A.B.C.D.E.F.G.H.I",
".J.K.g.L.v.w.w.M.N.O.P.Q.R.S.T.U.H.V.W",
".X.Y.Z.0.1.x.M.N.2.3.R.4.5.6.7.8.9#.##",
"#a#b#c#d#e#f.N.z.3.A#g#h#i#j.d#k#l#m#n",
"Qt#o#p#q#r#s#t#u#v#w#x#y#z#A#B#C#D#E#F",
"#G#H#I#J#K#L#M#N#O#P#Q#R#S#T#U#V#W#X#Y",
"#Z#0#1#2#3#3#4#5#6#7#8#9a.a#aaabacadae",
"afagahaiajakalamanaoapaqarasatauavawax",
"ayazaAaBaCaDaEaFaAaGaHaIaJaKaLaMaNaOax",
"aPaQaRaS.O.OaTaTaTaUaVaVaVaUaWaXaYaZa0",
".qa1a2a3a4a5a5a5a5a5a4a6a6a6a6a7a8a9b.",
"b#babbbca4a5a5a5a4a6a6a6a6a6a6a7a8a9bd",
"beaqbfbga5a4a4a4a6a6a6a6a6a6a6a7a8a9b.",
"bhbibjbka5a4a6a6a6a6a6a6a6a6a6a7bla9bm",
"bhbibnbka6a6a6a6a6a6a6a6a6a6a6a7a8a9b.",
"bhbibobpa7a7a7bqbrbrbsbsbtbubsbvbwa9bx",
"bybzbAbBbCbDbEbFbGbGbGbHbGbFbGbIbJbKbL"};
