/* XPM */
static char *dummy[]={
"22 22 5 1",
". c none",
"a c #000000",
"c c #00ff00",
"# c #696969",
"b c #ffff00",
"......................",
".......#aaaaaa#.......",
"......#abbbbbba#......",
"......abbbbbbbba......",
"......abbbaabbba......",
"......#aaaaabbba......",
"........#abbbba#......",
"........abbbba#.......",
"........abbba#........",
"........#aaa#.........",
"........abbba.........",
"........abbba.........",
"........#aaa#.........",
"......................",
"......................",
"..#a#.#a#aaa#a#.#aaa#.",
"..aca.acacccaca.accca.",
"..acaaacacaaaca.acaca.",
"..acccccacccaca.accca.",
"..acaaacacaaacaaacaa#.",
"..aca.acacccacccaca...",
"..#a#.#a#aaa#aaa#a#..."};
