/* XPM */
static char *config[]={
"32 32 32 1",
". c None",
"n c #030101",
"m c #3d7cd5",
"l c #6395e3",
"b c #6a6a6a",
"c c #8c8c8d",
"# c #a60000",
"k c #a9c4f6",
"v c #b6b6b5",
"i c #bdd2f7",
"q c #c3d0e4",
"t c #c5c5c5",
"D c #c9ccd3",
"u c #cdcdcd",
"h c #cddbf2",
"s c #d5d5d5",
"g c #d7e4f7",
"B c #ddddde",
"e c #e5eefe",
"p c #e6e6e7",
"f c #ecf3ff",
"C c #eeeeee",
"j c #f1f6ff",
"w c #f4f4f4",
"d c #f5f9ff",
"y c #f8f8f8",
"z c #fafafa",
"A c #fbfbfb",
"x c #fcfcfb",
"r c #fcfcfc",
"a c #ffc0c0",
"o c #ffffff",
"...........................##a##",
"bccccccccccccccccccccccccc##a###",
"bdefeeeeegggggghhhhhhhihi##a####",
"bjkhiiiiklllllmlmmmmmmmm##a#####",
"bdkhkikkklllllllmlmmmmm##a#####n",
"bogghghhhpehqqhqqqqqqq##a#####n.",
"brstussuvswsttsssuttt##a#####nb.",
"bouuussttusuututtpxxydt#####ncb.",
"borxoxxxrrxzxxzyyyArBoBt###ncvb.",
"boCppCpBpCCppppppppBoBttc#ncvsb.",
"boBssBBusBBssuuusBsoBttcnnccsCb.",
"bospBBCBBpBpBBBssBB#tvnncccvpyb.",
"boowwwwwwwwCCCrABp##nncccttswyb.",
"bozCooxzCxxxrCwwus#ncccvttuBwyb.",
"boyBBBBBsBBBBswwsssccvtusuuBCyb.",
"boypoopDpooppoAyoCxwyCoCpoowwyb.",
"boronnoCrnnoonoononnnonoonnoAyb.",
"boonoononoononnononooononoonoyb.",
"boonoyoonoononnnnonnnononozoAyb.",
"boonoononoonononnonooononoonoyb.",
"boyonnoConnoonoononouonoonnnozb.",
"boCpooptBooppoyAopopuCoppooozyb.",
"boCDsDDqtDDDDDwwpBBBppppBppBAyb.",
"bowpyyywpywwypCyzzAAzcccccccccb.",
"bowpCpCpBCppCpwzyyyyycCyywwrCb..",
"bozywyyyyyyzyyzzrrzzAcCrrooyb...",
"bouttttsBuuuvsstuBsutcCwwrwb....",
"botsusuuuBsttuustuuuucpCwCb.....",
"botttuuutusvttuuttuutcpCpb......",
"botussuBttBpusBBusBsscppb.......",
"bossBBsBsuwoooooooooocBb........",
"bcccccccccccccccccccccb........."};
