/* XPM */
static char * gen_map_xpm[] = {
"44 23 112 2",
"  	c None",
". 	c #FFFFFF",
"+ 	c #C1C1C1",
"@ 	c #A1A1A1",
"# 	c #D5D5D5",
"$ 	c #C7C7C7",
"% 	c #C9C9C9",
"& 	c #A2A2A2",
"* 	c #F5F5F5",
"= 	c #DFDFDF",
"- 	c #CBCBCB",
"; 	c #EEEEEE",
"> 	c #B2B2B2",
", 	c #B3B3B3",
"' 	c #D2D2D2",
") 	c #E6E6E6",
"! 	c #B8B8B8",
"~ 	c #D6D6D6",
"{ 	c #B7B7B7",
"] 	c #A7A7A7",
"^ 	c #AEAEAE",
"/ 	c #E2E2E2",
"( 	c #DDDDDD",
"_ 	c #A9A9A9",
": 	c #BEBEBE",
"< 	c #DCDCDC",
"[ 	c #E1E1E1",
"} 	c #BDBDBD",
"| 	c #A6A6A6",
"1 	c #C6C6C6",
"2 	c #999999",
"3 	c #989898",
"4 	c #B9B9B9",
"5 	c #B0B0B0",
"6 	c #C4C4C4",
"7 	c #DADADA",
"8 	c #CACACA",
"9 	c #ABABAB",
"0 	c #A8A8A8",
"a 	c #8E8E8E",
"b 	c #9B9B9B",
"c 	c #C5C5C5",
"d 	c #CCCCCC",
"e 	c #CFCFCF",
"f 	c #CDCDCD",
"g 	c #C8C8C8",
"h 	c #D1D1D1",
"i 	c #D9D9D9",
"j 	c #A3A3A3",
"k 	c #929292",
"l 	c #919191",
"m 	c #787878",
"n 	c #9C9C9C",
"o 	c #898989",
"p 	c #9E9E9E",
"q 	c #BABABA",
"r 	c #C2C2C2",
"s 	c #F1F1F1",
"t 	c #949494",
"u 	c #7D7D7D",
"v 	c #757575",
"w 	c #696969",
"x 	c #9A9A9A",
"y 	c #A0A0A0",
"z 	c #7E7E7E",
"A 	c #888888",
"B 	c #848484",
"C 	c #767676",
"D 	c #B6B6B6",
"E 	c #8F8F8F",
"F 	c #6A6A6A",
"G 	c #494949",
"H 	c #464646",
"I 	c #666666",
"J 	c #909090",
"K 	c #868686",
"L 	c #646464",
"M 	c #545454",
"N 	c #6F6F6F",
"O 	c #808080",
"P 	c #8B8B8B",
"Q 	c #AAAAAA",
"R 	c #CECECE",
"S 	c #727272",
"T 	c #8C8C8C",
"U 	c #979797",
"V 	c #BCBCBC",
"W 	c #AFAFAF",
"X 	c #7A7A7A",
"Y 	c #838383",
"Z 	c #777777",
"` 	c #969696",
" .	c #9F9F9F",
"..	c #BFBFBF",
"+.	c #B4B4B4",
"@.	c #828282",
"#.	c #7F7F7F",
"$.	c #818181",
"%.	c #9D9D9D",
"&.	c #BBBBBB",
"*.	c #959595",
"=.	c #8A8A8A",
"-.	c #737373",
";.	c #858585",
">.	c #ACACAC",
",.	c #C3C3C3",
"'.	c #676767",
").	c #B5B5B5",
"!.	c #939393",
"~.	c #E4E4E4",
"{.	c #5D5D5D",
"].	c #EBEBEB",
"                                                                                        ",
"  . . . . . . . + . . . @ # . . . . . . . . . . . . . . . . . . . . . . . . . . . . .   ",
"  . . . . . . . + $ . % & * . . . . . = . . . . . . . . . . . . . . . . . . . . . . .   ",
"  - . . . . . ; + + . > , . . . . ' ) $ . . . . . . . . . . . . . . . . . . . . . . .   ",
"  ! ~ . . . . + { + . ] ^ . / . . + + . . . / . . . . . . . . . . * ( . . . . . . . .   ",
"  _ : . < . [ } | } 1 2 3 . + . 4 5 6 . % % / . . . . . . . . . 7 8 . . . . . . . . .   ",
"  9 0 - + . ! a | | 0 3 b c d e ^ ^ + f g h . . . . . . . . . e i . . . . . . . . . .   ",
"  j 0 k ] - l m | | n o p b 5 | | q 1 r 6 6 . . . s . . . s % ) . . . . . . . . . . .   ",
"  3 t u v a w w x y z A B C D E ^ : @ , 4 c f . f < . . i - . . . . . . . . . . . . .   ",
"  n z B F G H I J K L A M N O P Q @ p Q 3 ! . d ( . ' R 7 . . . . . . . . . . . . . .   ",
"  l S T o P U @ V W j y u C X Y Z A ` a  .. ..7 , ^ 6 d ~ . . . . . . . . . . . . . .   ",
"  +.- . . . . . . . . . . . h @ @.O #.$.1 0 0 %.y } : 6 . . . . . . . . . . . . . . .   ",
"  . . . . . . . . . . . . . . . . &.o ..K *.2 j , 9 } 7 ~ . . . . . . . . . . . . . .   ",
"  . . . . . . . . . . . . . . . . . . 4 Z =.Q | 2 %.W D / ~ . s . . . . . . . . . . .   ",
"  . . . . . . . . . . . . . . . . . . . < | x -.;.J 3 >.: ,.% R . . . . . . . . . . .   ",
"  . . . . . . . . . . . . . . . . . . . . ; Z '.v K Q ).y & : < . . . . . . . . # % %   ",
"  . . . . . . . . . . . . . . . . . . . . . = Y T  .J *.t j { g 8 / . . e % % % ( . .   ",
"  . . . . . . . . . . . . . . . . . . . . . . % o P B =.0 4 4 5 @ V % % ) . . . . . .   ",
"  . . . . . . . . . . . . . . . . . . . . . . . x w u x 2 0 4 - ; . . . . . . . . . .   ",
"  . . . . . . . . . . . . . . . . . . . . . . . = !.U !., V f % ~./ d % % % % * . . .   ",
"  . . . . . . . . . . . . . . . . . . . . . . . . ;.{.w #.a y Q @ | ; . . . . . . . .   ",
"  . . . . . . . . . . . . . . . . . . . . . . . . >.X @.X k g # ].. . . . . . . . . .   ",
"                                                                                        "};
