/* XPM */
static char *edit[] = {
/* columns rows colors chars-per-pixel */
"28 9 2 1 ",
"  c gray100",
". c black",
/* pixels */
"....  ......................",
"                            ",
"....  ......................",
"                            ",
"....  ......................",
"                            ",
"....  ......................",
"                            ",
"....  ......................"
};
