/* XPM */ 
static const unsigned char * more_xpm[] = {
"50 18 2 1",
" 	c None",
"!	c black",
"                                                  ",
"                                                  ",
"                                                  ",
"                                                  ",
"                                                  ",
"   !!     !!  !!!!!  !!!!!   !!!!!  !   !   !     ",
"   !!!   !!! !!   !! !!  !!  !!      !   !   !    ",
"   !!!! !!!! !!   !! !!  !!  !!       !   !   !   ",
"   ! !!!! !! !!   !! !!  !!  !!!!!     !   !   !  ",
"   !  !!  !! !!   !! !!!!!   !!        !   !   !  ",
"   !      !! !!   !! !! !!   !!       !   !   !   ",
"   !      !! !!   !! !!  !!  !!      !   !   !    ",
"   !      !!  !!!!!  !!   !! !!!!!  !   !   !     ",
"                                                  ",
"                                                  ",
"                                                  ",
"                                                  ",
"                                                  "};