/* XPM */
static char *redo[]={
"19 18 26 1",
". c None",
"q c #484848",
"d c #020202",
"k c #474747",
"e c #474747",
"# c #474747",
"i c #474747",
"x c #010101",
"b c #464646",
"w c #000000",
"v c #000000",
"o c #464646",
"u c #000000",
"n c #464646",
"j c #000000",
"t c #464646",
"c c #000000",
"g c #000000",
"s c #111111",
"m c #151515",
"p c #1c1c1c",
"h c #2a2a2a",
"f c #313131",
"l c #343434",
"r c #383838",
"a c #464646",
"...................",
"...................",
"...................",
".....#aaaaab..cd...",
"....efggggghijgd...",
"...klmn...opgggd...",
"..qrst.....ugggd...",
"..qrc.....vggggd...",
"..qrc....wgggggd...",
"..qrc..............",
"..qrc..............",
"..qrst.............",
"...klmn............",
"....efgggggx.......",
".....#aaaaab.......",
"...................",
"...................",
"..................."};
