/* XPM */
static char *no[] = {
/* columns rows colors chars-per-pixel */
"14 13 2 1 ",
"  c gray100",
". c black",
/* pixels */
"              ",
"              ",
"              ",
"   ........   ",
"   .      .   ",
"   .      .   ",
"   .      .   ",
"   .      .   ",
"   .      .   ",
"   ........   ",
"              ",
"              ",
"              "
};
