/* XPM */
static char *rectangle[] = {
/* columns rows colors chars-per-pixel */
"16 16 2 1 ",
"  c none",
". c black",
/* pixels */
"                ",
"                ",
"................",
"................",
"................",
"................",
"................",
"................",
"................",
"................",
"................",
"................",
"................",
"................",
"                ",
"                "
};
