/* XPM */ 
static const unsigned char * basestext_xpm[] = {
"120 19 105 2",
"  	c None",
"! 	c black",
"# 	c #545454",
"$ 	c #088B08",
"% 	c #1857E5",
"& 	c #E52218",
"' 	c #F8C7C5",
"( 	c white",
") 	c #F3A19D",
"* 	c #0B8C0B",
"+ 	c #8CC98C",
", 	c #EAF5EA",
"- 	c #F8FBF8",
". 	c #C3E3C3",
"0 	c #E7372E",
"1 	c #FEFDFD",
"2 	c #FEFEFE",
"3 	c #FCE9E8",
"4 	c #E52319",
"5 	c #84C584",
"6 	c #69B869",
"7 	c #2B9B2B",
"8 	c #7CC17C",
"9 	c #F0807A",
": 	c #F5AFAB",
"; 	c #EB5951",
"< 	c #E2F1E2",
"= 	c #C5E4C5",
"> 	c #808080",
"? 	c #F8CBC9",
"@ 	c #FDF2F1",
"A 	c #E84037",
"B 	c #F4A4A0",
"C 	c #FCFDFC",
"D 	c #A5D5A5",
"E 	c #131316",
"F 	c #E73A31",
"G 	c #F6B7B3",
"H 	c #FBDDDB",
"I 	c #FCECEB",
"J 	c #E5241A",
"K 	c #E3F2E3",
"L 	c #C4E3C4",
"M 	c #FFFFDF",
"N 	c #DFFFFF",
"O 	c #F0847F",
"P 	c #EC5D56",
"Q 	c #86C686",
"R 	c #66B766",
"S 	c #299A29",
"T 	c #7AC07A",
"U 	c #A3A3A4",
"V 	c #F9D0CE",
"W 	c #EA4E46",
"X 	c #E94B43",
"Y 	c #FEFCFC",
"Z 	c #7CA0F0",
"[ 	c #DEE7FB",
"] 	c #FBFCFE",
"^ 	c #F0F4FD",
"_ 	c #BFD0F7",
"` 	c #8ECA8E",
"a 	c #EBF5EB",
"b 	c #F9FCF9",
"c 	c #BFFFFF",
"d 	c #80A2F0",
"e 	c #86A7F1",
"f 	c #376EE8",
"g 	c #497BEA",
"h 	c #96B3F3",
"i 	c #EA0606",
"j 	c #E2E9FB",
"k 	c #C8D7F8",
"l 	c #A8BFF5",
"m 	c #A1BBF4",
"n 	c #F5F7FD",
"o 	c #F8F8F8",
"p 	c #AAAAAB",
"q 	c #1A1A1D",
"r 	c #9B9B9D",
"s 	c #111010",
"t 	c #E3EBFB",
"u 	c #C6D6F8",
"v 	c #2B65E7",
"w 	c #B2C7F6",
"x 	c #C7C7C8",
"y 	c #EBEBEB",
"z 	c #5C5C5E",
"{ 	c #8D8D8E",
"| 	c #69696A",
"} 	c #88A8F1",
"~ 	c #7DA0F0",
" !	c #356CE8",
"!!	c #B8CBF7",
"#!	c #39393C",
"$!	c #CACACA",
"%!	c #FAFAFA",
"&!	c #EFEFEF",
"'!	c #9A9A9B",
"(!	c #141417",
")!	c #1958E5",
"*!	c #8AAAF1",
"+!	c #E6EDFC",
",!	c #FCFDFE",
"-!	c #A8C0F5",
"  # # # # # # # # # # # # # # # # # # # # # # # # # # # # # # # # # # # # # # # # # # # # # # # # # # # # # # # # # # # # # # # # # # # # # # # # # # # # # # # # # # # # # # # # # # # # # # # # # # # # # # # # # # # # # # # # # # # # # #   ",
"# # # # # # # # # # # # # # # # # # # # # # # # # # # # # # # # # # # # # $ $ $ $ # # # # # # # # # # # # # # # # # # # # # # # # # # # # # # # # # # # # # # # # # # # # # # # # # # # # # # # # # # # # # # # # # # # # # # # # # # # # # # # ",
"# # # # # # # # # # # # # # # # # # # # # # # # # # # # # # # # # # # $ $ $ $ $ $ $ $ # # # # # # # # # # # # # # # # # # # # # # # # # # # # # # # # # # # # # # # # # # # # # # # # # # # # # # # # # # # # # # # # # # # # # # # # # # # # # ",
"# # # # % % # # # & & & & # # # # # # # # # # # # # # # # # # # % % $ $ $ $ $ $ $ $ $ $ # # # # # # # # # # # # # # # # # # # # # # # # # # # # # # # # # # # # # # # # # # # # # # # # # # # # # # # # # # # # # # # # # # # # # # # # # # # # ",
"# # # # # % % # & & ' ( ) & # # # # # # # # # # # # # # # # % % % # $ $ * + , - . $ $ $ # # # # # # # # # # # # # # # # # # # # # # # # # # # # # # # # # # # # # # # # # # # # # # # # # # # # # # # # # # # # # # # # # # # # # # # # # # # # ",
"# # # # # # # & & 0 1 2 3 4 & # # # # # # # # # # # # # % % % # # $ $ $ 5 ( 6 7 8 $ $ $ $ # # # # # # # # # # # # # # # # # # # # # # # # # # # # # # # # # # # # # # # # # # # # # # # # # # # # # # # # # # # # # # # # # # # # # # # # # # # ",
"# # # # # # & & & 9 ( : ( ; & & # # # # # # # # # # # % % # # # # $ $ $ < = $ $ $ $ $ $ $ # # # # # # # # # # # # # # # # # # # # # # # # # # # # # # # > ( ( ( ( # # # # > ( ( # # # # > ( ( ( ( # > ( ( ( ( # # > ( ( ( ( # # # # # # # # # # ",
"# # # # # # & & & ? @ A ( B & & # # # # # # # # # # # % # # # # # $ $ $ C D $ $ $ $ $ $ $ $ $ # # # # # # # # E E E # # # # # # # # # # # # # # # # # # > ( # # > ( # # # > ( ( # # # > ( # # # # # > ( # # # # > ( # # # # # # # # # # # # # # ",
"# # # # # # & & F 2 G & H I J & # # # # # # # # # % % % # # # # # $ $ $ K L $ $ $ $ $ $ $ # # $ $ $ $ # # E E E E E E E # # # # # # # # # # # # # # # # > ( # # > M # # > N # > M # # > ( # # # # # > ( # # # # > ( # # # # # # # # # # # # # # ",
"# # # # # # & & O ( ( ( ( ( P & # # # # # # # % % % % % % % # # # # $ $ Q ( R S T $ $ $ # # # # # # $ $ E E ( U E E ( U E # # # # # # # # # # # # # # # > ( ( ( ( # # # > ( # > ( # # > ( ( ( ( # # > ( ( ( M # > ( ( ( ( # # # # # # # # # # # ",
"# # # # # # # & V I W X P Y & # # # # # # # % % Z [ ] ^ _ % % # # # $ $ * ` a b L $ $ $ # # # # # # # # E E ( U E E ( U E # # # # # # # # # # # # # # # > ( # # > ( # # > M # > N # # # > c ( ( ( # > ( # # # # # > > ( ( ( # # # # # # # # # # ",
"# # # # # # # # & & & & & & & & # # # # # # % d ( e f g h % % # # # # $ $ $ $ $ $ $ $ # # # # # # # # E E E ( U E E ( U E E # # # # # # # # # # # # # # > ( # # > N # > ( ( ( ( ( ( # # # # # > N # > ( # # # # # # # # > N # # # # # # # # # # ",
"# # # # # # # # # & & & & # # i & # # # # % % j k % % % % % % % # # # # # $ $ $ $ # # # # # # # # # # E E E ( U E E ( U E E # # # # # # # # # # # # # # > ( # # > ( # > ( # # # > ( # # # # # > ( # > ( # # # # # # # # > ( # # # # # # # # # # ",
"# # # # # # # # # # # # # # # # i i # # # % % ] l % m n n % % % # # # # # # # # # # # # # # # # # # # E E E o p E q ( r E E # # # # # # # # s s # # # # > ( ( ( ( # # > M # # # > N # > ( ( ( ( # # > ( ( ( ( # > ( ( ( ( # # # # # # # # # # # ",
"# # # # # # # # # # # # # # # # # i i i # % % t u % v w ( % % % # # # # # # # # # # # # # # # # # # # # E E x y z { ( | E s s # # # # # s s s # # # # # # # # # # # # # # # # # # # # # # # # # # # # # # # # # # # # # # # # # # # # # # # # # ",
"# # # # # # # # # # # # # # # # # # # i i # % } ( ~  !!!( % % # # # # # # # # # # # # # # # # # # # # # E E #!$!%!&!'!(!E # s s s s s s s # # # # # # # # # # # # # # # # # # # # # # # # # # # # # # # # # # # # # # # # # # # # # # # # # # # ",
"# # # # # # # # # # # # # # # # # # # # # # % )!*!+!,!+!-!% % # # # # # # # # # # # # # # # # # # # # # # E E E E E E E # # # # # # # # # # # # # # # # # # # # # # # # # # # # # # # # # # # # # # # # # # # # # # # # # # # # # # # # # # # # ",
"# # # # # # # # # # # # # # # # # # # # # # # % % % % % % % # # # # # # # # # # # # # # # # # # # # # # # # # E E E # # # # # # # # # # # # # # # # # # # # # # # # # # # # # # # # # # # # # # # # # # # # # # # # # # # # # # # # # # # # # # ",
"  # # # # # # # # # # # # # # # # # # # # # # # # % % % # # # # # # # # # # # # # # # # # # # # # # # # # # # # # # # # # # # # # # # # # # # # # # # # # # # # # # # # # # # # # # # # # # # # # # # # # # # # # # # # # # # # # # # # # # #   "};