/* XPM */
static char *closeText[]={
"70 19 185 2",
".# c None",
"Qt c None",
".Z c #000000",
"az c #8a0202",
"aq c #8b0303",
"aV c #8b0404",
"ai c #8e0000",
"aU c #8e0202",
"a1 c #8f0202",
"aa c #8f0404",
"a2 c #8f0606",
"#2 c #900101",
"#R c #910101",
"a0 c #920202",
"aK c #931818",
"aZ c #940202",
"#J c #950101",
"aY c #970202",
"#A c #980101",
"ap c #990404",
"aJ c #990808",
"#m c #9b0404",
"aX c #9b0707",
"aN c #a00202",
".9 c #a10000",
"aT c #a10f0f",
"aM c #a20404",
"ay c #a20a0a",
".Y c #a40303",
"aW c #a74141",
".O c #a80202",
"#l c #ab0000",
".D c #ac0101",
"as c #ac0202",
"aO c #ac0f0f",
"aA c #ad4f4f",
".X c #af0606",
"aC c #af0808",
"aB c #b01818",
"aj c #b10303",
".E c #b11818",
".q c #b20404",
"#1 c #b30000",
"aS c #b51e1e",
".p c #b60000",
"#z c #b70000",
".C c #b80707",
"ak c #b90404",
".N c #b90909",
"aL c #ba4141",
"#3 c #bb0404",
".f c #bb0606",
"at c #bb0a0a",
"aP c #bb1e1e",
"#S c #bc0101",
".e c #bd0202",
"#Q c #be0000",
"#K c #bf0101",
".d c #bf0202",
"#I c #c00000",
".P c #c04f4f",
"#B c #c10101",
".c c #c20202",
".o c #c20404",
"#4 c #c30000",
"aR c #c32828",
"#n c #c40101",
".r c #c44141",
".b c #c50202",
"aQ c #c52828",
"#. c #c60404",
".a c #c70606",
".i c #c80000",
"ar c #c84f4f",
".Q c #c90303",
".t c #ca0101",
".G c #ca0202",
".h c #ca0404",
".j c #cd0303",
"## c #ce0000",
".R c #ce0202",
".u c #ce0404",
"#T c #cf0101",
".s c #cf1818",
".n c #cf1d1d",
"aI c #cf2929",
"ah c #d00707",
".H c #d10505",
"#o c #d40606",
".k c #d41919",
".8 c #d42e2e",
"#L c #d70404",
"aD c #d72929",
".g c #d74141",
".m c #d82626",
"#C c #d90909",
".l c #d92626",
".F c #d94f4f",
".B c #db4242",
"ab c #df0707",
".0 c #e21d1d",
".v c #e23333",
"ao c #e81b1b",
"ax c #e82b2b",
"#k c #e91a1a",
".W c #ea6767",
".M c #eb7171",
"au c #ed2b2b",
"al c #ee1b1b",
"a# c #ef0101",
".S c #ef4c4c",
".I c #ef5a5a",
"#y c #f00000",
"aH c #f04040",
"#x c #f20000",
"#w c #f20606",
"aE c #f24040",
"#a c #f34343",
".A c #f39a9a",
"#5 c #f40101",
".w c #f48c8c",
"#0 c #f50000",
"#H c #f65959",
"#v c #f65e5e",
"#Z c #f70000",
"#j c #f84343",
"#Y c #f95b5b",
"#U c #fb0303",
"#p c #fb4747",
".z c #fbc3c3",
"#i c #fc8585",
".x c #fcc0c0",
"#6 c #fd0202",
"#M c #fd1717",
"#D c #fd3333",
"#7 c #fd4949",
"aF c #fd4a4a",
"a. c #fd5a5a",
".1 c #fd8989",
".J c #fdc0c0",
".y c #fdcccc",
"#u c #fde8e8",
"#V c #fe0303",
"ac c #fe1010",
"av c #fe3838",
"#W c #fe5e5e",
".7 c #fe9090",
".L c #fecaca",
"#8 c #feeaea",
"#h c #feeeee",
"ag c #ff0f0f",
"#N c #ff1a1a",
"am c #ff2222",
"aw c #ff3737",
"#E c #ff3b3b",
"aG c #ff4b4b",
"#q c #ff5959",
"ad c #ff5f5f",
"an c #ff6363",
"af c #ff6666",
"#O c #ff6c6c",
"#b c #ff7777",
"#F c #ff7d7d",
"#r c #ff9191",
".6 c #ff9595",
"#c c #ff9c9c",
"#g c #ffaaaa",
".T c #ffb3b3",
".2 c #ffb9b9",
".5 c #ffbdbd",
".V c #ffcbcb",
".U c #ffcfcf",
".K c #ffd1d1",
"#9 c #ffe8e8",
"#X c #ffe9e9",
"ae c #ffebeb",
"#s c #ffeeee",
"#P c #fff0f0",
"#G c #fff1f1",
"#d c #fff2f2",
"#f c #fff3f3",
"#t c #fff4f4",
".4 c #fff7f7",
".3 c #fffafa",
"#e c #ffffff",
"QtQtQtQtQtQtQtQtQtQtQtQtQtQtQtQtQtQtQtQtQtQtQtQtQtQtQtQtQtQtQtQtQtQtQtQtQtQtQtQtQtQtQtQtQtQtQtQtQtQtQtQtQtQtQtQtQtQtQtQtQtQtQtQtQtQtQtQtQtQt",
"QtQt.#.#.#.#.#.#.a.b.c.d.e.f.#.#.#.#.#.#QtQtQtQtQtQtQtQtQtQtQtQtQtQtQtQtQtQtQtQtQtQtQtQtQtQtQtQtQtQtQtQtQtQtQtQtQtQtQtQtQtQtQtQtQtQtQtQtQtQt",
"QtQt.#.#.#.g.h.i.j.k.l.m.n.o.p.q.r.#.#.#QtQtQtQtQtQtQtQtQtQtQtQtQtQtQtQtQtQtQtQtQtQtQtQtQtQtQtQtQtQtQtQtQtQtQtQtQtQtQtQtQtQtQtQtQtQtQtQtQtQt",
"QtQt.#.#.s.t.u.v.w.x.y.y.z.A.B.C.D.E.#.#QtQtQtQtQtQtQtQtQtQtQtQtQtQtQtQtQtQtQtQtQtQtQtQtQtQtQtQtQtQtQtQtQtQtQtQtQtQtQtQtQtQtQtQtQtQtQtQtQtQt",
"QtQt.#.F.G.H.I.J.K.K.K.K.K.K.L.M.N.O.P.#QtQtQtQtQtQtQtQtQtQtQtQtQtQtQtQtQtQtQtQtQtQtQtQtQtQtQtQtQtQtQtQtQtQtQtQtQtQtQtQtQtQtQtQtQtQtQtQtQtQt",
"QtQt.#.Q.R.S.T.U.V.T.T.T.T.V.U.T.W.X.Y.#QtQtQtQtQtQtQt.Z.Z.Z.Z.ZQtQt.Z.ZQtQtQtQtQtQtQtQt.Z.Z.Z.Z.ZQtQtQtQtQt.Z.Z.Z.Z.Z.ZQtQt.Z.Z.Z.Z.Z.ZQtQt",
"QtQt.#.i.0.1.2.3.4.5.6.6.5.4.3.2.7.8.9.#QtQtQtQtQt.Z.Z.Z.Z.Z.Z.ZQtQt.Z.ZQtQtQtQtQtQtQt.Z.Z.Z.Z.Z.Z.ZQtQtQt.Z.Z.Z.Z.Z.Z.ZQtQt.Z.Z.Z.Z.Z.ZQtQt",
"QtQt#.###a#b#c#d#e#f#g#g#f#e#h#i#j#k#l#mQtQtQtQt.Z.Z.ZQtQtQtQtQtQtQt.Z.ZQtQtQtQtQtQt.Z.Z.ZQtQtQt.Z.Z.ZQtQt.Z.ZQtQtQtQtQtQtQt.Z.ZQtQtQtQtQtQt",
"QtQt#n#o#p#q#q#r#s#e#t#t#e#u#v#w#x#y#z#AQtQtQtQt.Z.ZQtQtQtQtQtQtQtQt.Z.ZQtQtQtQtQtQt.Z.ZQtQtQtQtQt.Z.ZQtQt.Z.Z.Z.ZQtQtQtQtQt.Z.Z.Z.Z.Z.ZQtQt",
"QtQt#B#C#D#E#E#E#F#G#e#e#h#H#x#x#x#x#I#JQtQtQtQt.Z.ZQtQtQtQtQtQtQtQt.Z.ZQtQtQtQtQtQt.Z.ZQtQtQtQtQt.Z.ZQtQtQt.Z.Z.Z.Z.Z.ZQtQt.Z.Z.Z.Z.Z.ZQtQt",
"QtQt#K#L#M#N#N#N#O#P#e#e#h#H#x#x#x#x#Q#RQtQtQtQt.Z.ZQtQtQtQtQtQtQtQt.Z.ZQtQtQtQtQtQt.Z.ZQtQtQtQtQt.Z.ZQtQtQtQtQtQt.Z.Z.ZQtQt.Z.ZQtQtQtQtQtQt",
"QtQt#S#T#U#V#V#W#X#e#h#h#e#u#Y#Z#Z#0#1#2QtQtQtQt.Z.Z.ZQtQtQtQtQtQtQt.Z.ZQtQtQtQtQtQt.Z.Z.ZQtQtQt.Z.Z.ZQtQtQtQtQtQtQt.Z.ZQtQt.Z.ZQtQtQtQtQtQt",
"QtQt#3#4#5#6#7#8#e#9a.a.#9#e#8#7#6a#.9aaQtQtQtQtQt.Z.Z.Z.Z.Z.Z.ZQtQt.Z.Z.Z.Z.Z.ZQtQtQt.Z.Z.Z.Z.Z.Z.ZQtQtQt.Z.Z.Z.Z.Z.Z.ZQtQt.Z.Z.Z.Z.Z.ZQtQt",
"QtQt.#.pabacad#faeafagagafae#fadacahai.#QtQtQtQtQtQtQt.Z.Z.Z.Z.ZQtQt.Z.Z.Z.Z.Z.Z.ZQtQtQt.Z.Z.Z.Z.ZQtQtQtQt.Z.Z.Z.Z.Z.ZQtQtQt.Z.Z.Z.Z.Z.ZQtQt",
"QtQt.#ajakalam#Oanamamamaman#Oamaoapaq.#QtQtQtQtQtQtQtQtQtQtQtQtQtQtQtQtQtQtQtQtQtQtQtQtQtQtQtQtQtQtQtQtQtQtQtQtQtQtQtQtQtQtQtQtQtQtQtQtQtQt",
"QtQt.#arasatauavawawawawawawavaxayazaA.#QtQtQtQtQtQtQtQtQtQtQtQtQtQtQtQtQtQtQtQtQtQtQtQtQtQtQtQtQtQtQtQtQtQtQtQtQtQtQtQtQtQtQtQtQtQtQtQtQtQt",
"QtQt.#.#aB.OaCaDaEaFaGaGaFaHaIaJazaK.#.#QtQtQtQtQtQtQtQtQtQtQtQtQtQtQtQtQtQtQtQtQtQtQtQtQtQtQtQtQtQtQtQtQtQtQtQtQtQtQtQtQtQtQtQtQtQtQtQtQtQt",
"QtQt.#.#.#aLaMaNaOaPaQaRaSaTaUaVaW.#.#.#QtQtQtQtQtQtQtQtQtQtQtQtQtQtQtQtQtQtQtQtQtQtQtQtQtQtQtQtQtQtQtQtQtQtQtQtQtQtQtQtQtQtQtQtQtQtQtQtQtQt",
"QtQt.#.#.#.#.#.#aXaYaZa0a1a2.#.#.#.#.#.#QtQtQtQtQtQtQtQtQtQtQtQtQtQtQtQtQtQtQtQtQtQtQtQtQtQtQtQtQtQtQtQtQtQtQtQtQtQtQtQtQtQtQtQtQtQtQtQtQtQt"};
