/* XPM */
static char *ColorsBall[]={
"60 18 8 1",
"# c None",
". c None",
"e c #0000ff",
"d c #00c000",
"c c #00ffff",
"a c #ff0000",
"b c #ff00ff",
"f c #ffc0c0",
".........#..........#........##.........#........##.........",
"aaaaaaaaa##bbbbbbbb##cccccccc##dddddddd##eeeeeeee##fffffffff",
"aaaaaaaaa##bbbbbbbb##cccccccc##dddddddd##eeeeeeee##fffffffff",
"aaaaaaaaa##bbbbbbbb##cccccccc##dddddddd##eeeeeeee##fffffffff",
"aaaaaaaaa##bbbbbbbb##cccccccc##dddddddd##eeeeeeee##fffffffff",
"aaaaaaaaa##bbbbbbbb##cccccccc##dddddddd##eeeeeeee##fffffffff",
"aaaaaaaaa.#bbbbbbbb##cccccccc##dddddddd##eeeeeeee##fffffffff",
"aaaaaaaaa.#bbbbbbbb##cccccccc##dddddddd##eeeeeeee##fffffffff",
"..........#........#.#.......##........##........##.........",
"..........#........###........#........##........##.........",
"ddddddddd.#ffffffff##eeeeeeee##bbbbbbbb##cccccccc##aaaaaaaaa",
"ddddddddd.#ffffffff##eeeeeeee##bbbbbbbb.#cccccccc##aaaaaaaaa",
"ddddddddd.#ffffffff.#eeeeeeee##bbbbbbbb.#cccccccc##aaaaaaaaa",
"ddddddddd.#ffffffff.#eeeeeeee##bbbbbbbb..cccccccc##aaaaaaaaa",
"ddddddddd..ffffffff.#eeeeeeee##bbbbbbbb..cccccccc##aaaaaaaaa",
"ddddddddd..ffffffff.#eeeeeeee##bbbbbbbb..cccccccc##aaaaaaaaa",
"ddddddddd..ffffffff.#eeeeeeee##bbbbbbbb##cccccccc##aaaaaaaaa",
"..............................#.........##.......##........."};
