/* XPM */
static char *colors[]={
"60 19 31 1",
". c None",
"p c #0101ff",
"o c #01c001",
"n c #01ffff",
"l c #ff0101",
"m c #ff01ff",
"q c #ffc0c0",
"t c #0101ff",
"r c #01c001",
"v c #01ffff",
"w c #ff0101",
"u c #ff01ff",
"s c #ffc0c0",
"z c #0000ff",
"x c #00c000",
"B c #00ffff",
"C c #ff0000",
"A c #ff00ff",
"y c #ffc0c0",
"d c #0000ff",
"c c #00c000",
"b c #00ffff",
"# c #ff0000",
"a c #ff00ff",
"e c #ffc0c0",
"j c #0000ff",
"i c #00c000",
"h c #00ffff",
"f c #ff0000",
"g c #ff00ff",
"k c #ffc0c0",
"............................................................",
"#########..aaaaaaaa..bbbbbbbb..cccccccc..dddddddd..eeeeeeeee",
"fffffffff..gggggggg..hhhhhhhh..iiiiiiii..jjjjjjjj..kkkkkkkkk",
"fffffffff..gggggggg..hhhhhhhh..iiiiiiii..jjjjjjjj..kkkkkkkkk",
"fffffffff..gggggggg..hhhhhhhh..iiiiiiii..jjjjjjjj..kkkkkkkkk",
"fffffffff..gggggggg..hhhhhhhh..iiiiiiii..jjjjjjjj..kkkkkkkkk",
"fffffffff..gggggggg..hhhhhhhh..iiiiiiii..jjjjjjjj..kkkkkkkkk",
"fffffffff..gggggggg..hhhhhhhh..iiiiiiii..jjjjjjjj..kkkkkkkkk",
"lllllllll..mmmmmmmm..nnnnnnnn..oooooooo..pppppppp..qqqqqqqqq",
"............................................................",
"rrrrrrrrr..ssssssss..tttttttt..uuuuuuuu..vvvvvvvv..wwwwwwwww",
"iiiiiiiii..kkkkkkkk..jjjjjjjj..gggggggg..hhhhhhhh..fffffffff",
"iiiiiiiii..kkkkkkkk..jjjjjjjj..gggggggg..hhhhhhhh..fffffffff",
"iiiiiiiii..kkkkkkkk..jjjjjjjj..gggggggg..hhhhhhhh..fffffffff",
"iiiiiiiii..kkkkkkkk..jjjjjjjj..gggggggg..hhhhhhhh..fffffffff",
"iiiiiiiii..kkkkkkkk..jjjjjjjj..gggggggg..hhhhhhhh..fffffffff",
"iiiiiiiii..kkkkkkkk..jjjjjjjj..gggggggg..hhhhhhhh..fffffffff",
"xxxxxxxxx..yyyyyyyy..zzzzzzzz..AAAAAAAA..BBBBBBBB..CCCCCCCCC",
"............................................................"};
