/* XPM */
static char *colorMaps[]={
"60 19 13 1",
". c None",
"# c None",
"a c #000000",
"c c #0000ff",
"j c #0080ff",
"d c #00c000",
"f c #a8dcff",
"g c #c00000",
"k c #c000c0",
"e c #c0c0ff",
"b c #ff0000",
"i c #ffc0c0",
"h c #ffff00",
".....................#######################################",
".a..a..aaa..aaa..a...aaa##aaa##aaa##aaa##aaa##aaa##.aa##aaa#",
".a..a...a...a....a...#a###a#a##a#####a#####a##a####a####a#a#",
".a..a...a...a....a...#a###a#a##a#####a#####a##a####aa###a#a#",
".aaaa...a...aaa..a...#a###a#a##aaa###a#####a##a#####a.##aaa#",
".a..a...a...a....a...#a###a#a##a#####a#####a##a#a###aa##a#a#",
".a..a...a...a....a...#a###a#a##a#####a###a#a##a#a####a##a#a#",
".a..a..aaa..aaa..aaa.#a###aaa##a####aaa##aaa##aaa##aa.##aaa#",
".....................#.#####################################",
".....................#######################################",
"............................................................",
".b..b..ccc..ddd..e...fff..ggg..ddd..ccc..hhh..iii...jj..kkk.",
".b..b...c...d....e....f...g.g..d.....c.....h..i....j....k.k.",
".b..b...c...d....e....f...g.g..d.....c.....h..i....jj...k.k.",
".bbbb...c...ddd..e....f...g.g..ddd...c.....h..i.....j...kkk.",
".b..b...c...d....e....f...g.g..d.....c.....h..i.i...jj..k.k.",
".b..b...c...d....e....f...g.g..d.....c...h.h..i.i....j..k.k.",
".b..b..ccc..ddd..eee..f...ggg..d....ccc..hhh..iii..jj...kkk.",
"............................................................"};
