/* XPM */
static char * editor_xpm[] = {
"88 24 10 1",
" 	c None",
".	c #0000DD",
"+	c #8000F0",
"@	c #FF0080",
"#	c #00AA55",
"$	c #C0A020",
"%	c #BEBEBE",
"&	c #FFDB31",
"*	c #54FEFF",
"=	c #F8F8F8",
"                                                                                        ",
" ====================================================================================== ",
" =======###=$==$==###=$==$=$==$==+++============+++=*+++***.****.**$**$**====$==$===.== ",
" ======##===$==$=##===$==$=$==$=++=============++===++****...**...*$**$**====$==$==...= ",
" ======#====$==$=#====$==$=$==$=+==============+====+*****.*.**.*.*$**$**====$==$==.=.= ",
" =%%%%=#====$==$=#====$==$=$==$=+==+=%%%%=%%%%=+==+=+**+**...**...*$**$*%%%%=$==$==...= ",
" ======##===$==$=##===$==$=$==$=++=+===========++=+=++*+*.***..***.$**$**====$==$=.===. ",
" =======###=$$$$==###=$$$$=$$$$==+++============+++=*+++*.***..***.$$$$**====$$$$=.===. ",
" ========================================@@@@@@=====*********************============== ",
" ======&+++&&&.&&&&&&&&&&&&&+++&&&.&&&===@@@@@@$==$===.===###=$==$==###=======+++===.== ",
" ======++&&&&...&&&&&&&&&&&++&&&&...&&===@@====$==$==...=##===$==$=##========++====...= ",
" ======+&&&&&.&.&&&&&&&&&&&+&&&&&.&.&&===@@====$==$==.=.=#====$==$=#=========+=====.=.= ",
" =%%%%=+&&+&&...&%%%%&%%%%&+&&+&&...&%%%%@@%%%=$==$==...=#====$==$=#====%%%%=+==+==...= ",
" ======++&+&.&&&.&&&&&&&&&&++&+&.&&&.&===@@====$==$=.===.##===$==$=##========++=+=.===. ",
" ======&+++&.&&&.&&&&&&&&&&&+++&.&&&.&===@@====$$$$=.===.=###=$$$$==###=======+++=.===. ",
" ======&&&&&&&&&&&&&&&&&&&&&&&&&&&&&&&===@@============================================ ",
" ===.==&+++&&&.&&&&&&&&&&&&&+++&&&.&&&===@@====$==$===.===###=$==$==###=======+++===.== ",
" ==...=++&&&&...&&&&&&&&&&&++&&&&...&&=========$==$==...=##===$==$=##========++====...= ",
" ==.=.=+&&&&&.&.&&&&&&&&&&&+&&&&&.&.&&=========$==$==.=.=#====$==$=#=========+=====.=.= ",
" ==...=+&&+&&...&%%%%&%%%%&+&&+&&...&%%%%=%%%%=$==$==...=#====$==$=#====%%%%=+==+==...= ",
" =.===.++&+&.&&&.&&&&&&&&&&++&+&.&&&.&=========$==$=.===.##===$==$=##========++=+=.===. ",
" =.===.&+++&.&&&.&&&&&&&&&&&+++&.&&&.&=========$$$$=.===.=###=$$$$==###=======+++=.===. ",
" ======&&&&&&&&&&&&&&&&&&&&&&&&&&&&&&&================================================= ",
"                                                                                        "};
