/* XPM */ 
static const unsigned char * edit_xpm[] = {
"44 20 5 1",
" 	c None",
"!	c black",
"#	c #4A4A4A",
"$	c #808080",
"%	c #C0C0C0",
"                                            ",
"  !!!!!!!!!!!!!!!!!!!!!!!!!!!!!!!!!!!!!!!!  ",
"  !      #                               !  ",
"  !$####$#$#$##$#$##$$#$$##$$##$##$$####$!  ",
"  !      #                               !  ",
"  !######################################!  ",
"  !      #                               !  ",
"  ! #### # # # # # # # # # # # # # # # # !  ",
"  !      # #%%%%%#%#%%%%%%%#%#%%%%%#%#%% !  ",
"  ! #### # # # # # # # # # # # # # # # # !  ",
"  !      # #%%%%%#%#%%%%%%%#%#%%%%%#%#%% !  ",
"  ! #### # # # # # # # # # # # # # # # # !  ",
"  !      # #%%%%%#%#%%%%%%%#%#%%%%%#%#%% !  ",
"  ! #### # # # # # # # # # # # # # # # # !  ",
"  !      # #%%%%%#%#%%%%%%%#%#%%%%%#%#%% !  ",
"  ! #### # # # # # # # # # # # # # # # # !  ",
"  !      # #%%%%%#%#%%%%%%%#%#%%%%%#%#%% !  ",
"  ! #### # # # # # # # # # # # # # # # # !  ",
"  !      #                               !  ",
"  !!!!!!!!!!!!!!!!!!!!!!!!!!!!!!!!!!!!!!!!  "};