/* XPM */
static char * editor_xpm[] = {
"88 24 33 1",
" 	c None",
".	c #5B13E4",
"+	c #FD0034",
"@	c #F801F2",
"#	c #AC4B4A",
"$	c #A64EE0",
"%	c #6365DF",
"&	c #BC7246",
"*	c #7B7EC5",
"=	c #918094",
"-	c #BA7978",
";	c #40A258",
">	c #839060",
",	c #D673A9",
"'	c #B87EDE",
")	c #C09C24",
"!	c #90C133",
"~	c #62C9A1",
"{	c #B3B3F1",
"]	c #DBB6B7",
"^	c #C6BED7",
"/	c #C1CCBA",
"(	c #DFCE67",
"_	c #DECC80",
":	c #F5DD27",
"<	c #A8FC00",
"[	c #B4E6F3",
"}	c #E1E0D7",
"|	c #C8F760",
"1	c #DAF29A",
"2	c #EFF0C5",
"3	c #EFF7DE",
"4	c #F6F8F4",
"                                                                                        ",
" 333():::):::!!!:&$&&333333331>=!!<.!<<<<<<.!(<!.<|3333)[//[.*[[;[~//[_[;[~43332.'{}3.} ",
" 333():::):::;:::.:::333333331.<<<<*%<<<<<>><<<**!|3333)[//{%.4;[[[//[_~~[[43334$323*%% ",
" }}}():::):::;:::.:(-3}}}3}}}1$<!!><.<|||<=!<=<%!*|}}}3)[//%{.[;^^=//[_~[=-4}}}^$&'3.3. ",
" 333():::):::;:::')('333333331$<_(%>=;<<<<!$<.!*;.|4333)[/2.%%*~>==//[_[;=#43333.&.}.*. ",
" 333(:):::):::;;::$$&333333331<$$!!<<%<<<<<-$,;<<=14333[(_[*/^.};;~[)([^>;~43333,..{=2= ",
" 4442((((((((((((((((444444442&&:(&#))||||)-))!#))14444###^]]]}=##^--=-^##=4344}#&&3]]] ",
" 4444444444444444444444444444444]4]4]44444^4}444}^444444444---]]-#4}4]44##444444#-}4#-- ",
" 4{344{34243}4/~42443424344{43|{'11^11111112'^11{12444424}}4{44^/~[}}4}4}>/44444}''34{4 ",
" ^.333.33)4_2~~23(22_3)4_23.41=><|<.;<<<<<<.<!<!.<|3333)[//[.*[[;[[//[_[;[~43332.^^}3.} ",
" %%^3%**3)422;333(33_3)4_2**%1.<<<!>%<<<<<=!<<<*=!|3333)[//{%.4;[[[//[_~~[[4333^$333**% ",
" .{.3.^.3)422;333(33_3)4_2.4.1.<_!>!.<!11|=!<$<.!*|}}}3)[//%{.[;^^=//[_~[=-4}}}^$&$3.4. ",
" *^.}%^.4)3_2;243(22_3)4_2%^.1'!>(%!>><<<<<.<.!>!.|3333)[/2.{%%~>-=/_[_[;-#43332.&.}%^. ",
" 24**32^^2(_33~;23(_33_(_^}3^=<='!!<<=<<<<<)'>!<<>14333[_2[,--%[>;~[__[[>;~43333]$$^-&- ",
" -##44434444444444444]-##}###2#&)_&-&_1111&-&&_-&&24444###]}]]4-##]#---]##-4444}###4]]] ",
" 4444444444444444444444444444444444444444444444444444444444---]]]#444444##444444#-44--- ",
" 4442_(((_((((~~(('$_4444444444'$4444+++++4{$'4{$'44444_[}/4*[[4~~///[2[/~~44444^$$44%4 ",
" 444_):::):::;:::,&::444444444${44444+++++4.444.4444444)[//[.%[~~[[//[_[;[[[4444.4444.^ ",
" 444_):::):::;:::.:::444444444.444444++444${44''4444444)[//{*.[;[[[//[_~[[[[444^$444%{% ",
" /}}_):::):::;:::.:(,4/}}4/}/3.4''}}^++^}}${4.{'4.4^}}4)[/2%%.[;^^=//[_~/=#[}}^^$&$4.{. ",
" 444_):):):::!!::-,_,444444444$'''444++4444.4.4.4.44444_//2.[{%/;-=/_[_^;=#[4443.#.^%4% ",
" 444_:::::::::!!::&-:444444444}'']444++4444-',4]''44444[//[###*[->[[-2^[=>~[4444]''^### ",
" 44443333333333333333444444444#-#}444++444-]#-]]##44444---}]]]4-##]#]#-]##-44444###4]]] ",
"                                                                                        "};
