/* XPM */
static char *equal[]={
"24 16 16 1",
". c #008000",
"f c #0a850a",
"h c #118811",
"i c #158a15",
"g c #1c8e1c",
"k c #239123",
"l c #2a952a",
"# c #359a35",
"j c #399c39",
"n c #46a346",
"b c #59ab59",
"c c #5faf5f",
"m c #70b870",
"a c #8ec68e",
"e c #9fcf9f",
"d c #ffffff",
"........................",
"........................",
"........................",
"........................",
".....#aaaaaaaaaaab......",
".....cddddddddddde......",
".....cddddddddddde......",
".....fgggggggggggh......",
"........................",
".....ijjjjjjjjjjjk......",
".....cddddddddddde......",
".....cddddddddddde......",
".....lmmmmmmmmmmmn......",
"........................",
"........................",
"........................"};
