/* XPM */
static char *exit[]={
"16 16 145 2",
"Qt c None",
".# c #a11708",
".m c #a41a0c",
".A c #a41a0d",
"an c #a51f10",
".l c #9f1005",
"ai c #9f1105",
".a c #a01105",
"am c #a01201",
".P c #a01205",
"ao c #a11703",
"#4 c #a21705",
"aa c #a21905",
"#U c #a21907",
"#M c #a21b09",
"#G c #a51d0c",
"#z c #a51f0e",
"#r c #a52110",
"#k c #a72312",
"#a c #a72413",
".z c #a72718",
".2 c #a82b19",
".j c #aa2e20",
".i c #ac3120",
".h c #ac3122",
".k c #ac3421",
"#5 c #ac3422",
".g c #ac3423",
".f c #ac3525",
".d c #ae3829",
".e c #af3526",
".c c #af3829",
".Q c #b03f2f",
".b c #b14030",
".C c #b23e18",
".S c #b8522c",
".D c #b8532e",
".E c #b95831",
".T c #bb5e37",
".F c #bc5c36",
".G c #bd6038",
".J c #c06b43",
"#c c #c26d46",
".K c #c26e48",
"#m c #c3714a",
".U c #c46b49",
".L c #c4724b",
"#t c #c4744d",
".M c #c4754e",
"#7 c #c5764f",
"#f c #c57750",
".o c #c6714c",
".N c #c67953",
".Z c #c67b54",
".3 c #c77753",
".p c #c77954",
"al c #c77955",
"ah c #c77c57",
".0 c #c77e57",
"#l c #c87754",
".q c #c87c54",
".R c #c87c57",
".r c #c87e58",
"#v c #c8815a",
"#. c #c8825c",
".t c #c98159",
"#C c #c98560",
"#i c #c98661",
".s c #ca8158",
".Y c #ca815d",
".v c #ca875c",
"#I c #ca8862",
"#p c #ca8963",
".w c #ca8a5e",
"#V c #ca8a5f",
"#H c #cc815e",
".u c #cc855a",
"#6 c #cc8a5f",
".9 c #cd8863",
".x c #ce8f63",
"#W c #cf8b6a",
"ac c #cf926e",
"## c #cf9469",
".1 c #d09468",
"#q c #d0976d",
"#j c #d1956b",
"#y c #d19b72",
"#F c #d29d76",
".H c #d39173",
"#K c #d39977",
".O c #d39e72",
"#9 c #d49e7f",
"#T c #d4a17d",
".I c #d59376",
"#S c #d59e7f",
"#2 c #d5a283",
".y c #d5a576",
"ab c #d5a677",
"#L c #d79f79",
"#x c #d7a07f",
"aj c #d7a582",
"a# c #d7a585",
"#3 c #d7a685",
"#s c #d8997b",
"#A c #d89b7e",
"#1 c #d9a185",
"af c #d9a88b",
"a. c #daa98d",
"#N c #dba285",
"ak c #dbb092",
".5 c #dca288",
"#E c #dcac90",
".B c #dcb492",
".n c #ddb593",
"ad c #e1b195",
"ae c #e1b59a",
"#b c #e2ab93",
"#X c #e2b39a",
".6 c #e3b097",
"#Y c #e3b59b",
"#g c #e5b59e",
"ag c #e5c8ae",
"#Q c #e9c0a9",
"#w c #ecc5b1",
"#D c #edc7b2",
"#e c #eec6b3",
"#h c #f0cdba",
"#P c #f1cfbc",
"#d c #f2cfbd",
".X c #f3d0bf",
".V c #f7d4c5",
".4 c #f8d7c8",
"#R c #f9ded0",
"#O c #fadfd1",
"#Z c #fce4d5",
"#8 c #fde7da",
".7 c #ffefe5",
"#n c #fff0e6",
"#u c #fff0e7",
"#B c #fff1e7",
"#o c #fff2e8",
"#J c #fff5ec",
".8 c #fffaf3",
"#0 c #fffff9",
".W c #ffffff",
"Qt.#.a.b.c.d.e.f.g.h.i.j.k.l.mQt",
".#.c.n.o.p.q.r.s.t.u.v.w.x.y.z.A",
".a.B.C.D.E.F.G.H.I.J.K.L.M.N.O.P",
".Q.R.S.T.U.V.W.W.W.W.X.Y.Z.0.1.2",
".c.3.E.U.W.W.4.5.6.7.W.8.9#.###a",
".d.q.F.V.W#b#c#d#e#f#g.W#h#i#j#k",
".e.r#l.W.4#c#m.7#n.Z.0#o.W#p#q#r",
".f.s.H.W#s#m#t#n#u.0#v#w.W#x#y#z",
".g.t.I.W#A#t#f#u#B#v#C#D.W#E#F#G",
".h.u#H.W.X#f.Z#B#o#C#I#J.W#K#L#M",
".i.v.K.7.W#N.0#O#P#I#Q.W#R#S#T#U",
".j#V.L#W.W.W#O#X#Y#Z.W#0#1#2#3#4",
"#5#6#7.Z.9#O.W.W.W.W#8#1#9a.a#aa",
".lab.N.0#.#iacadae#K#S#2afagahai",
".m.z.O.1###j#q#y#F#L#Tajakalaman",
"Qt.A.P.2#a#k#r#z#G#M#U#4aoaianQt"};
