/* XPM */
static char *helixText[]={
"120 19 5 1",
". c None",
"# c #2253ad",
"b c #c00000",
"c c #daecf4",
"a c #e3360e",
"........................................................................................................................",
"...##......................................................#####........................................................",
"...##.............................#######................###..a###......................................................",
"...a##...........................##.a...###.............##a...a.###.....................................................",
"...a.##..........................#..a...a.###..........##.a...a...a.....................................................",
"...a..##..........#####.........#a..a...a...##........##..a...a...a....bbb...bbb..bbbbbbb..bbb......bbb..bb.....bb......",
"...a..a##.......###a..###......##a..a...a...a##......##a..a...a...a....bbb...bbb..bbbbbbb..bbb......bbb..bbb...bbb......",
"...a..a.##....###..ac.a.###....#.a..a...a...a.##....##.a..a...a...a....bbb...bbb..bbb......bbb......bbb..bbbb.bbbb......",
"...a..a..#...##.a..a..a..a##..##.a..a...a...a..##..##..ac.a...a...a....bbb...bbb..bbb......bbb......bbb...bbbbbbb.......",
"...a..a..##.##..a..a..a..a.####..a..a...a...a...####...a..a...a...a....bbbbbbbbb..bbbbbbb..bbb......bbb....bbbbb........",
"...a..a...###...a..a..a..a..##...ac.a...a...a....###...a..a...a...a....bbbbbbbbb..bbbbbbb..bbb......bbb....bbbbb........",
"...a..a...##....a..a..a..a..###..ac.a...a...a...##.##..a..a...a...a....bbb...bbb..bbb......bbb......bbb...bbbbbbb.......",
"...a..a..####...a..a..a..a.##.##.a..a...a...a..##...##.a..a...a...a....bbb...bbb..bbb......bbb......bbb..bbbb.bbbb......",
"...a..a.##..##..a..a..a..a##...##a..a...a...a.##......##..a...a...a....bbb...bbb..bbbbbbb..bbbbbbb..bbb..bbb...bbb......",
"...a..a##....###a..a..a..##.....##..a...a...a##.........####..a.###....bbb...bbb..bbbbbbb..bbbbbbb..bbb..bb.....bb......",
"...a.###......###..a..a.##.......####...a..###.............#######......................................................",
"...a.#.........###.a..##............########............................................................................",
"...###...........######.................................................................................................",
"...##..................................................................................................................."};
