/* XPM */
static char *helixText[]={
"120 19 5 1",
". c None",
"# c #2253ad",
"c c #c00000",
"a c #daecf4",
"b c #e3360e",
"........................................................................................................................",
"...##aaaaaaaaaaaaaaaaaaaaaaaaaaaaaaaaaaaaaaaaaaaaaaaaaaaaaa#####aaa.....................................................",
"...##aaaaaaaaaaaaaaaaaaaaaaaaaaaaa#######aaaaaaaaaaaaaaaa###aab###a.....................................................",
"...b##aaaaaaaaaaaaaaaaaaaaaaaaaaa##abaaa###aaaaaaaaaaaaa##baaaba###.....................................................",
"...ba##aaaaaaaaaaaaaaaaaaaaaaaaaa#aabaaaba###aaaaaaaaaa##abaaabaaab.....................................................",
"...baa##aaaaaaaaaa#####aaaaaaaaa#baabaaabaaa##aaaaaaaa##aabaaabaaab....ccc...ccc..ccccccc..ccc......ccc..cc.....cc......",
"...baab##aaaaaaa###baa###aaaaaa##baabaaabaaab##aaaaaa##baabaaabaaab....ccc...ccc..ccccccc..ccc......ccc..ccc...ccc......",
"...baaba##aaaa###aabaaba###aaaa#abaabaaabaaaba##aaaa##abaabaaabaaab....ccc...ccc..ccc......ccc......ccc..cccc.cccc......",
"...baabaa#aaa##abaabaabaab##aa##abaabaaabaaabaa##aa##aabaabaaabaaab....ccc...ccc..ccc......ccc......ccc...ccccccc.......",
"...baabaa##a##aabaabaabaaba####aabaabaaabaaabaaa####aaabaabaaabaaab....ccccccccc..ccccccc..ccc......ccc....ccccc........",
"...baabaaa###aaabaabaabaabaa##aaabaabaaabaaabaaaa###aaabaabaaabaaab....ccccccccc..ccccccc..ccc......ccc....ccccc........",
"...baabaaa##aaaabaabaabaabaa###aabaabaaabaaabaaa##a##aabaabaaabaaab....ccc...ccc..ccc......ccc......ccc...ccccccc.......",
"...baabaa####aaabaabaabaaba##a##abaabaaabaaabaa##aaa##abaabaaabaaab....ccc...ccc..ccc......ccc......ccc..cccc.cccc......",
"...baaba##aa##aabaabaabaab##aaa##baabaaabaaaba##aaaaaa##aabaaabaaab....ccc...ccc..ccccccc..ccccccc..ccc..ccc...ccc......",
"...baab##aaaa###baabaabaa##aaaaa##aabaaabaaab##aaaaaaaaa####aaba###....ccc...ccc..ccccccc..ccccccc..ccc..cc.....cc......",
"...ba###aaaaaa###aabaaba##aaaaaaa####aaabaa###aaaaaaaaaaaaa#######a.....................................................",
"...ba#aaaaaaaaa###abaa##aaaaaaaaaaaa########aaaaaaaaaaaaaaaaaaaaaaa.....................................................",
"...###aaaaaaaaaaa######aaaaaaaaaaaaaaaaaaaaaaaaaaaaaaaaaaaaaaaaaaaa.....................................................",
"...##aaaaaaaaaaaaaaaaaaaaaaaaaaaaaaaaaaaaaaaaaaaaaaaaaaaaaaaaaaaaaa....................................................."};
