/* XPM */
static char *less[] = {
/* columns rows colors chars-per-pixel */
"42 8 2 1 ",
"  c none",
". c black",
/* pixels */
"   .   .   .     ..    .....  .....  .....",
"  .   .   .      ..    ..    ..     ..    ",
" .   .   .       ..    ..    ..     ..    ",
".   .   .        ..    ..... .....  ..... ",
".   .   .        ..    ..     .....  .....",
" .   .   .       ..    ..        ..     ..",
"  .   .   .      ..    ..        ..     ..",
"   .   .   .     ..... ..... .....  ..... "
};
