/* XPM */
static char *more[] = {
/* columns rows colors chars-per-pixel */
"45 8 2 1 ",
"  c gray100",
". c black",
/* pixels */
"..     ..  .....  .....   .....  .   .   .   ",
"...   ... ..   .. ..  ..  ..      .   .   .  ",
".... .... ..   .. ..  ..  ..       .   .   . ",
". .... .. ..   .. ..  ..  .....     .   .   .",
".  ..  .. ..   .. .....   ..        .   .   .",
".      .. ..   .. .. ..   ..       .   .   . ",
".      .. ..   .. ..  ..  ..      .   .   .  ",
".      ..  .....  ..   .. .....  .   .   .   "
};
