/* XPM */
static char *moveAllRight[] = {
/* columns rows colors chars-per-pixel */
"17 17 2 1 ",
"  c none",
". c black",
/* pixels */
"          .      ",
"          ..     ",
"          ...    ",
"          ....   ",
" ..............  ",
" ............... ",
" ..............  ",
"          ....   ",
" ........ ... .. ",
" ........ .. ..  ",
"          . ..   ",
" ........  .. .. ",
" ........ .. ..  ",
"          . ..   ",
"           ..    ",
"          ..     ",
"          .      "
};
