/* XPM */
static char *Exit[]={
"18 18 199 2",
"Qt c None",
".r c #a72616",
".# c #a72718",
".c c #a62414",
".H c #a62313",
".a c #a62314",
".X c #a62213",
".b c #a62214",
"b# c #a92b17",
"be c #a92b18",
"ba c #ad3622",
".G c #ad3722",
".q c #ad3823",
".d c #b03e2c",
"bd c #b13f26",
"a3 c #b14026",
".W c #b8573b",
".p c #bb5d41",
".e c #c16a53",
"aR c #b75135",
"aK c #b95538",
".J c #b95732",
"aw c #b95839",
"ah c #ba593a",
".K c #ba5a36",
"bc c #ba5a3a",
"b. c #bb5a3d",
"#7 c #bb5b3b",
"bb c #bb5d3c",
"#V c #bb5d3d",
".Z c #bb5e38",
".L c #bb5f39",
".9 c #bc5f3a",
"#J c #bc5f3e",
"#y c #bc6140",
"#k c #bc6242",
".u c #bd623f",
".8 c #bd6544",
".Y c #be623f",
".v c #be6440",
".w c #bf6742",
".x c #c06944",
".y c #c06b46",
".I c #c06b49",
".t c #c16a49",
".M c #c16c48",
"#B c #c16e47",
".z c #c16e48",
".o c #c16e4f",
".n c #c26f50",
".A c #c2704a",
".m c #c27051",
"#8 c #c27153",
"a4 c #c2724f",
".F c #c27250",
"#m c #c36f4c",
"#M c #c3714a",
".l c #c37153",
".k c #c37254",
"ai c #c3734c",
".B c #c3734d",
".j c #c47356",
".i c #c47357",
"#Y c #c4744d",
".S c #c4744e",
"#l c #c47459",
".h c #c4745a",
"ay c #c4754e",
".C c #c4754f",
".g c #c4755b",
"ax c #c4764f",
".T c #c47750",
"#p c #c57551",
".D c #c57851",
".U c #c57b53",
".5 c #c57b54",
".f c #c6785e",
".R c #c67953",
"#s c #c67b55",
"aS c #c67d56",
".E c #c67d57",
"#L c #c77956",
"#X c #c77d59",
".6 c #c77e57",
".V c #c77f58",
".7 c #c78059",
"a5 c #c7805a",
"#R c #c7815a",
"#C c #c87c56",
".s c #c87d63",
"#F c #c88059",
"#i c #c8815b",
"aT c #c8825c",
"#j c #c8835c",
"#N c #c97e59",
"aj c #c9805d",
"#Q c #c9835d",
"#x c #c9855e",
"#3 c #c9855f",
"#I c #c98761",
"#Z c #ca815d",
"a# c #ca855f",
"an c #ca8560",
"#2 c #ca8661",
"ad c #ca8962",
"ac c #cb8a64",
"#U c #cb8a65",
"#w c #cb8b66",
"aq c #cc8b66",
"#6 c #cd8e6a",
"aU c #cd8f6b",
"#c c #ce8767",
"#d c #cf8b6b",
"a9 c #cf9074",
"a6 c #cf916e",
"a2 c #cf9174",
"ag c #cf926e",
"a7 c #d09473",
"av c #d09573",
"am c #d19372",
"aJ c #d19778",
"aQ c #d2997c",
".Q c #d39475",
"a8 c #d3997c",
"aC c #d39a7a",
"aD c #d39b7a",
"a0 c #d39c7d",
"aI c #d39d7c",
".N c #d49276",
".4 c #d49b7d",
".0 c #d5987d",
"au c #d59e7e",
"aZ c #d59f7f",
"aP c #d5a082",
"#. c #d69a80",
"#h c #d6a083",
"#t c #d7a082",
"a1 c #d7a589",
"#S c #d8a284",
"#H c #d8a485",
"#z c #d99f85",
"#4 c #d9a587",
"ar c #d9aa8d",
"#A c #daa48a",
"a. c #dca990",
"af c #ddae93",
"#9 c #dfab91",
"#b c #dfad97",
"az c #dfae96",
"aB c #dfb199",
"aV c #dfb297",
"aH c #dfb49b",
"aL c #e0b39b",
"aY c #e1b69d",
"aO c #e1b8a0",
".P c #e3b49f",
".O c #e4b5a0",
"#T c #e4baa1",
"aE c #e4bea8",
"#r c #e4c0ae",
"#e c #e5bba6",
"#5 c #e5bda5",
"#K c #e6c0af",
"#W c #e7c2b1",
"#G c #e7c3af",
"ae c #e8c7b2",
"ap c #e9cab9",
"aW c #ebcebb",
"aX c #eccebb",
"#q c #eccebf",
"#E c #eed5c8",
"#P c #efd6ca",
"#1 c #efd8cb",
"ab c #efd9cc",
"ao c #f0d8ca",
"#v c #f6e6dd",
"#D c #f7e5dc",
"#O c #f7e6dd",
"#o c #f7e8e1",
"#a c #f7e9e2",
"#0 c #f8e6de",
"aa c #f8e7df",
".3 c #f8e8e0",
"al c #f8eae4",
".1 c #faede7",
"at c #faefe8",
"#n c #faf1ed",
"#f c #faf2ed",
"aF c #faf4ef",
"as c #faf5f0",
"aN c #fbf0e9",
"aM c #fbf2ed",
"#u c #fbf4f0",
"ak c #fbf5f3",
"#g c #fbf7f4",
"## c #fcf7f5",
"aG c #fcf9f7",
"aA c #fdfaf8",
".2 c #ffffff",
"QtQt.#.a.b.b.b.b.b.b.b.b.b.b.a.#QtQt",
"Qt.c.d.e.f.g.h.i.j.k.l.m.n.o.p.q.cQt",
".r.d.s.t.u.v.w.x.y.z.A.B.C.D.E.F.G.r",
".H.e.I.J.K.L.M.N.O.P.Q.R.S.T.U.V.W.H",
".X.f.Y.K.Z.0.1.2.2.2.2.3.4.5.6.7.8.X",
".X.g.v.9#.###a#b#c#d#e#f#g#h#i#j#k.X",
".X#l.w#m#n#o#c#p#q#r#s#t#u#v#w#x#y.X",
".X.i.x#z.2#A#B#C#D#E#F.7#G.2#H#I#J.X",
".X.j.y#K.2#L#M#N#O#P#Q#R#S.2#T#U#V.X",
".X.k.z#W.2#X#Y#Z#0#1#2#3#4.2#5#6#7.X",
".X#8.A#9.2a..Ta#aaabacadae.2afagah.X",
".X.maiajakalamanaoapaqarasatauavaw.X",
".X.naxayazaA#aaBaCaDaEaFaGaHaIaJaK.X",
".X.o.D.T.5aLaM.2.2.2.2aNaOaIaPaQaR.X",
".H.paS.U.6aTaUaVaWaXaYaZa0aPa1a2a3.H",
".r.qa4.Va5#j#x#I#U#6a6a7aJa8a9b.b#.r",
"Qt.cba.W.8#k#y#Jbb#7bcawaKaRbdbe.cQt",
"QtQt.#.a.b.b.b.b.b.b.b.b.b.b.a.#QtQt"};
