/* XPM */
static char *quit[]={
"19 18 6 1",
". c None",
"# c #ff0000",
"d c #ff3f3f",
"a c #ff7f7f",
"b c #ffbfbf",
"c c #ffffff",
".#################.",
"###################",
"######abcccad######",
"#####bcccccccd#####",
"####bcca##dbccd####",
"###bcb##aca#dccd###",
"###ccd##aca##bca###",
"##acb###aca##dcc###",
"##aca###aca###cc###",
"##aca###aca###cc###",
"##dcc###aca##acb###",
"###cca##aca##cca###",
"###dcca####dbcb####",
"####dcccaabccb#####",
"#####dccccccb######",
"#######daaa########",
"###################",
".#################."};
