/* XPM */
static char * refresh_xpm[] = {
"19 19 3 1",
" 	c None",
".	c #088B08",
"+	c #FFFFFF",
"      .......      ",
"    ...........    ",
"   .............   ",
"  ...............  ",
" .....++++........ ",
" ....++++......... ",
"....+++......++....",
"...+++.....++++....",
"...++....++++++....",
"...++....++++++....",
"...++.....+++++....",
"....++....+++++....",
"....+++..++++++....",
" ....++++++..+.... ",
" .....++++........ ",
"  ...............  ",
"   .............   ",
"    ...........    ",
"      .......      "};
