/* XPM */
static char *refresh[]={
"18 18 20 1",
". c None",
"g c #00ff00",
"i c #01fb01",
"j c #01fe01",
"m c #06e506",
"e c #07e007",
"f c #08dc08",
"h c #09d509",
"l c #0ad20a",
"o c #0bcb0b",
"c c #0cc90c",
"d c #0cca0c",
"p c #13a313",
"r c #179517",
"k c #206a20",
"q c #216421",
"b c #264826",
"n c #264c26",
"a c #545454",
"# c #575757",
".#aaaaaaaaaaaaaa#.",
"#aaaaaaaaaaaaaaaa#",
"aaaaaaaaaaaaaaaaaa",
"aaaaaaaabaaaaaaaaa",
"aaacaadefedaaaaaaa",
"aaaghijkakjiaaaaaa",
"aaaglmnaaanopaaaaa",
"aaagjiqaaaaajaaaaa",
"aaacgggraaaaaaaaaa",
"aaaaaaaaaargggcaaa",
"aaaaajaaaaaqijgaaa",
"aaaaaponaaanmlgaaa",
"aaaaaaijkakjihgaaa",
"aaaaaaadefedaacaaa",
"aaaaaaaaabaaaaaaaa",
"aaaaaaaaaaaaaaaaaa",
"#aaaaaaaaaaaaaaaa#",
".#aaaaaaaaaaaaaa#."};
