/* XPM */
static char *[] = {
/* width height ncolors chars_per_pixel */
"32 32 513 2",
/* colors */
"   c #9999AA",
" . c #8081A2",
" X c #8D97B2",
" o c #3E4C75",
" O c #A4A4C2",
" + c #CCCCDC",
" @ c #DFDFE8",
" # c #686A91",
" $ c #DDDDE6",
" % c #394870",
" & c #97A5BF",
" * c #7B7B9D",
" = c #B3B3CA",
" - c #9E9EBC",
" ; c #95A3BD",
" : c #171752",
" > c #7C7C94",
" , c #8989AE",
" < c #5B698E",
" 1 c #36446D",
" 2 c #2A2A5E",
" 3 c #C4C4D4",
" 4 c #151550",
" 5 c #59678C",
" 6 c #BCC5D6",
" 7 c #C2C2D2",
" 8 c #606089",
" 9 c #57658A",
" 0 c #ADADC4",
" q c #324069",
" w c #BAC3D4",
" e c #CED4E1",
" r c #7988A8",
" t c #373B64",
" y c #8181A6",
" u c #CBD2DE",
" i c #7786A6",
" p c #A8A9BF",
" a c #DFE3EB",
" s c #595C82",
" d c #2F3066",
" f c #A5A5BC",
" g c #B5B5CF",
" h c #9090AE",
" j c #7280A1",
" k c #C8C8DB",
" l c #DBDBE7",
" z c #26345D",
" x c #9C9CBD",
" c c #050540",
" v c #223059",
" b c #7B8CAD",
" n c #EAEAEF",
" m c #6B789A",
" M c #8E9DB9",
" N c #7F89A7",
" B c #D1D1DD",
" V c #B9B9D6",
" C c #BCBCCF",
" Z c #9FACC3",
" A c #CFCFDB",
" S c #202057",
" D c #1B2852",
" F c #B3BDD0",
" G c #A5A5BF",
" H c #1E1E55",
" J c #9090B1",
" K c #C6CEDC",
" L c #B8B8CB",
" P c #565682",
" I c #A3A3BD",
" U c #B3B3D0",
" Y c #1C1C53",
" T c #C4CCDA",
" R c #B6B6C9",
" E c #D8DDE7",
" W c #A0A1BA",
" Q c #284479",
" ! c #95A0B9",
" ~ c #435179",
" ^ c #8486A5",
" / c #6D6F95",
" ( c #BABAD0",
" ) c #E2E2EA",
" _ c #8080A1",
" ` c #627094",
" ' c #555884",
" ] c #8595B3",
" [ c #616E93",
" { c #1C1C56",
" } c #98A6BF",
" | c #8393B1",
".  c #1A1A54",
".. c #7F7F96",
".X c #B4B4CA",
".o c #ACB7CC",
".O c #C7C7D6",
".+ c #50527F",
".@ c #B2B2C8",
".# c #AAB5CA",
".$ c #9D9DBA",
".% c #C5C5D4",
".& c #BDC6D6",
".* c #AEAEC4",
".= c #ADAEC3",
".- c #CFD5E1",
".; c #9797B4",
".: c #203C74",
".> c #E2E6ED",
"., c #AAAAC0",
".< c #A5A5C5",
".1 c #B8B8D1",
".2 c #A3A3C3",
".3 c #7583A3",
".4 c #CBCBDD",
".5 c #A1A1C1",
".6 c #8F8FAC",
".7 c #6B7EA3",
".8 c #EDEDF1",
".9 c #C3C3D5",
".0 c #5F618A",
".q c #C1C1D3",
".w c #8F9EB9",
".e c #ACACC5",
".r c #D4D4DF",
".t c #9797B7",
".y c #A3AFC6",
".u c #727296",
".i c #75758F",
".p c #D2D2DD",
".a c #232359",
".s c #B6C0D2",
".d c #8C9AB6",
".f c #8B98B5",
".g c #B4BED0",
".h c #BBBBCD",
".j c #A6A6BF",
".k c #C7CFDC",
".l c #B9B9CB",
".z c #DBE0E9",
".x c #18366F",
".c c #4D5C82",
".v c #414273",
".b c #7A7AA1",
".n c #A0A0B9",
".m c #3E3E70",
".M c #48567D",
".N c #9E9EB7",
".B c #96A1B9",
".V c #FEFEFE",
".C c #9C9CB5",
".Z c #9D9DAC",
".A c #677598",
".S c #E5E5EC",
".D c #A8A8C4",
".F c #D0D0DE",
".G c #9393B6",
".H c #474B72",
".J c #E3E3EA",
".K c #647395",
".L c #8898B5",
".P c #7385A7",
".I c #11143D",
".U c #9191B4",
".Y c #10143C",
".T c #637194",
".R c #9CA9C2",
".E c #AFBACE",
".W c #9AA7C0",
".Q c #CACAD8",
".! c #ADB8CC",
".~ c #C8C8D6",
".^ c #C0C9D8",
"./ c #727C9C",
".( c #BFC7D7",
".) c #B1B1C6",
"._ c #D2D8E3",
".` c #E6E9F0",
".' c #AAAAC9",
".] c #ADADC2",
".[ c #9798B3",
".{ c #7988A6",
".} c #A4A4C3",
".| c #F2F2F5",
"X  c #9090AC",
"X. c #9393A5",
"XX c #DBDBE5",
"Xo c #D9D9E3",
"XO c #93A1BC",
"X+ c #77779A",
"X@ c #D7D7E1",
"X# c #9A9AB9",
"X$ c #A6B2C8",
"X% c #BDBDD8",
"X& c #26265B",
"X* c #A4B0C6",
"X= c #C0C0D1",
"X- c #11114D",
"X; c #ABABC3",
"X: c #B8C1D3",
"X> c #BEBECF",
"X, c #0F0F4B",
"X< c #A9A9C1",
"X1 c #CBD2DF",
"X2 c #526186",
"X3 c #0D0D49",
"X4 c #2C3A64",
"X5 c #C9D0DD",
"X6 c #0B0B47",
"X7 c #293861",
"X8 c #090945",
"X9 c #54587E",
"X0 c #070743",
"Xq c #9AA4BC",
"Xw c #6E7C9E",
"Xe c #C4C4D8",
"Xr c #9F9FB7",
"Xt c #526893",
"Xy c #D7D7E4",
"Xu c #9A9ABC",
"Xi c #03033F",
"Xp c #EAEAF0",
"Xa c #6A789A",
"Xs c #697699",
"Xd c #89899E",
"Xf c #9696B8",
"Xg c #1E2C56",
"Xh c #8C9BB8",
"Xj c #E6E6EC",
"Xk c #1D2C55",
"Xl c #667496",
"Xz c #6D7193",
"Xx c #8A99B6",
"Xc c #202058",
"Xv c #BABACE",
"Xb c #9DAAC2",
"Xn c #CDCDDA",
"Xm c #B1BBCF",
"XM c #CBCBD8",
"XN c #1C1C54",
"XB c #C2CAD9",
"XV c #8291AE",
"XC c #8A8AAC",
"XZ c #12316B",
"XA c #818FAD",
"XS c #B2B2C6",
"XD c #ADADCB",
"XF c #9B9BB6",
"XG c #919CB6",
"XH c #9797B2",
"XJ c #3F4D76",
"XK c #9595B0",
"XL c #8C96B1",
"XP c #9393AE",
"XI c #B6B6CD",
"XU c #DEDEE7",
"XY c #3A4971",
"XT c #A1A1BF",
"XR c #9EA5BC",
"XE c #C9C9D9",
"XW c #8C8CB1",
"XQ c #96A4BE",
"X! c #181853",
"X~ c #5C6A8F",
"X^ c #A9B5CA",
"X/ c #94A2BC",
"X( c #A8B3C9",
"X) c #3C4069",
"X_ c #A7B3C8",
"X` c #C3C3D3",
"X' c #14144F",
"X] c #797991",
"X[ c #8686AB",
"X{ c #58668B",
"X} c #AEAEC5",
"X| c #BBC4D5",
"o  c #C1C1D1",
"o. c #8484A9",
"oX c #313F68",
"oo c #CED5E1",
"oO c #5D6186",
"o+ c #B9C2D3",
"o@ c #A3ADC4",
"o# c #546287",
"o$ c #CCD3DF",
"o% c #A9AAC0",
"o& c #A8A8BF",
"o* c #585B81",
"o= c #304B7E",
"o- c #333660",
"o; c #A6A6BD",
"o: c #7381A2",
"o> c #A4A4BB",
"o, c #A7A7B4",
"o< c #8E8FAC",
"o1 c #9F9FC0",
"o2 c #2F325C",
"o3 c #B2B2CC",
"o4 c #8D8DAB",
"o5 c #9D9DBE",
"o6 c #060641",
"o7 c #6F7D9E",
"o8 c #8B8BA9",
"o9 c #76789B",
"o0 c #04043F",
"oq c #EBEBF0",
"ow c #8C8CA0",
"oe c #212F58",
"or c #D2D2DE",
"ot c #A0ADC4",
"oy c #A8A8C2",
"ou c #D0D0DC",
"oi c #212158",
"op c #6E6E93",
"oa c #8998B4",
"os c #B6B6D3",
"od c #1F1F56",
"of c #C5CDDB",
"og c #B7B7CA",
"oh c #404273",
"oj c #A2A2BC",
"ok c #D8DEE7",
"ol c #B5B5C8",
"oz c #D7DCE6",
"ox c #1B1E48",
"oc c #EAEDF2",
"ov c #FCFCFD",
"ob c #44527A",
"on c #9A9AB4",
"om c #141841",
"oM c #BDBDD3",
"oN c #637195",
"oB c #E1E1E9",
"oV c #8696B4",
"oC c #99A7C0",
"oZ c #8494B2",
"oA c #606D92",
"oS c #42456E",
"oD c #5F6D91",
"oF c #C8C8D7",
"oG c #5E6B90",
"oH c #ABB6CB",
"oJ c #96A3BD",
"oK c #C6C6D5",
"oL c #64648C",
"oP c #B1B1C7",
"oI c #A9B4C9",
"oU c #C4C4D3",
"oY c #9A9AB7",
"oT c #6D7898",
"oR c #D0D6E2",
"oE c #ADADC3",
"oW c #8387A7",
"oQ c #A8A8C8",
"o! c #E3E7EE",
"o~ c #BBBBD4",
"o^ c #A9A9BF",
"o/ c #9494B1",
"o( c #9294AF",
"o) c #7D81A1",
"o_ c #AAAAB6",
"o` c #F2F2F6",
"o' c #7B7D9F",
"o] c #8E8EAB",
"o[ c #63668E",
"o{ c #EEEEF2",
"o} c #8F8FA2",
"o| c #92A1BC",
"O  c #838DAA",
"O. c #AFAFC8",
"OX c #909FBA",
"Oo c #D5D5E0",
"OO c #A4B0C7",
"O+ c #C0C0D2",
"O@ c #24245A",
"O# c #A2AEC5",
"O$ c #222258",
"O% c #9494B4",
"O& c #B5BFD1",
"O* c #BCBCCE",
"O= c #72728C",
"O- c #A7A7C0",
"O; c #C9D0DE",
"O: c #444776",
"O> c #202056",
"O, c #BABACC",
"O< c #7D7DA4",
"O1 c #C7CEDC",
"O2 c #4E5D83",
"O3 c #A4A5BD",
"O4 c #A3A3BC",
"O5 c #DADFE8",
"O6 c #0C0D35",
"O7 c #49577E",
"O8 c #898AA9",
"O9 c #FFFFFF",
"O0 c #A0A0AF",
"Oq c #181B44",
"Ow c #FDFDFD",
"Oe c #9B9BB4",
"Or c #4C5077",
"Ot c #ABABC7",
"Oy c #E6E6ED",
"Ou c #9494B7",
"Oi c #8184A1",
"Op c #647295",
"Oa c #838399",
"Os c #9090B3",
"Od c #B8B8CD",
"Of c #9BA8C1",
"Og c #8E8EB1",
"Oh c #696990",
"Oj c #B6B6CB",
"Ok c #AEB9CD",
"Ol c #A1A1BD",
"Oz c #C9C9D7",
"Ox c #ACB7CB",
"Oc c #64678B",
"Ov c #ABB5CA",
"Ob c #D3D9E4",
"On c #D1D7E2",
"Om c #7B89A8",
"OM c #9797B3",
"ON c #A7A7C6",
"OB c #7987A6",
"OV c #9393AF",
"OC c #9696A8",
"OZ c #F3F3F6",
"OA c #2F2F64",
"OS c #8792AD",
"OD c #8191B1",
"OF c #181854",
"OG c #DADAE4",
"OH c #94A2BD",
"OJ c #C5C5D6",
"OK c #35436D",
"OL c #D8D8E2",
"OP c #92A0BB",
"OI c #27275C",
"OU c #A5B1C7",
"OY c #12124E",
"OT c #B9C2D4",
"OR c #494C7A",
"OE c #25255A",
"OW c #BFBFD0",
"OQ c #10104C",
"O! c #BDBDCE",
"O~ c #5B5B85",
"O^ c #2D3B65",
"O/ c #CAD1DE",
"O( c #072764",
"O) c #7685A6",
"O_ c #7585A5",
"O` c #0C0C48",
"O' c #9EA9C0",
"O] c #0A0A46",
"O[ c #B2BACD",
"O{ c #A4A4BC",
"O} c #283760",
"O| c #080844",
"+  c #A2A2BA",
"+. c #060642",
"+X c #52557C",
"+o c #25335D",
"+O c #A3A3B1",
"++ c #040440",
"+@ c #6D7B9D",
"+# c #2A2E58",
"+$ c #AEAEC9",
"+% c #8989A8",
"+& c #9999BB",
"+* c #6B799B",
"+= c #C1C1D5",
"+- c #E9E9EF",
"+; c #727498",
"+: c #A9B0C4",
"+> c #D4D4E1",
"+, c #9797B9",
"+< c #697799",
"+1 c #E7E7ED",
"+2 c #63769D",
"+3 c #262A54",
"+4 c #8585A4",
"+5 c #677597",
"+6 c #BDBDD1",
"+7 c #8B9AB7",
"+8 c #5A5D87",
"+9 c #86869B",
"+0 c #12163D",
"+q c #9EABC3",
"+w c #222650",
"+e c #7A84A3",
"+r c #B1BCCF",
"+t c #CCCCD9",
"+y c #1D1D55",
"+u c #B0BACE",
"+i c #1E224C",
"+p c #76809F",
"+a c #1B1B53",
"+s c #8D8DAF",
"+d c #B5B5C9",
"+f c #B0B0CE",
"+g c #D6DCE6",
"+h c #C1C9D8",
"+j c #9E9EB9",
"+k c #D5DAE5",
"+l c #808EAC",
"+z c #B1B1C5",
"+x c #9B9CB6",
"+c c #BDC5D4",
"+v c #909BB5",
"+b c #F8F8FA",
"+n c None",
/* pixels */
"+n+n+n+n+n+n+n+n+n+n+n+n+n+n+n+n+n+n+n+n+n+n+n+n+n+n+n+n+n+n+n+n",
"+n+n+n+n+n+n+n+n+n+n+n+n+n+n+n+n+n+n+n+n+n+n+n+n+n+n+n+n+n+n+n+n",
"+n+n+n+n+n+n+n+n+n+n+n+n+n+n+n+n+n+n+n+n+n+n+n+n+n+n+n+n+n+n+n+n",
"+n+n+n+n.= pO4O{.n.CXHXPo]+%+4 _ *X+.uopOhoL 8O~ Poh d+n+n+n+n+n",
"+n+n+n.*oc.`o!O9O9._._._._O9O9O9O9O9O9O9O9O9O9O9O9.sO[.v+n+n+n+n",
"+n+n+no%.>ozObO9O9O(.: Qo=O9O9O9O9O9O9O9O9O9O9O9O9o|.woWOF+n+n+n",
"+n+n+nO3 a._.-O9O9XZXt+2.PO9O9O9O9O9O9O9O9O9O9O9O9 M+7o) {+n+n+n",
"+n+n+n W.zooO/O9O9.x.7 b+7O9O9O9O9O9O9O9O9O9O9O9O9XxoVXz. +n+n+n",
"+n+n+n+xokO; KO9O9o=oZX/OOO9O9O9O9O9O9O9O9O9O9O9O9 ] iOcX!+n+n+n",
"+n+n+n.[+kofXBO9O9OD F.(X1O9O9O9O9O9O9O9O9O9O9O9O9O_ moO :+n+n+n",
"+n+n+no(On+h.&O9O9O9O9O9O9O9O9O9O9O9O9O9O9O9O9Ow+1+<.Ko* 4+n+n+n",
"+n+n+no< e 6OTO5 E+g+kObOnoR eo$ uX5.kof TXB+c+:XRoNoD+XX'+n+n+n",
"+n+n+nO8X1X:O&XmOk.#X_X*otXboCXQXO.wXh.L |O)+*+5 `oG 5OrOY+n+n+n",
"+n+n+n ^O1.g+u.!X^X$.y Z.R } ;OP M+7oZ ro7XaXl [X~X{o#.HX-+n+n+n",
"+n+n+n . T.EOxoIOUO#+qOf &OHOXoaXVOB j+@+<OpoA < 9X2O2oSOQ+n+n+n",
"+n+n+no'.^oHX(X|o+.s.g+rOvo@Xq !+vXLOSO  N+e+p./oT.cO7X)X,+n+n+n",
"+n+n+no9.&X_.yO9O9O9ovo`oq+1.J @XXOL.rou+t.~oUX=O*.Mob tX3+n+n+n",
"+n+n+n+; wO# ZO9O9+bo{ nOy )XUOGX@or AXM.OX`OW.hog ~XJo-O`+n+n+n",
"+n+n+n /.s+qOf.VOZ.8+-.SoB $XoOo BXn.QoK 7X>O, RXS oXYo2X6+n+n+n",
"+n+n+n # F.WoJ.|X% Vos U+fXD.'ON.}.5o5Xu+,Ou.UOgoE % 1+#O]+n+n+n",
"+n+n+no[+u ;.fXp lXy+>.F +XEOJ.q+6XvOj.@X}X;O- Io&OK q+3X8+n+n+n",
"+n+n+n.0.o.dXAXj.4 kXe+=oM (XI =O..eoy GOl.$oY.;o>oXO^+wO|+n+n+n",
"+n+n+n+8X_+lOmoBo~.1 go3+$Ot.D OXT -X#.tO% J+sXCXrX4X7+iX0+n+n+n",
"+n+n+n 'O'.{.3XXOL.rou+toF 3X=O* Lol+z.]o^ f+ .NonO} zox+.+n+n+n",
"+n+n+n.+.Bo:XwX@oQ.<.2o1 x+&Xf.GOsXW ,X[o. yO<.bXK+o vOqo6+n+n+n",
"+n+n+nORXG+@Xs.p.9O+ COd.XoP 0X<.joj+jXFOMo/ ho4X oeXgom c+n+n+n",
"+n+n+nO: X.A.TXnOz.%o O!.l+d.)oE.,o;+ XrOeXHOV.6o8Xk D.I+++n+n+n",
"+n+n+n.mOi sX9o_o,+OO0.Z  OCX.o}owXd+9Oa.. >X].iO=+0.YO6Xi+n+n+n",
"+n+n+n+nOAXc.  2OIOIX&OEO@.a.aO$oi SO>od H+yXN Y+ao0o0Xi+n+n+n+n",
"+n+n+n+n+n+n+n+n+n+n+n+n+n+n+n+n+n+n+n+n+n+n+n+n+n+n+n+n+n+n+n+n",
"+n+n+n+n+n+n+n+n+n+n+n+n+n+n+n+n+n+n+n+n+n+n+n+n+n+n+n+n+n+n+n+n",
"+n+n+n+n+n+n+n+n+n+n+n+n+n+n+n+n+n+n+n+n+n+n+n+n+n+n+n+n+n+n+n+n"
};
