/* XPM */
static char *unmask[]={
"19 19 4 1",
". c None",
"b c #0000ff",
"# c #00c000",
"a c #ff0000",
"...##..............",
"..####.............",
"#######......aaaaa.",
"########...aaa.....",
".########..a.......",
"..########bbbbbbbbb",
"...########a.......",
"....########.......",
".....########......",
"......########.....",
"......b########....",
"......b#########...",
".aaaaab.#########..",
"aa...abaa#########.",
"aa....b...#########",
".a....b....#######.",
".....bb.....#####..",
".....b.......###...",
"..............#...."};
