/* XPM */
static char *yes[] = {
/* columns rows colors chars-per-pixel */
"14 13 2 1 ",
"  c none",
". c black",
/* pixels */
"              ",
"            ..",
"          ... ",
"         ...  ",
"        ...   ",
"  .    ...    ",
" ...  ...     ",
".........     ",
" .......      ",
"  ......      ",
"   ....       ",
"    ...       ",
"     .        "
};
