/* XPM */ 
static const unsigned char * less_xpm[] = {
"50 18 2 1",
" 	c None",
"!	c black",
"                                                  ",
"                                                  ",
"                                                  ",
"                                                  ",
"                                                  ",
"       !   !   !     !!    !!!!!  !!!!!  !!!!!    ",
"      !   !   !      !!    !!    !!     !!        ",
"     !   !   !       !!    !!    !!     !!        ",
"    !   !   !        !!    !!!!! !!!!!  !!!!!     ",
"    !   !   !        !!    !!     !!!!!  !!!!!    ",
"     !   !   !       !!    !!        !!     !!    ",
"      !   !   !      !!    !!        !!     !!    ",
"       !   !   !     !!!!! !!!!! !!!!!  !!!!!     ",
"                                                  ",
"                                                  ",
"                                                  ",
"                                                  ",
"                                                  "};