/* XPM */ 
static const unsigned char * refresh_xpm[] = {
"19 18 5 1",
" 	c None",
"!	c black",
"#	c #0066CC",
"$	c #99CCFF",
"%	c white",
" ################# ",
"###################",
"###################",
"###################",
"####$##$%%%$#######",
"####%$%%###%$######",
"####%%$#####%$#####",
"####%%$############",
"####%%%$###########",
"############$%%%###",
"#############$%%###",
"######$%#####$%%###",
"#######$%###%%$%###",
"########$%%%$##$###",
"###################",
"###################",
"###################",
" ################# "};