/* XPM */
static char *analyze[]={
"32 32 64 1",
". c None",
"F c #333333",
"2 c #444445",
"o c #4a4a4a",
"I c #4e4e4e",
"M c #4f4f4f",
"O c #535353",
"W c #585858",
"w c #5f5f60",
"H c #6e6e72",
"a c #7c7c80",
"# c #838383",
"E c #88888b",
"Y c #8a6f72",
"J c #8b8b8e",
"N c #909092",
"X c #989898",
"x c #aeaeb6",
"0 c #b27272",
"Z c #bababd",
"1 c #bb4649",
"n c #cbcbd1",
"7 c #ceccd7",
"K c #cecedb",
"6 c #d1d1d9",
"y c #d1d1dd",
"v c #d3d3df",
"L c #d5d3d4",
"z c #d5d5e0",
"5 c #d6d6dd",
"u c #d7d7e1",
"k c #d9d7e0",
"t c #d9d9e3",
"4 c #dadae1",
"R c #dbd9e2",
"A c #dbdbe4",
"B c #dcdce5",
"3 c #dddde3",
"s c #dddde6",
"9 c #dedede",
"C c #dedee7",
"r c #e0e0e8",
"8 c #e1e1e1",
"q c #e3e3ea",
"D c #e4e4eb",
"Q c #e58e94",
"p c #e6e6ec",
"P c #e7b5ba",
"G c #e7e7ee",
"l c #e9e9ef",
"S c #eae8ec",
"m c #ebebef",
"j c #ececf1",
"i c #ededf2",
"V c #ef6165",
"h c #efeff3",
"g c #f2f2f5",
"T c #f34043",
"f c #f5f5f7",
"e c #f5f5f8",
"U c #f71b1c",
"d c #f8f8fa",
"c c #fbfbfc",
"b c #fdfdfe",
".#############################a.",
"#bbcdddefgghhijkllmjiihhhggggfno",
"#bdeghjlpqrstuvwxyyvzutABCrqDpno",
"EbdeghjlpqrstuxFwyyvzutABCrqDGno",
"EbdeghjlpqrstunHxyyvzutABCrqDGnI",
"JbdeghjlpqrstzyaKyyvzutABCrqDGLI",
"JbdeghjlpqrstuvaKyyvzutABCrqDpLM",
"NbdeghjlpqrstuvaKyyvzutABCrqDGLO",
"NbdeghjlpPQLRuvaKyyvzutABCrqDGLO",
"NbdeghjSTUTUVuvaKyyvzutABCrqDGLO",
"NbdeghiTVDrCUVvaKyyvzutABCrqDGLW",
"XbdeghPUSqrsAUPaKyyvzutABCrqDGLW",
"XbdeghUPlqrstQTaKyyvzutABCrqDGLW",
"XbdegVVipqrsAzUYKyyvzutABCrqDGLw",
"XbdegUSlpqrstvQUKyyvzutABCrZrGLw",
"XLXX0UXNNNNJJJaU#EEEEJJJJN1M2xLw",
"XdmSqr3345567nn1Tnnnn7766QTH#kLw",
"XbdeghjlpqrstuyaUnKvvutABUPCDGLw",
"XbdeghjlpqrstzyaVVyvzutBQUCqDGLW",
"XbdeghjlpqrstuvanUKvzutkULrqDGLW",
"Nbdeghjlpqrstuva7VTyzutTVCrqDGLW",
"NbdeghjlpqrstuvaK7TTzuVUsCrqDGLW",
"NbdeghjlpqrstuvaKyvTUUTRBCrqDGLO",
"NbdeghjlpqrstuvaKKyzuuABBCrqDGLO",
"JbdeghjlpqrstuvaKyyvvutABCrqDGLM",
"JbdeghjlpqrstuvaKyyvzutABCrqDGLM",
"JbdeghjlpqrstuvaKyyvzutABCrqDpLI",
"EbdeghjlpqrstuvaKyyvzutABCrqDGnI",
"EbdeghjlpqrstuvaKyyvzutABCrqDGno",
"#bdeghjlpqrstuvaKyyvzutABCrqDGno",
"a88888888888888988888888888888Zo",
".MMMMMMMMMMMMMMMMMMMMMMMMMMMMMI."};
