/* XPM */
static char *circle22[]={
"22 22 32 1",
". c None",
"# c #000000",
"a c #001b1b",
"g c #002929",
"b c #00abab",
"d c #00c300",
"e c #00cb00",
"f c #00cf00",
"m c #00db00",
"i c #00e300",
"c c #00e9e9",
"j c #00ef00",
"l c #00f2f2",
"n c #00f300",
"o c #00fb00",
"k c #00ff00",
"h c #00ffff",
"p c #180018",
"w c #181800",
"u c #2a002a",
"C c #2a2a00",
"r c #540054",
"z c #545400",
"x c #adad00",
"q c #b100b1",
"y c #bdbd00",
"v c #ea00ea",
"D c #eaea00",
"s c #f200f2",
"A c #f2f200",
"t c #ff00ff",
"B c #ffff00",
"...####.......#####...",
".#abccba#.....#def#...",
".gchhhhcg.....#eij#...",
"#bhhhhhhb#.####fjk####",
"#lhhhhhhl#.#defmnknmf#",
"#lhhhhhhl#.#eijnokonj#",
"#bhhhhhhb#.#fjkkkkkkk#",
".gchhhhcg..####nok####",
".pabccbap.....#mnk#...",
"#qqrpprqq#....#fjk#...",
"#stttttts#....#####...",
"#stttttts#............",
"#qttttttq#............",
".uvttttvu.............",
".wpqvvqpw.............",
"#xyzwwzyx#............",
"#ABBBBBBA#............",
"#ABBBBBBA#............",
"#xBBBBBBx#............",
".CDBBBBDC.............",
".#wxDDxw#.............",
"...####..............."};
