/* XPM */
static char *onlyid[]={
"22 22 5 1",
". c none",
"a c #000000",
"c c #00ff00",
"# c #696969",
"b c #ffff00",
".#aaa#a##a##aa##a#.#a#",
"#abbbabaabaabbaabaaaba",
"abaaaabaababaababababa",
"#abbaabbbbabaababababa",
"#aaababaababaabaababa#",
"abbbaabaabaabba#ababa.",
"#aaa##a##a##aa#.#a#a#.",
"........#aa#aaaaa#....",
"........abbabbbbba#...",
"....#a#.abbabbaabba...",
"...#aca#abbabbaabba...",
"...acccaabbabbaabba...",
"...#aca#abbabbaabba...",
"....#a#.abbabbbbba#...",
"........#aa#aaaaa#....",
"...#aa##a##a#a#.#a#a#.",
"..#abbaabaababa.ababa.",
"..abaababbababa.ababa.",
"..abaabababbaba.#aba#.",
"..abaababaababaa#aba..",
"..#abbaabaababbbaaba..",
"...#aa##a##a#aaa##a#.."};
