/* XPM */
static char *markinfo[]={
"22 22 3 1",
". c None",
"# c #000000",
"a c #ffff00",
"......................",
"......................",
"......................",
"#####################.",
"#aa#aa##a##aaaa#a##a#.",
"#aa#aa#a#a#a##a#a#a##.",
"#a#a#a#a#a#aaaa#aa##..",
"#a#a#a#aaa#a#a##a#a##.",
"#a#a#a#a#a#a##a#a##a#.",
"#####################.",
"......................",
"......................",
"..################....",
"..#a#a##a#aaa##aa##...",
"..#a#aa#a#a###a##a#...",
"..#a#aaaa#aaa#a##a#...",
"..#a#a#aa#a###a##a#...",
"..#a#a##a#a#.##aa##...",
"..##########..####....",
"......................",
"......................",
"......................"};
