/* XPM */
static char *detail[] = {
/* columns rows colors chars-per-pixel */
"18 10 2 1 ",
"  c gray100",
". c black",
/* pixels */
" ................ ",
" .              . ",
" . ... ........ . ",
" .     .      . . ",
" . ... ........ . ",
" .              . ",
" . ............ . ",
" . ............ . ",
" .              . ",
" ................ "
};
