/* XPM */ 
static const unsigned char * editseq_xpm[] = {
"60 18 5 1",
" 	c None",
"!	c black",
"#	c #FF4343",
"$	c #FF0000",
"%	c white",
" #$$$$$$$$$$$$$$$$$$$$$$$$$$$$$$$$$$$$$$$$$$$$$$$$$$$$$$$$# ",
"#$$$$$$$$$$$$$$$$$$$$$$$$$$$$$$$$$$$$$$$$$$$$$$$$$$$$$$$$$$#",
"$$$$$$$$$$$$$$$$$$$$$$$$$$$$$$$$$$$$$$$$$$$$$$$$$$$$$$$$$$$$",
"$$$$$$$$$$$$$$$$$$$$$$$$$$$$$$$$$$$$$$$$$$$$$$$$$$$$$$$$$$$$",
"$$$$$$$$$$$$$$$$$$$$$$$$$$$$$$$$$$$$$$$$$$$$$$$$$$$$$$$$$$$$",
"$$$$$$$$$$$$$$$$$$$%%%%%$%%%%%$$$%%%%$%%%%%%$$$$$$$$$$$$$$$$",
"$$$$$$$$$$$$$$$$$$$%%$$$$%%$$%%$$$%%$$$$%%$$$$$$$$$$$$$$$$$$",
"$$$$$$$$$$$$$$$$$$$%%$$$$%%$$$%%$$%%$$$$%%$$$$$$$$$$$$$$$$$$",
"$$$$$$$$$$$$$$$$$$$%%%%%$%%$$$%%$$%%$$$$%%$$$$$$$$$$$$$$$$$$",
"$$$$$$$$$$$$$$$$$$$%%$$$$%%$$$%%$$%%$$$$%%$$$$$$$$$$$$$$$$$$",
"$$$$$$$$$$$$$$$$$$$%%$$$$%%$$$%%$$%%$$$$%%$$$$$$$$$$$$$$$$$$",
"$$$$$$$$$$$$$$$$$$$%%$$$$%%$$%%$$$%%$$$$%%$$$$$$$$$$$$$$$$$$",
"$$$$$$$$$$$$$$$$$$$%%%%%$%%%%%$$$%%%%$$$%%$$$$$$$$$$$$$$$$$$",
"$$$$$$$$$$$$$$$$$$$$$$$$$$$$$$$$$$$$$$$$$$$$$$$$$$$$$$$$$$$$",
"$$$$$$$$$$$$$$$$$$$$$$$$$$$$$$$$$$$$$$$$$$$$$$$$$$$$$$$$$$$$",
"$$$$$$$$$$$$$$$$$$$$$$$$$$$$$$$$$$$$$$$$$$$$$$$$$$$$$$$$$$$$",
"#$$$$$$$$$$$$$$$$$$$$$$$$$$$$$$$$$$$$$$$$$$$$$$$$$$$$$$$$$$#",
" #$$$$$$$$$$$$$$$$$$$$$$$$$$$$$$$$$$$$$$$$$$$$$$$$$$$$$$$$# "};