/* XPM */
static char * rna3d_xpm[] = {
"32 32 33 1",
" 	c None",
".	c #2020F1",
"+	c #112AF5",
"@	c #0B36F5",
"#	c #2430F3",
"$	c #3C3DF0",
"%	c #2648F6",
"&	c #3B4AF3",
"*	c #4750F2",
"=	c #3E55F5",
"-	c #4F56F2",
";	c #575FF4",
">	c #5E64F3",
",	c #656EF4",
"'	c #757DF5",
")	c #7E84F3",
"!	c #878BF4",
"~	c #8C93F5",
"{	c #999FF6",
"]	c #A0A6F6",
"^	c #ABB1F5",
"/	c #B6B6F4",
"(	c #B2BAF6",
"_	c #BCC0F7",
":	c #C3C6F7",
"<	c #CCCEF6",
"[	c #D7DAF8",
"}	c #E2E2FA",
"|	c #E7E4F6",
"1	c #E4E8F8",
"2	c #EDEDF8",
"3	c #F4F2F6",
"4	c #F8F5FA",
"                                ",
"                                ",
"             ......             ",
"          ...++++++...          ",
"        .+++......+++...        ",
"       .+...+.+.+....+++.       ",
"     .+..+......+.+....+...     ",
"     +..+..+........++..+++     ",
"    .++......++.......+.....    ",
"   ....+.+.+..+.++......+.++.   ",
"   +={:|33[^;+.+.333332[^>.+.   ",
"  ..]33333333)..+333333333_#+.  ",
"  ..{/'-&;_33|+..333,&-~233_+.  ",
"  .+....+.-331..+333*.+.*233,+  ",
" ++..+.%&>:33,..+333=.+.+{33_.. ",
" ..+...3333^&+.+.333*..+.>33|++ ",
" +..+.+33333/@.+.343=..++-343.. ",
" ..+..++.@]33/+.+433*.+..>33|.+ ",
" +..+....+-333..+333=..++{33(.. ",
"  ..<$..+.!33}++.433*.+.&233>.  ",
"  +.31~-*!333{..+333,&-!234(+.  ",
"  ..33333333<@.+.433333433_+.+  ",
"   +'/[232<)#+.++343332[^>...   ",
"   .+++++..+......++..+...+++   ",
"    ....++..+.+++..++.+.+...    ",
"     .+...+......+.....+.+.     ",
"     .......+.+..+.++......     ",
"       +..+..........+..+       ",
"        +.+.+.+...+.....        ",
"          +.+..+..+..+          ",
"             .+.+..             ",
"                                "};
