/* XPM */ 
static const unsigned char * rna3d_xpm[] = {
"32 32 3 1",
" 	c None",
"!	c black",
"#	c #464646",
"                    ###         ",
"                 ### # ##       ",
"                #  #  # ###     ",
"              ###  # ####       ",
"  ######     ##  ####   ##      ",
"   # #  #   # ####              ",
"   # #  #  # ##                 ",
"   # #  ###########             ",
"  #########   #    ##           ",
"       ##  #  #  ##  #          ",
"  #####    # #  #   # #         ",
"   # #      ## #   #  ##        ",
"   ##         ##  #  #          ",
"   #            ##  #           ",
"                  ######        ",
"                                ",
"      !!!!!   #######           ",
"     !!  !!!  ###   ###         ",
"         !!!  ###   ###         ",
"         !!!  ###    ###        ",
"        !!!   ###    ###        ",
"      !!!!    ###    ###        ",
"        !!!   ###    ###        ",
"         !!!  ###    ###        ",
"         !!!  ###   ###         ",
"     !!  !!!  ###   ###         ",
"      !!!!!   #######           ",
"                                ",
"                                ",
"                                ",
"                                ",
"                                "};