/* XPM */
static char *rna3d[]={
"32 32 6 1",
". c None",
"c c #00ff00",
"b c #00ffff",
"# c #515151",
"a c #545454",
"d c #ffffff",
".#aaaaaaaaaaaaaaaaaaaaaaaaaaaa#.",
"#aaaaaaaaaaaaaaaaaaaaaaaaaaaaaa#",
"aaaaaaaaaaaaaaaaaaaaaaaaaaaaaaaa",
"aaaaaaaaaaaaaaaaaaaaaaaaaaaaaaaa",
"aaaaaaaabaaaaaaaaaaaaaaaaaaaaaaa",
"aaaaaaababaaaaaaaaaaaaaaaaaaaaaa",
"aaaaaabaaacaaaaaaaaaaaaaaaaaaaaa",
"aaaaaabaaabcaaaaaaaaaaaaaaaaaaaa",
"aaaabaaaabacaaaaaaaaaaaaaaaaaaaa",
"aaaaabbaabacaaaaaaaaaaaaaaaaaaaa",
"aaaaaaabbaaacaaaaaaaaaaaaaaaaaaa",
"aaaaaaaaabbacaaaaaaaaaaaaaaaaaaa",
"aaaaaaaaaaabbbbbbbbbbbbaaaaaaaaa",
"aaaaaaaaaaaaacaaabaaaabaaaaaaaaa",
"aaaaaaaaaaaaacaabaaaabbaaaaaaaaa",
"aaaaaaaaaaaaaaccbaaabaabaaaaaaaa",
"aaaaaaaaaaaaaaaacccabaabccccbbaa",
"aaaaaaaaaaaaaaaaaaaccccabaabaaaa",
"aaaaaaaaaaaaaaaaaaaaaaaababaaaaa",
"aaaaaaaacccccaaaddddddaaabbaaaaa",
"aaaaaaaccaaaccaaddaaaddaabaaaaaa",
"aaaaaaaccaaaccaaddaaaaddaabaaaaa",
"aaaaaaaaaaaaccaaddaaaaddaaaaaaaa",
"aaaaaaaaaacccaaaddaaaaddaaaaaaaa",
"aaaaaaaaaaaaccaaddaaaaddaaaaaaaa",
"aaaaaaaccaaaccaaddaaaaddaaaaaaaa",
"aaaaaaaccaaaccaaddaaaddaaaaaaaaa",
"aaaaaaaacccccaaaddddddaaaaaaaaaa",
"aaaaaaaaaaaaaaaaaaaaaaaaaaaaaaaa",
"aaaaaaaaaaaaaaaaaaaaaaaaaaaaaaaa",
"#aaaaaaaaaaaaaaaaaaaaaaaaaaaaaa#",
".#aaaaaaaaaaaaaaaaaaaaaaaaaaaa#."};
