/* XPM */
static char *jm5[] = {
/* columns rows colors chars-per-pixel */
"20 20 2 1 ",
"  c gray100",
". c black",
/* pixels */
"        ..          ",
"      ......        ",
"     ..........     ",
"     ..........     ",
"  .   ..........    ",
" ... ...........    ",
" ....  ..... ...    ",
"  ..... .......     ",
"   ...........      ",
"       ......       ",
"        ......      ",
"        ......      ",
"       ......       ",
"       .......      ",
"      .... ..       ",
"       ...  ..      ",
"       ...  ...     ",
"       ...  ...     ",
"      ...   ....    ",
"     ....           "
};
