/* XPM */
static char * refresh_xpm[] = {
"18 18 4 1",
" 	c None",
".	c #0066CC",
"+	c #99CCFF",
"@	c #FFFFFF",
" ................ ",
"..................",
"..................",
"..................",
"....+..+@@@+......",
"....@+@@...@+.....",
"....@@+.....@+....",
"....@@+...........",
"....@@@+..........",
"............+@@@..",
".............+@@..",
"......+@.....+@@..",
".......+@...@@+@..",
"........+@@@+..+..",
"..................",
"..................",
"..................",
" ................ "};
