/* XPM */
static char *notEqual[]={
"24 16 77 2", 
".O c #ab9e9a",
"#h c #b05d41",
".U c #b6b5b5",
"#g c #b77862",
".M c #b87660",
".I c #b8a199",
".8 c #b8a39c",
".Y c #b8b8b8",
"#e c #ba4f2c",
".G c #bda198",
".S c #be6141",
".T c #c4c3c3",
".Z c #c7c7c7",
".2 c #c8c8c8",
"#d c #c9c8c8",
".F c #ca4b21",
"#b c #cb491e",
".h c #cba092",
".y c #cbcbcb",
".9 c #cc7457",
".B c #cccccc",
".n c #cdbab3",
"#c c #cebcb6",
".u c #cfcfcf",
".P c #d06845",
".J c #d15932",
".A c #d1d1d1",
".L c #d23805",
"#i c #d43602",
"#k c #d43704",
"#j c #d43a07",
".# c #d53b08",
".m c #d6d6d6",
"#f c #d73600",
".c c #d77a5c",
".b c #d83b07",
".6 c #d8bbb2",
"Qt c #d93600",
".e c #d93904",
".z c #d9d9d9",
".D c #dc3e04",
".V c #dcb4a6",
".s c #dcdcdc",
".K c #dd440b",
".E c #dd4c1c",
".0 c #dedede",
".Q c #df4608",
".a c #df582b",
".H c #dfdfde",
".W c #e15216",
".R c #e16339",
".f c #e1714c",
".N c #e1e1e1",
".v c #e2e2e2",
".o c #e39b83",
".5 c #e49277",
".4 c #e55710",
".X c #e5e5e5",
".t c #e7e7e7",
".i c #e85f15",
"#. c #e88d6f",
"#a c #e96d2c",
"## c #e98e70",
".1 c #ededed",
".p c #ee7b38",
".j c #eea68e",
".k c #eea992",
".d c #f1c8ba",
".g c #f1dfd9",
".7 c #f1f1f1",
".q c #f58026",
".l c #f6d8ce",
".C c #f7f7f7",
".w c #f8f8f8",
".3 c #fcfcfc",
".x c #ffb266",
".r c #ffffff",
"QtQtQtQtQtQtQtQtQtQtQtQtQtQtQtQtQtQtQtQtQtQtQtQt",
"QtQtQtQtQtQtQtQtQtQtQtQtQtQt.#.aQtQtQtQtQtQtQtQt",
"QtQtQtQtQtQtQtQtQtQtQtQtQt.b.c.dQtQtQtQtQtQtQtQt",
"QtQtQtQtQtQtQtQtQtQtQtQt.e.f.g.hQtQtQtQtQtQtQtQt",
"QtQtQtQtQt.i.j.j.j.j.j.j.k.l.m.n.o.pQtQtQtQtQtQt",
"QtQtQtQtQt.q.r.r.r.r.r.r.s.t.u.v.w.xQtQtQtQtQtQt",
"QtQtQtQtQt.q.r.r.r.r.r.y.z.A.B.C.r.xQtQtQtQtQtQt",
"QtQtQtQtQt.D.E.E.E.E.F.G.H.I.J.E.E.KQtQtQtQtQtQt",
"QtQtQtQtQtQtQtQtQt.L.M.N.O.PQtQtQtQtQtQtQtQtQtQt",
"QtQtQtQtQt.Q.R.R.R.S.T.U.V.R.R.R.R.WQtQtQtQtQtQt",
"QtQtQtQtQt.q.r.r.X.Y.Z.0.r.r.r.r.r.xQtQtQtQtQtQt",
"QtQtQtQtQt.q.r.1.2.m.2.3.r.r.r.r.r.xQtQtQtQtQtQt",
"QtQtQtQtQt.4.5.6.7.8.9#.###########aQtQtQtQtQtQt",
"QtQtQtQtQtQt#b#c#d#e#fQtQtQtQtQtQtQtQtQtQtQtQtQt",
"QtQtQtQtQtQt.##g#h#iQtQtQtQtQtQtQtQtQtQtQtQtQtQt",
"QtQtQtQtQtQtQt#j#kQtQtQtQtQtQtQtQtQtQtQtQtQtQtQt"};
