/* XPM */
static char *visualize[]={
"32 32 63 1",
"5 c #027171",
"6 c #0cf1f1",
"J c #170c09",
"C c #1a2526",
"B c #3f3f42",
"W c #490049",
"k c #4a4a4a",
"F c #4f4f4f",
"T c #565657",
"P c #5e5e60",
"D c #656568",
"G c #707072",
"L c #717100",
"a c #767e81",
"N c #800000",
"# c #838383",
"7 c #83cdcd",
"z c #88888c",
"Q c #8b9295",
"V c #97979a",
"A c #9f9fa5",
"R c #a700a7",
"I c #afafb8",
"H c #babac0",
"E c #c2c2ca",
"j c #cbcbd2",
"t c #cecedb",
"s c #cfcfdc",
"r c #d1d1dd",
"2 c #d2d1d9",
"U c #d2d1dc",
"3 c #d3d3da",
"u c #d3d3df",
"M c #d5d3d4",
"0 c #d5d4dc",
"Z c #d6d6dd",
"q c #d6d6e1",
"1 c #d7d6db",
"X c #d7d6df",
"O c #d9d9de",
"p c #d9d9e3",
"4 c #dbdbe0",
"v c #dbdbe4",
"w c #dcdce5",
"o c #dddde6",
"n c #e0e0e8",
"8 c #e1e1e1",
"Y c #e2e2e8",
"m c #e3e3ea",
"x c #e4e4eb",
"y c #e7e7ed",
"i c #e9e9ef",
"h c #ececf1",
"g c #efeff3",
"K c #f1f100",
"f c #f2f2f5",
"e c #f5f5f7",
"d c #f5f5f8",
"c c #f8f8fa",
"S c #fb00fb",
"b c #fbfbfc",
". c #fdfdfe",
"l c #ff0000",
".#############################a.",
"#..bcccdeffgghhiiihhhhgggffffejk",
"#.cdfghilmnopqrstrruqqpvwonmxyjk",
"z.cdfghilmnopqrstrruqqpvwonmxyjk",
"z.cdfghilmnopqrstrruqqpvABCDEyjF",
"z.cdfghilAGHpqrstrruqqpIJKKLDyMF",
"z.cdfghuNLLJDqrszCJCaqOPLKKKLAMF",
"Q.cdfghaLKKKJErIJRSSJApBKKKKLQMT",
"Q.cdfghCKKKKLaUTRSSSRkpAJKKKJpMF",
"Q.cdfghCKKKKL#uBRSSSRBqwGJJCAyMT",
"Q.cdfghaLKKKJtuVWSSSWQpvonuxmyMT",
"V.cdfghiNJLJauutPJWJPqpvwonmxyMT",
"V.cdfghilEQtuXuttEAEuqpvwonmxyMT",
"V.cdfghilmnopuustttuqqpvwonmxyMP",
"V.cdfghilmnopqustrruqqpvwonmxyMP",
"V.cdfghilmnopqustrruqqpvwonmxyMP",
"V.cdfghilmnoGPkkkkkkkkkkkkkkGYMP",
"V.cdfghilmnoZXustrruqqpvwonmnYMP",
"V.cdfghilmnoGFkkkka0Pkkkkkkk#mMT",
"V.cdfghilmno1XustU230qpvwonmnxMT",
"Q.cdfghilmnoGDksGTkkDZpvwonmxyMT",
"Q.cdfg4aJVnoXXus2Uru0ZpvwonmxyMT",
"Q.cdfyJ565DopqustrruqqpvwonmxyMT",
"Q.cdfQa666JEpqustrruqqpvQBDExyMF",
"z.lllN76665NlllllllllllNWRRJNlMF",
"z.cdgzQ666CHpqustrruqqVWSSSRkyMF",
"z.cdfnC565PwpqustrruqqDRSSSSJyMF",
"z.cdfgIPJauwpqustrruqqIJSSSRTyjF",
"z.cdfghilYnopqustrruqqpDJWWPHyjk",
"#.cdfghilmnopqustrruqqpwEzAnxyjk",
"a8888888888888888888888ono8888Hk",
".FFFFFFFFFFFFFFFFFFFFFFFFFFFFFF."};
