/* XPM */
static char * help_xpm[] = {
"18 18 6 1",
" 	c None",
".	c #808080",
"+	c #008000",
"@	c #FFFFFF",
"#	c #DADADA",
"$	c #DEDEDE",
" .++++++++++++++. ",
".++++++++++++++++.",
"++++++++++++++++++",
"++++++++++++++++++",
"+++++++@@@@+++++++",
"++++++@#+##@++++++",
"++++++@#++#@++++++",
"++++++@#++#@++++++",
"++++++++++##++++++",
"+++++++++#@+++++++",
"+++++++++@#+++++++",
"+++++++++@++++++++",
"++++++++++++++++++",
"++++++++$@++++++++",
"++++++++$@++++++++",
"++++++++++++++++++",
".++++++++++++++++.",
" .++++++++++++++. "};
