/* XPM */
static char *clipall[] = {
/* columns rows colors chars-per-pixel */
"64 32 2 1 ",
"  c none",
". c black",
/* pixels */
"           ......   .....                                       ",
"           ......   .....                                       ",
"     ........                                                   ",
"     .............  ....                                        ",
"     ..    .......  ....                                        ",
"     ..                                                         ",
". . ... . . . . . . . .                                         ",
"     ..                                                         ",
". .....               .                                         ",
"  .....                    .... ..  .. ....   ....  .... ...... ",
". .. .......  ... ... .    ..   ..  .. .. .. ..  .. .. ..  ..   ",
"  .. .......  ... ...      ..    ....  .. .. ..  .. .. ..  ..   ",
". ..                  .    ...    ..   ....  ..  .. ....   ..   ",
"  ..                       ..    ....  ..    ..  .. ....   ..   ",
". .. .....  .....     .    ..   ..  .. ..    ..  .. .. ..  ..   ",
"  .. .....  .....          .... ..  .. ..     ....  .. ..  ..   ",
". .....               .                                         ",
"  .....                                                         ",
".    ..               .              ..   ..   ..               ",
"     ..                             ....  ..   ..               ",
". .  .. . . . . . . . .            ..  .. ..   ..               ",
"     ..                            ...... ..   ..               ",
"     ..                            ..  .. ..   ..               ",
"     .......  ........             ..  .. ..   ..               ",
"      ......  ........             ..  .. .... ....             ",
"      ..                                                        ",
"      ..                                                        ",
"      ..                                                        ",
"      ..                                                        ",
"      ........   ...........                                    ",
"      ........   ...........                                    ",
"                                                                "
};
