/* XPM */
static char *logo[] = {
/* columns rows colors chars-per-pixel */
"206 77 2 1 ",
"  c gray100",
". c black",
/* pixels */
"                                                                                                                                                      ................                                        ",
"                                                                                                                                                      ................                                        ",
"                                                                                                                                                      ................                                        ",
"                                                                                                                                                      ................                                        ",
"                                                                                                                                                      ................                                        ",
"                                                                                                                                                      ................                                        ",
"                                                                                                                                                      ................                                        ",
"                                                                                                                                                      ................                                        ",
"                                                                                                                                                      ................                                        ",
"                                                                                                                                                      ................                                        ",
"                                                                                                                                                      ................                                        ",
"                                                                                                                                                      ................                                        ",
"                                                                                                                                                      ................                                        ",
"                                                                                                                                                      ................                                        ",
"                                                                                                                                                      ................                                        ",
"                                                                                                                                                      ................                                        ",
"                                                                                                                                                      ................                                        ",
"                                                                                                                                                      ................                                        ",
"                                                                                                                                                      ................                                        ",
"                                                                                                                                                      ................                                        ",
"                                                                                                                                                      ................                                        ",
"                                                                                                                                                      ................                                        ",
"                                                                                                                                                      ................                                        ",
"                                                                                                                                                      ................                                        ",
"                                                                                                                                                      ................                                        ",
"                                                                                                                                                      ................                                        ",
"                                                                                                                                                      ................                                        ",
"                                                                                                                                                      ................                                        ",
"                                                                                                                                                      ................                                        ",
"                                                                                                                                                      ................                                        ",
"                                                                               ..                                                 .......             ................                                        ",
"                                                                             ....                                             ...........             ......................                                  ",
"                                                                           ......                                         ...............             ..........................                              ",
"                                                                         ........                                     ...................             ................................                        ",
"                                                                        .........                                   .....................             ...................................                     ",
"                                                                      ...........                                 .......................             ......................................                  ",
"                                                                     ............                               .........................             ........................................                ",
"                                                                   ..............                              ..........................             ..........................................              ",
"                                                                 ................                            ............................             ............................................            ",
"                                                               ..................                           .............................             ..............................................          ",
"                                                             ....................                         ...............................             ................................................        ",
"                                                            .....................                        ................................             .................................................       ",
"                                                          .......................                       .................................             ..................................................      ",
"                                                         ........................                      ..................................             ...................................................     ",
"                                                       ..........................                     ...................................             ....................................................    ",
"                                                     ............................                    ....................................             .....................................................   ",
"                                                   ..............................                   .....................................                                ...................................  ",
"                                                 ................................                  ...............................                                            ..............................  ",
"                                                .................................                 ............................                                                     .......................... ",
"                                              ...................................                ...........................                                                         .........................",
"                                             ....................................               ..........................                                                              ......................",
"                                           ......................................               ........................                                                                 .....................",
"                                         ........................................              .......................                                                                    ....................",
"                                       ..........................................             .......................                                                                      ...................",
"                                     ............................................             ......................                                                                       ...................",
"                                    .............................................            .....................                                                                        ....................",
"                                  ............................  .................            .....................                                                                        ....................",
"                                 ............................   .................           ....................                                                                        ......................",
"                               ............................     .................           ....................                                                                       .......................",
"                             ............................       .................          ....................                                                                     ......................... ",
"                           ............................         .................          ...................                                                                  ............................  ",
"                         ............................           .................          ...................                                                              ................................  ",
"                        ............................            .................         ...................                                 .............................................................   ",
"                      ............................              .................         ...................                                 ............................................................    ",
"                    ............................                .................        ...................                                  ...........................................................     ",
"                   ............................                 .................        ...................                                  ..........................................................      ",
"                 ............................                   .................        ..................                                   ........................................................        ",
"               ............................                     .................        ..................                                   .......................................................         ",
"             ............................                       .................        ..................                                   ......................................................          ",
"            ............................                        .................        .................                                    ....................................................            ",
"          ............................                          .................       ..................                                    ..................................................              ",
"        ............................                            .................       ..................                                    ................................................                ",
"       ............................                             .................       .................                                     ............................................                    ",
"     ............................                               .................       .................                                     ..........................................                      ",
"   .............................                                .................       .................                                     ......................................                          ",
" .............................                                  .................       .................                                     ..................................                              ",
"............................                                    .................       .................                                     ...........................                                     "
};
