/* XPM */
static char *www[] = {
/* columns rows colors chars-per-pixel */
"40 9 2 1 ",
"  c gray100",
". c black",
/* pixels */
"                                        ",
"      ..    ..  ..    ..  ..    ..      ",
"      ..    ..  ..    ..  ..    ..      ",
"      ..    ..  ..    ..  ..    ..      ",
"      ..    ..  ..    ..  ..    ..      ",
"      .. .. ..  .. .. ..  .. .. ..      ",
"      ........  ........  ........      ",
"      ........  ........  ........      ",
"      ...  ...  ...  ...  ...  ...      "
};
