/* XPM */
static char * editor_xpm[] = {
"44 24 6 1",
" 	c None",
".	c #000000",
"+	c #FFFFFF",
"@	c #4A4A4A",
"#	c #808080",
"$	c #C0C0C0",
"                                            ",
"  ........................................  ",
"  .++++++@+++++++++++++++++++++++++++++++.  ",
"  .#@@@@#@#@#@@#@#@@##@##@@##@@#@@##@@@@#.  ",
"  .++++++@+++++++++++++++++++++++++++++++.  ",
"  .@@@@@@@@@@@@@@@@@@@@@@@@@@@@@@@@@@@@@@.  ",
"  .++++++@+++++++++++++++++++++++++++++++.  ",
"  .+@@@@+@+@+@+@+@+@+@+@+@+@+@+@+@+@+@+@+.  ",
"  .++++++@+@$$$$$@$@$$$$$$$@$@$$$$$@$@$$+.  ",
"  .+@@@@+@+@+@+@+@+@+@+@+@+@+@+@+@+@+@+@+.  ",
"  .++++++@+@$$$$$@$@$$$$$$$@$@$$$$$@$@$$+.  ",
"  .+@@@@+@+@+@+@+@+@+@+@+@+@+@+@+@+@+@+@+.  ",
"  .++++++@+@$$$$$@$@$$$$$$$@$@$$$$$@$@$$+.  ",
"  .+@@@@+@+@+@+@+@+@+@+@+@+@+@+@+@+@+@+@+.  ",
"  .++++++@+@$$$$$@$@$$$$$$$@$@$$$$$@$@$$+.  ",
"  .+@@@@+@+@+@+@+@+@+@+@+@+@+@+@+@+@+@+@+.  ",
"  .++++++@+@$$$$$@$@$$$$$$$@$@$$$$$@$@$$+.  ",
"  .+@@@@+@+@+@+@+@+@+@+@+@+@+@+@+@+@+@+@+.  ",
"  .++++++@+@$$$$$@$@$$$$$$$@$@$$$$$@$@$$+.  ",
"  .+@@@@+@+@+@+@+@+@+@+@+@+@+@+@+@+@+@+@+.  ",
"  .++++++@+++++++++++++++++++++++++++++++.  ",
"  ........................................  ",
"                                            ",
"                                            "};
