/* XPM */
static char *insert[] = {
/* columns rows colors chars-per-pixel */
"52 15 2 1 ",
"  c gray100",
". c black",
/* pixels */
"                                                    ",
"                                                    ",
"     .....                                          ",
"       .                                 .          ",
"       .                                 .          ",
"       .   .. ...   ....   ....  . ... .....        ",
"       .    ..   . .    . .    .  .   .  .          ",
"       .    .    .  ..    ......  .      .          ",
"       .    .    .    ..  .       .      .          ",
"       .    .    . .    . .    .  .      .   .      ",
"     .....  .    .  ....   ....   .       ...       ",
"                                                    ",
"                                                    ",
"                                                    ",
"                                                    "
};
