/* XPM */
static char *protein_info[]={
"32 32 32 1",
"C c None",
"l c #000000",
"A c #0e0e0e",
"u c #191919",
"v c #3d143d",
"t c #595959",
"d c #5e88ff",
"y c #780078",
"c c #86a6ff",
". c #989898",
"z c #9f9f9f",
"b c #aec2fc",
"s c #b4b4b4",
"w c #b900b9",
"f c #c4d3fe",
"e c #d3dfff",
"D c #d5d5d5",
"r c #e9e9e9",
"q c #f0f0f0",
"p c #f3f3f3",
"o c #f4f4f4",
"n c #f7f7f7",
"m c #f9f9f9",
"k c #faf7f0",
"x c #fc00fc",
"j c #fcf9f2",
"a c #fcfcfc",
"i c #fefbf3",
"B c #ff0000",
"h c #fffef7",
"g c #fffffb",
"# c #ffffff",
"................................",
".##############################.",
".abbcbccccccdcdddddddddddddddd#.",
".abbbccccccdcddddddddddddddddd#.",
".#eeeeeeeffffffffbbbbbbbbbbbbb#.",
".###########gggahhhhhhhiijjkkk#.",
".#lll#llll##llmlllnlllnlolpqlq#.",
".#l#l#l##l#laalmlnnlnnnlpllqlq#.",
".#lll#llll#lamlmlnnllnolpllllr#.",
".#l###l#l#alamlmlnnlooolplqllr#.",
".#l###l##laallmnlnolllolplqqlr#.",
".########aaammmnnooooooppqqrrr#.",
".#######lalamlmllloollppqqqrrra.",
".######alallmlnloooloolqqqrrrr#.",
".######alallllnlllolpplqqrrrrr#.",
".######alalmllnlopplpplqrrrrrr#.",
".#####aalmlmnlnloppqllqrrqrqrq#.",
".#m###aaammmnnoo#############q#.",
".#qqonstuutsopqotttttttttttt#q#.",
".#qrrtvwwxwvtrqqnamooooooonnaq#.",
".#qqtyxxxxxxytqqtttttttattttmqm.",
".#qzvxxxxxxxxvzoqpnooanrqmnm#oa.",
".#nvwxxxxxxxxwvmttt#ttp.........",
".#nAxxxxxBxxxxAnma#aqap.rrrrrrrt",
".#nAxxxxBBBxxxAoooonnnp.m##aa#.C",
".#nvwxxxxBxxxwvmnnnnnno.pnnaatCC",
".#mzvxxxxxxxxvzoonnnnno.qqnq.CCC",
".#natyxxxxxxytmmnnnmmmo.rqntCCCC",
".#mmrtvwxxwvtqanmmmmmmn.rrtCCCCC",
".#aa##stAAts#aaaaaaaaaa.DtCCCCCC",
".#opppqqpqqppppppppoooo.tCCCCCCC",
"........................CCCCCCCC"};
