/* XPM */
static char *mark_none[]={
"22 22 30 1",
". c None",
"# c #000000",
"i c #009400",
"x c #00ab00",
"u c #00b700",
"n c #00c300",
"y c #00cf00",
"s c #00db00",
"t c #00f300",
"z c #00ff00",
"j c #313100",
"d c #3e3e00",
"a c #3f003f",
"r c #690069",
"o c #696900",
"g c #780078",
"l c #787800",
"b c #b100b1",
"e c #b1b100",
"v c #c0c000",
"q c #c300c3",
"c c #e400e4",
"f c #e6e600",
"B c #e700e7",
"w c #f000f0",
"A c #f2f200",
"m c #fc00fc",
"p c #fcfc00",
"h c #ff00ff",
"k c #ffff00",
"....####......####....",
"..#abccba####deffed#..",
".#ghhhhhh#i#jkkkkkkl#.",
".amhhhhhh#nn##okkkkpd.",
"#qhhr#####stsu##okkkv#",
"#whh#xyyystzztsx#kkkA#",
"#whh#xyyystzztsx#kkkA#",
"#qhhr#####stsu##okkkv#",
".amhhhhhh#nn##okkkkpd.",
".#ghhhhhh#i#jkkkkkkl#.",
"..#abBBba####deffed#..",
"....####......####....",
"......................",
"......................",
"......................",
".####################.",
".#k##k##kk##k##k#kkk#.",
".#kk#k#k##k#kk#k#k###.",
".#kkkk#k##k#kkkk#kk#..",
".#k#kk#k##k#k#kk#k###.",
".#k##k##kk##k##k#kkk#.",
".####################."};
