/* XPM */
static char *exit[]={
"32 32 16 1",
". c None",
"# c #a62512",
"a c #b5482a",
"h c #ba5230",
"d c #bc5e39",
"i c #c26e46",
"b c #c57453",
"j c #c87f57",
"c c #c98060",
"g c #ce8d69",
"f c #d7a081",
"e c #dfab90",
"m c #ebc2ad",
"k c #f4d5c3",
"l c #feebe0",
"n c #fefffc",
"................................",
".....######################.....",
"...##abccccccccccccbbbbbbda##...",
"..##befgccccccccccccccccccgd##..",
"..#bfbahdddddddidiiiiijbjbccd#..",
".#aedhhddddddiidiiiiiiiibjjjc##.",
".#bfaddhdddibekllmecjijjijjjgd#.",
".#ccdhhdddclnnnnnnnnkjbjjjgccd#.",
".#fcdddddennnnnnnnnnnngjjjjjjb#.",
".#cchdddennnnmciifknnnnfjjjjcd#.",
".#ccdddfnnnkbibfcbbgnnnngjggjd#.",
".#ccdddlnnkiibenngjbjnnnkggjcd#.",
".#ccbdfnnniiiimnnfjjjfnnngggjd#.",
".#ccddmnnediibmnnfbjjjknneggcd#.",
".#ccddlnnjiiibmnnfjjjcennkggch#.",
".#cciinnniijijmnnfjjcjennkggjd#.",
".#ccdinnnbibibmnnejjggennmgfca#.",
".#cciilnnjijjjmnnejgjgennkggjd#.",
".#cciiknneiijjmnnejgjglnnmffca#.",
".#bcdiennnjjjcmnneggjfnnnfgfjh#.",
".#ccibinnnkcjcmnnfjggnnnkfgfca#.",
".#bcbibfnnnkjjcefgggnnnnffffca#.",
".#bjiibimnnnnmgggfknnnneffffca#.",
".#ccijjjjmnnnnnnnnnnnneffffeca#.",
".#bgiijjjjflnnnnnnnnlefgfffeba#.",
".#djjjjjcccgfklnllmfgffffefeda#.",
".#acjjjjjgjgggcggfgfffffefefa##.",
"..#dgccjjjgjgggfgffgffffeefha#..",
"..##dcjjjgjjjjjcjjjjjgjccda###..",
"...###dididddddhdhhdaaaaaa###...",
".....######################.....",
"................................"};
