/* XPM */
static char *dummy[]={
"22 22 5 1",
". c none",
"a c #000000",
"b c #00ffff",
"# c #696969",
"c c #ffff00",
"...#aa##aaa##aa#aaa#..",
"..#abbaabbbaabbabbba..",
"..abaababababaababa#..",
"..#abbaabbbabaababa...",
"..abaababaaabaababa...",
"..#abbaaba.#abbaaba...",
"...#aa##a#..#aa##a#...",
"......................",
"......#aaa#aa#........",
"......acccacca#.......",
"......#acacaaca.......",
".......acacaaca.......",
".......acacaaca.......",
".......acaacca#.......",
".......#a##aa#........",
"..#aa##aaa#a##a#aaa#..",
".#abbaabbbabaababbba..",
".abaababaaabbababaa#..",
".aba#aabbaabbbbabba...",
".abaababaaababbabaa#..",
".#abbbabbbabaababbba..",
"..#aaa#aaa#a##a#aaa#.."};
