/* XPM */
static char * stop_xpm[] = {
"32 32 7 1",
" 	c None",
".	c #8F150F",
"+	c #9C1710",
"@	c #C01C14",
"#	c #DF2117",
"$	c #E52218",
"%	c #FFFFFF",
"                                ",
"                                ",
"                                ",
"            +@##@+              ",
"         .$$$$$$$$$$.           ",
"        #$$$$$$$$$$$$#          ",
"       $$$$$$$$$$$$$$$$         ",
"      $$$$$$$$$$$$$$$$$$        ",
"     #$$$$$$$$$$$$$$$$$$#       ",
"    .$$$$$$$$$$$$$$$$$$$$.      ",
"    $$$$$$$$$$$$$$$$$$$$$$      ",
"    $$$$$$$$$$$$$$$$$$$$$$      ",
"   +$$$$$$$$$$$$$$$$$$$$$$+     ",
"   @$$$$$$$$$$$$$$$$$$$$$$@     ",
"   #%%%%%%%%%%%%%%%%%%%%%%#     ",
"   #%%%%%%%%%%%%%%%%%%%%%%#     ",
"   @$$$$$$$$$$$$$$$$$$$$$$@     ",
"   +$$$$$$$$$$$$$$$$$$$$$$+     ",
"    $$$$$$$$$$$$$$$$$$$$$$      ",
"    $$$$$$$$$$$$$$$$$$$$$$      ",
"    .$$$$$$$$$$$$$$$$$$$$.      ",
"     #$$$$$$$$$$$$$$$$$$#       ",
"      $$$$$$$$$$$$$$$$$$        ",
"       $$$$$$$$$$$$$$$$         ",
"        #$$$$$$$$$$$$#          ",
"         .$$$$$$$$$$.           ",
"            +@##@+              ",
"                                ",
"                                ",
"                                ",
"                                ",
"                                "};
