/* XPM */
static char *minus[] = {
/* columns rows colors chars-per-pixel */
"13 9 2 1 ",
"  c gray100",
". c black",
/* pixels */
"             ",
"             ",
"             ",
" ........... ",
" ........... ",
" ........... ",
"             ",
"             ",
"             "
};
