/* XPM */
static char *moveleft[] = {
/* columns rows colors chars-per-pixel */
"40 20 2 1 ",
"  c gray100",
". c black",
/* pixels */
"                                        ",
"          .                             ",
"         ..                             ",
"        ...                             ",
"       ....                             ",
"      .....                             ",
"     ......                             ",
"    ................................... ",
"   .................................... ",
"  ..................................... ",
"  ..................................... ",
"   .................................... ",
"    ................................... ",
"     .................................. ",
"      .....                             ",
"       ....                             ",
"        ...                             ",
"         ..                             ",
"          .                             ",
"                                        "
};
