/* XPM */
static char *landscape[] = {
/* columns rows colors chars-per-pixel */
"32 32 2 1 ",
"  c none",
". c black",
/* pixels */
"                                ",
"                                ",
"                                ",
"                                ",
"................................",
"..                            ..",
"..                            ..",
"..                            ..",
".. ...                        ..",
"..                            ..",
".. ....... ...  ...   ... ..  ..",
"..                            ..",
"..                            ..",
".. ...  ...... ....  ...... . ..",
"..                            ..",
".. ........  ... ..  ... ..   ..",
"..                            ..",
".. ....  .... .... .... ..... ..",
"..                            ..",
".. .... ... ....  ........ .. ..",
"..                            ..",
".. .... ..... ... ...  .. ... ..",
"..                            ..",
".. ...  ....  ....... ......  ..",
"..                            ..",
".. ...   ....  .... ....  ... ..",
"..                            ..",
"................................",
"                                ",
"                                ",
"                                ",
"                                "
};
