/* XPM */
static char *icon[] = {
/* columns rows colors chars-per-pixel */
"120 40 2 1 ",
"  c gray100",
". c black",
/* pixels */
"................................                                                      ................................  ",
".                              .                                                      .                              .  ",
".                              .                                                      .                              .  ",
".       ...............        .         ....................................         .        ...............       .  ",
".       .             .        .         .                                  .         .        .             .       .  ",
".       .             .        .         .      ..  ..  ..                  .         .        .             .       .  ",
".  .........................   .         .       ..  ....                   .         .   .........................  .  ",
".       .             .        .         .       ..   ..                    .         .        .             .       .  ",
".       .             .        .         .        .. ..   ...               .         .        .             .       .  ",
".       .             .        .   .     .    ..  .. ........               .   .     .        .             .       .  ",
".  .........................   .   ..    .     ..  ......      .......      .   ..    .   .........................  .  ",
".       .             .        .   ...   .      ..  ..         .......      .   ...   .        .             .       .  ",
".       .             .        ........  .       .. ..         ..     .     ........  .        .             .       .  ",
".       .             .        ......... .        ....         ..     .     ......... .        .             .       .  ",
".  .........................   ...........         ...         ..      .    ...........   .........................  .  ",
".       .             .        ......... .          ..         ..      .    ......... .        .             .       .  ",
".       .             .        ........  .       .........     ..       .   ........  .        .             .       .  ",
".       .             .        .   ...   . ..............................   .   ...   .        .             .       .  ",
".  .........................   .   ..    . ..............................   .   ..    .   .........................  .  ",
".       .             .        .   .     . ..............................   .   .     .        .             .       .  ",
".       .             .        .         . . ............................   .         .        .             .       .  ",
".       .             .        .         .   .......            .......     .         .        .             .       .  ",
".       .             .        .         .    .....              .....      .         .        .             .       .  ",
".       ...............        .         .     ...                ...       .         .        ...............       .  ",
".                              .         .                                  .         .                              .  ",
".                              .         .                                  .         .                              .  ",
".                              .         .                                  .         .                              .  ",
".                              .         .  ..   ..   ....   ..  ..  .....  .         .                              .  ",
".  ....    .....        ...... .         .  ... ...  ......  ..  ..  .....  .         .  ....    .....    .......... .  ",
".  .....   ......       ...... .         .  .......  ..  ..  ..  ..  ..     .         .  .....   ......   .......... .  ",
".  ..  ..  ..  ..         ..   .         .  .. . ..  ..  ..  ..  ..  ....   .         .  ..  ..  ..  ..     ..  ..   .  ",
".  ..  ..  ..  ..         ..   .         .  ..   ..  ..  ..  ..  ..  ....   .         .  ..  ..  ..  ..     ..  ..   .  ",
".  ..  ..  .....          ..   .         .  ..   ..  ..  ..  ..  ..  ..     .         .  ..  ..  .....      ..  ..   .  ",
".  ..  ..  .....          ..   .         .  ..   ..  ......   ....   .....  .         .  ..  ..  .....      ..  ..   .  ",
".  ..  ..  ..  ..         ..   .         .  ..   ..   ....     ..    .....  .         .  ..  ..  ..  ..     ..  ..   .  ",
".  ..  ..  ..  ..         ..   .         .                                  .         .  ..  ..  ..  ..     ..  ..   .  ",
".  .....   ......       ...... .         ....................................         .  .....   ......   .......... .  ",
".  ....    .....        ...... .                                                      .  ....    .....    .......... .  ",
".                              .                                                      .                              .  ",
"................................                                                      ................................  "
};
