/* XPM */
static char *icon_vertical[] = {
/* columns rows colors chars-per-pixel */
"36 132 2 1 ",
"  c gray100",
". c black",
/* pixels */
"  ................................  ",
"  .                              .  ",
"  .                              .  ",
"  .       ...............        .  ",
"  .       .             .        .  ",
"  .       .             .        .  ",
"  .  .........................   .  ",
"  .       .             .        .  ",
"  .       .             .        .  ",
"  .       .             .        .  ",
"  .  .........................   .  ",
"  .       .             .        .  ",
"  .       .             .        .  ",
"  .       .             .        .  ",
"  .  .........................   .  ",
"  .       .             .        .  ",
"  .       .             .        .  ",
"  .       .             .        .  ",
"  .  .........................   .  ",
"  .       .             .        .  ",
"  .       .             .        .  ",
"  .       .             .        .  ",
"  .       .             .        .  ",
"  .       ...............        .  ",
"  .                              .  ",
"  .                              .  ",
"  .                              .  ",
"  .                              .  ",
"  .  ....    .....        ...... .  ",
"  .  .....   ......       ...... .  ",
"  .  ..  ..  ..  ..         ..   .  ",
"  .  ..  ..  ..  ..         ..   .  ",
"  .  ..  ..  .....          ..   .  ",
"  .  ..  ..  .....          ..   .  ",
"  .  ..  ..  ..  ..         ..   .  ",
"  .  ..  ..  ..  ..         ..   .  ",
"  .  .....   ......       ...... .  ",
"  .  ....    .....        ...... .  ",
"  .                              .  ",
"  ................................  ",
"                .....               ",
"                .....               ",
"                .....               ",
"             ...........            ",
"              .........             ",
"               .......              ",
"                .....               ",
"                 ...                ",
"                  .                 ",
"....................................",
".                                  .",
".      ..  ..  ..                  .",
".       ..  ....                   .",
".       ..   ..                    .",
".        .. ..   ...               .",
".    ..  .. ........               .",
".     ..  ......      .......      .",
".      ..  ..         .......      .",
".       .. ..         ..     .     .",
".        ....         ..     .     .",
".         ...         ..      .    .",
".          ..         ..      .    .",
".       .........     ..       .   .",
". ..............................   .",
". ..............................   .",
". ..............................   .",
". . ............................   .",
".   .......            .......     .",
".    .....              .....      .",
".     ...                ...       .",
".                                  .",
".                                  .",
".                                  .",
".  ..   ..   ....   ..  ..  .....  .",
".  ... ...  ......  ..  ..  .....  .",
".  .......  ..  ..  ..  ..  ..     .",
".  .. . ..  ..  ..  ..  ..  ....   .",
".  ..   ..  ..  ..  ..  ..  ....   .",
".  ..   ..  ..  ..  ..  ..  ..     .",
".  ..   ..  ......   ....   .....  .",
".  ..   ..   ....     ..    .....  .",
".                                  .",
"....................................",
"                .....               ",
"                .....               ",
"                .....               ",
"             ...........            ",
"              .........             ",
"               .......              ",
"                .....               ",
"                 ...                ",
"                  .                 ",
"  ................................  ",
"  .                              .  ",
"  .                              .  ",
"  .        ...............       .  ",
"  .        .             .       .  ",
"  .        .             .       .  ",
"  .   .........................  .  ",
"  .        .             .       .  ",
"  .        .             .       .  ",
"  .        .             .       .  ",
"  .   .........................  .  ",
"  .        .             .       .  ",
"  .        .             .       .  ",
"  .        .             .       .  ",
"  .   .........................  .  ",
"  .        .             .       .  ",
"  .        .             .       .  ",
"  .        .             .       .  ",
"  .   .........................  .  ",
"  .        .             .       .  ",
"  .        .             .       .  ",
"  .        .             .       .  ",
"  .        .             .       .  ",
"  .        ...............       .  ",
"  .                              .  ",
"  .                              .  ",
"  .                              .  ",
"  .                              .  ",
"  .  ....    .....    .......... .  ",
"  .  .....   ......   .......... .  ",
"  .  ..  ..  ..  ..     ..  ..   .  ",
"  .  ..  ..  ..  ..     ..  ..   .  ",
"  .  ..  ..  .....      ..  ..   .  ",
"  .  ..  ..  .....      ..  ..   .  ",
"  .  ..  ..  ..  ..     ..  ..   .  ",
"  .  ..  ..  ..  ..     ..  ..   .  ",
"  .  .....   ......   .......... .  ",
"  .  ....    .....    .......... .  ",
"  .                              .  ",
"  ................................  "
};
