/* XPM */
static char *to5[]={
"60 18 4 1",
"b c None",
". c None",
"# c #000000",
"a c #959595",
"............................................................",
"............................................................",
"............................................................",
"............................................................",
"...............##.....................................##....",
".......#####...##.....aa.............bbb......####....##....",
".......##......##....##...............bb.....##..##...##....",
".......##...........##.................bb........##.........",
".......####........######################a.....###..........",
"..........##.......######################a.......##.........",
"..........##........##.................bb........##.........",
".......#..##.........##..............bbb.....##..##.........",
".......####...........aa.............bbb......####..........",
"............................................................",
"............................................................",
"............................................................",
"............................................................",
"............................................................"};
