/* XPM */ 
static const unsigned char * s5to3_xpm[] = {
"60 18 4 1",
" 	c None",
"!	c black",
"#	c #959595",
"$	c #A5A5A5",
"                                                            ",
"                                                            ",
"                                                            ",
"                                                            ",
"               !!                                     !!    ",
"       !!!!!   !!                    #$       !!!!    !!    ",
"       !!      !!                     !!     !!  !!   !!    ",
"       !!                              !!        !!         ",
"       !!!!         #!!!!!!!!!!!!!!!!!!!!!     !!!          ",
"          !!        #!!!!!!!!!!!!!!!!!!!!!       !!         ",
"          !!                           !!        !!         ",
"       !  !!                          !!     !!  !!         ",
"       !!!!                          #$       !!!!          ",
"                                                            ",
"                                                            ",
"                                                            ",
"                                                            ",
"                                                            "};