/* XPM */
static char * editseq_xpm[] = {
"60 12 4 1",
" 	c None",
".	c #FF4343",
"+	c #FF0000",
"@	c #FFFFFF",
" .++++++++++++++++++++++++++++++++++++++++++++++++++++++++. ",
".++++++++++++++++++++++++++++++++++++++++++++++++++++++++++.",
"++++++++++++++++++@@@@@+@@@@@+++@@@@+@@@@@@+++++++++++++++++",
"++++++++++++++++++@@++++@@++@@+++@@++++@@+++++++++++++++++++",
"++++++++++++++++++@@++++@@+++@@++@@++++@@+++++++++++++++++++",
"++++++++++++++++++@@@@@+@@+++@@++@@++++@@+++++++++++++++++++",
"++++++++++++++++++@@++++@@+++@@++@@++++@@+++++++++++++++++++",
"++++++++++++++++++@@++++@@+++@@++@@++++@@+++++++++++++++++++",
"++++++++++++++++++@@++++@@++@@+++@@++++@@+++++++++++++++++++",
"++++++++++++++++++@@@@@+@@@@@+++@@@@+++@@+++++++++++++++++++",
".++++++++++++++++++++++++++++++++++++++++++++++++++++++++++.",
" .++++++++++++++++++++++++++++++++++++++++++++++++++++++++. "};
