/* XPM */
static char *mol[]={
"32 32 174 2",
"Qt c None",
"#Q c #040000",
"#3 c #ab0000",
".d c #0000b3",
"ap c #ab0000",
".4 c #0000b3",
"aB c #ab0000",
".j c #0000b3",
"aL c #ab0000",
".y c #000000",
".# c #0000b3",
".m c #0000b3",
"#F c #000000",
"ag c #040000",
"#s c #0000b3",
"#Z c #ab0000",
".W c #040000",
"al c #040000",
"ay c #ab0000",
".V c #000000",
"#i c #040000",
"af c #ab0000",
".E c #000000",
".n c #0000b3",
"#7 c #000000",
"aq c #040000",
".e c #0000b3",
"#e c #000000",
"#n c #0000b3",
".L c #040000",
"#d c #0000b3",
"#r c #040000",
"#2 c #040000",
"aE c #ab0000",
".v c #0000b3",
"aR c #ab0000",
"av c #ab0000",
"aH c #ab0000",
"#A c #000000",
".z c #040008",
".c c #0000b3",
"#T c #040000",
".r c #0000b3",
"#w c #040000",
"#6 c #ab0000",
"#U c #ab0000",
"#L c #040000",
".k c #0000b3",
".a c #0000b3",
"#j c #0000b3",
"#t c #0000ad",
"aM c #ab0000",
"aD c #ab0000",
"az c #ab0000",
".Q c #0000b3",
".5 c #000000",
"#R c #000000",
".R c #000000",
".b c #0000b3",
".K c #000000",
"a. c #000000",
"a# c #040000",
"aQ c #ab0000",
"#o c #000000",
"ah c #040000",
"aK c #ab0000",
".i c #0000b3",
"am c #040000",
"#4 c #ab0000",
".X c #040000",
"ax c #ab0000",
".t c #0000b3",
"aN c #ab0000",
"#h c #040000",
".F c #000000",
"ar c #040000",
"#8 c #000000",
".D c #0000b3",
".M c #040000",
".q c #0000b3",
"ak c #ab0000",
".p c #0000b3",
"aP c #ab0000",
"#1 c #040000",
"#q c #040000",
"#Y c #a80000",
"aG c #ab0000",
".J c #000000",
"#D c #000000",
".U c #000000",
"#S c #040000",
"#m c #0000b3",
".f c #0000b3",
".u c #0000b3",
"aw c #8f0000",
"#M c #090000",
"aO c #ab0000",
"#v c #040000",
".3 c #0000b3",
"ac c #2b0000",
"#V c #ab0000",
".x c #0000b3",
"aC c #ab0000",
"aI c #ab0000",
".l c #0000b3",
"#J c #040000",
".G c #000000",
"#9 c #000000",
"#z c #000000",
".6 c #010000",
"#y c #040000",
"aA c #ab0000",
"#u c #040007",
"#G c #040000",
"#K c #040000",
"#C c #040000",
"#k c #0000b2",
".s c #0000b3",
"#B c #040000",
"ae c #ab0000",
".o c #0000b3",
"aa c #040000",
"#H c #040000",
".7 c #040000",
"ai c #040000",
"#5 c #ab0000",
"#c c #0000b3",
".I c #000000",
"ao c #ab0000",
"#x c #040000",
".8 c #040005",
".Y c #040000",
"aF c #aa0000",
".S c #000000",
".h c #0000b2",
"#g c #040000",
"aJ c #ab0000",
"#E c #000000",
".A c #03002f",
"ab c #040000",
".N c #040000",
"as c #070000",
".H c #000000",
"#0 c #040000",
".T c #000000",
".w c #0000a4",
"## c #0000a5",
".2 c #0000a9",
"#. c #0000ad",
".Z c #0000b1",
".P c #0000b2",
".g c #0000b3",
"#p c #010000",
".0 c #010079",
".1 c #010088",
".C c #01008f",
"#f c #020000",
".9 c #020060",
"#I c #030000",
"#l c #030024",
"#b c #03002a",
".O c #040000",
"#a c #040001",
".B c #04000f",
"#P c #050000",
"#O c #200000",
"at c #340000",
"#N c #360000",
"aj c #5d0000",
"an c #780000",
"ad c #990000",
"au c #a80000",
"#X c #aa0000",
"#W c #ab0000",
"QtQtQtQtQtQtQtQtQtQtQtQtQtQtQtQtQtQtQtQtQtQt.#.a.b.c.dQtQtQtQtQt",
"QtQtQtQtQtQtQtQtQtQtQtQtQtQtQtQtQtQtQtQt.e.f.g.g.g.g.h.i.jQtQtQt",
"QtQtQtQtQtQtQtQtQtQtQtQtQtQtQtQtQtQtQt.k.h.g.g.g.g.g.g.g.l.mQtQt",
"QtQtQtQtQtQtQtQtQtQtQtQtQtQtQtQtQtQt.n.o.g.g.g.g.g.g.g.g.g.pQtQt",
"QtQtQtQtQtQtQtQtQtQtQtQtQtQtQtQtQtQt.q.g.g.g.g.g.g.g.g.g.g.g.rQt",
"QtQtQtQtQtQtQtQtQtQtQtQtQtQtQtQtQtQt.s.g.g.g.g.g.g.g.g.g.g.g.tQt",
"QtQtQtQtQtQtQtQtQtQtQtQtQtQtQtQtQt.e.g.g.g.g.g.g.g.g.g.g.g.g.uQt",
"QtQtQtQtQtQtQtQtQtQtQtQtQtQtQtQtQt.v.g.w.g.g.g.g.g.g.g.g.g.g.xQt",
"QtQtQtQtQtQtQt.yQtQtQtQtQtQtQtQtQt.z.A.B.C.g.g.g.g.g.g.g.g.g.DQt",
"QtQtQtQt.E.F.G.H.I.J.KQtQtQtQt.L.M.N.O.O.B.P.g.g.g.g.g.g.g.g.QQt",
"QtQtQt.R.S.T.T.T.T.T.T.U.V.W.X.Y.O.O.O.O.O.C.g.Z.0.1.2.g.g.3.4Qt",
"QtQt.5.T.T.T.T.T.T.T.T.T.6.7.O.O.O.O.O.8.9#.###a.O.O#b.g#c#dQtQt",
"Qt#e.I.T.T.T.T.T.T.T.T.T.T#f.O.O.O#g#h#i#j#k.2.O.O.O#l#m#nQtQtQt",
"Qt#o.T.T.T.T.T.T.T.T.T.T.T#p.O.O#q#rQtQtQt#s#t.O.O.O#uQtQtQtQtQt",
"Qt.J.T.T.T.T.T.T.T.T.T.T.T.T#v#wQtQtQtQtQtQtQt#x.O.O#yQtQtQtQtQt",
"Qt#z.T.T.T.T.T.T.T.T.T.T.T.T#AQtQtQtQtQtQtQtQt#B.O.O#CQtQtQtQtQt",
"Qt#D.T.T.T.T.T.T.T.T.T.T.T#E#FQtQtQtQtQtQtQtQt#G.O.O#HQtQtQtQtQt",
"Qt#o.T.T.T.T.T.T.T.T#I#I#p.GQtQtQtQtQtQtQtQtQt#J.O.O.YQtQtQtQtQt",
"Qt#e.I.T.T.T.T.T.T#f.O.O.O#K#LQtQtQtQtQtQtQtQt#M#N#O#P#QQtQtQtQt",
"QtQt#R.T.T.T.T.T.T#I.O.O.O.O.O#S#TQtQtQtQt#U#V#W#W#W#X#Y#ZQtQtQt",
"QtQtQt.R.S.T.T.T.T#f.O.O.O.O.O.O#0#1#2#3#4#W#W#W#W#W#W#W#5#6QtQt",
"QtQtQtQt#7#8#9.H.I.Ja.a#aa.O.O.O.O.Oabacad#W#W#W#W#W#W#W#WaeafQt",
"QtQtQtQtQtQtQt.yQtQtQtQtagahai.O.O.O.O.Oaj#W#W#W#W#W#W#W#W#WakQt",
"QtQtQtQtQtQtQtQtQtQtQtQtQtQtalam#x.O.O.Oan#W#W#W#W#W#W#W#W#Waoap",
"QtQtQtQtQtQtQtQtQtQtQtQtQtQtQtQtaqarasatau#W#W#W#W#W#W#W#W#W#Wav",
"QtQtQtQtQtQtQtQtQtQtQtQtQtQtQtQtQtQtawau#W#W#W#W#W#W#W#W#W#W#W#U",
"QtQtQtQtQtQtQtQtQtQtQtQtQtQtQtQtQtQtax#W#W#W#W#W#W#W#W#W#W#W#Way",
"QtQtQtQtQtQtQtQtQtQtQtQtQtQtQtQtQtQtaz#W#W#W#W#W#W#W#W#W#W#WaAQt",
"QtQtQtQtQtQtQtQtQtQtQtQtQtQtQtQtQtQtaBaC#W#W#W#W#W#W#W#W#W#WaDQt",
"QtQtQtQtQtQtQtQtQtQtQtQtQtQtQtQtQtQtQtaEaF#W#W#W#W#W#W#W#WaGQtQt",
"QtQtQtQtQtQtQtQtQtQtQtQtQtQtQtQtQtQtQtQtaHaI#W#W#W#W#WaJaKaLQtQt",
"QtQtQtQtQtQtQtQtQtQtQtQtQtQtQtQtQtQtQtQtQt#3aMaNaOaPaQaRQtQtQtQt"};
