/* XPM */
static char *undo[]={
"19 18 26 1",
". c None",
"u c #484848",
"# c #020202",
"p c #474747",
"j c #474747",
"d c #474747",
"g c #474747",
"x c #010101",
"b c #464646",
"w c #000000",
"v c #000000",
"l c #464646",
"q c #000000",
"m c #464646",
"f c #000000",
"r c #464646",
"a c #000000",
"e c #000000",
"s c #111111",
"n c #151515",
"k c #1c1c1c",
"h c #2a2a2a",
"i c #313131",
"o c #343434",
"t c #383838",
"c c #464646",
"...................",
"...................",
"...................",
"...#a..bcccccd.....",
"...#efgheeeeeij....",
"...#eeekl...mnop...",
"...#eeeq.....rstu..",
"...#eeeev.....atu..",
"...#eeeeew....atu..",
"..............atu..",
"..............atu..",
".............rstu..",
"............mnop...",
".......xeeeeeij....",
".......bcccccd.....",
"...................",
"...................",
"..................."};
