/* XPM */ 
static const unsigned char * moltext_xpm[] = {
"140 19 10 1",
" 	c None",
"!	c black",
"#	c #545454",
"$	c #00FF00",
"%	c #FF0000",
"&	c #0066CC",
"'	c #111010",
"(	c #808080",
")	c white",
"*	c #FFFFDF",
" ########################################################################################################################################## ",
"############################################################################################################################################",
"###$$$###############################%%%#####&&&############################################################################################",
"###$$$###########&&&#####$$$#########%%%#####&&&############################################################################################",
"###$$$##########'&&&#####$$$#########%%%#####&&&'''#$$$#####################################################################################",
"######'#######'''&&&#####$$$''''#####'#''####'####'''$$#####################################################################################",
"#######''#%%%''####'#####'#####''&&&''##'###''######$$$##############())(####)*##())))##()####())))##())))#()###()#()####())))##############",
"########''%%%######''####'#######&&&####'##''########''##############()))###)(*#()###()#()####()####()#####()###()#()####()#################",
"###&&&#''#%%%######%%%###'#######&&&####''''##%%%#####''&&&##########()())#))(*#()###()#()####()####()#####()###()#()####()#################",
"###&&&''###'#'#####%%%''''########'#####'''###%%%#######&&&##########()#()))#(*#()###()#()####()))*#()#####()###()#()####())))##############",
"###&&&####''#'#####%%%###'#######''#####'''###%%%''#####&&&##########()##()##(*#()###()#()####()####()#####()###()#()####()#################",
"########&&'##''########%%%######''###########''###''#################()######(*#()###()#()####()####()#####()###()#()####()#################",
"########&&&###'########%%%'''###'###########''#####'#################()######(*#()###()#()####()####()#####()###()#()####()#################",
"##%%%'''&&&###$$$''''''%%%##'$$$######&&&''''#######$$$##############()######(*##())))##())))#())))##())))#(()))*##())))#())))##############",
"##%%%'########$$$############$$$#'''''&&&'##########$$$#####################################################################################",
"##%%%#########$$$############$$$######&&&###########$$$#####################################################################################",
"############################################################################################################################################",
"############################################################################################################################################",
" ########################################################################################################################################## "};