/* XPM */
static char *default[] = {
/* columns rows colors chars-per-pixel */
"64 48 2 1 ",
"  c gray100",
". c black",
/* pixels */
"                                                                ",
"                                                                ",
"                                                                ",
"                                                                ",
"  ............................................................  ",
"  .                                                          .  ",
"  .                                       ....               .  ",
"  .                                       ....               .  ",
"  .                                       ....               .  ",
"  .                                       ....               .  ",
"  .                                       ....               .  ",
"  .                                       ....               .  ",
"  .                                       ....               .  ",
"  .                                       ....               .  ",
"  .                                       ....               .  ",
"  .                                       ....               .  ",
"  .                                       ....               .  ",
"  .                      .          ...   ....               .  ",
"  .                     ..        .....   ......             .  ",
"  .                    ...       ......   .........          .  ",
"  .                   ....      .......   ..........         .  ",
"  .                  .....     ........   ...........        .  ",
"  .                 ......    .........   ............       .  ",
"  .                .......    .........   ............       .  ",
"  .               ........   ........           .......      .  ",
"  .              .........   .......              .....      .  ",
"  .             ..........  .......               .....      .  ",
"  .            ...........  ......                .....      .  ",
"  .           ....... ....  .....                 .....      .  ",
"  .          .......  ....  .....                ......      .  ",
"  .         .......   .... ......              .......       .  ",
"  .        .......    .... ......       ..............       .  ",
"  .       .......     .... ......       .............        .  ",
"  .      .......      .... ......       ............         .  ",
"  .     .......       .... ......       ...........          .  ",
"  .     ......        .... ......       ..........           .  ",
"  .                                                          .  ",
"  ............................................................  ",
"                                                                ",
"                                                                ",
"           ..       ...  .   . . .   . ...   ..  .   .          ",
"          .    .  . .  . .   . . ..  . .  . .  . .   .          ",
"          .    .  . .  . .   . . . . . .  . .  . .   .          ",
"           ..  .  . ...  .   . . . . . .  . .  . .   .          ",
"             . .  . .  . .   . . . . . .  . .  . .   .          ",
"             . .  . .  . . . . . .  .. .  . .  . . . .          ",
"          ...   ..  ...   . .  . .   . ...   ..   . .           ",
"                                                                "
};
