/* XPM */
static char * portrait_xpm[] = {
/* columns rows colors chars-per-pixel */
"24 32 2 1",
" 	c black",
".	c none",
/* pixels */
"                        ",
"  ....................  ",
"  ....................  ",
"  ....................  ",
"  .   ................  ",
"  ....................  ",
"  ....................  ",
"  .   .    . .........  ",
"  ....................  ",
"  ....................  ",
"  .        .    .  ...  ",
"  ....................  ",
"  .  .   .   .  ......  ",
"  ....................  ",
"  .   .     .     ....  ",
"  ....................  ",
"  .    ..   .   .    .  ",
"  ....................  ",
"  .    .    .  .   ...  ",
"  ....................  ",
"  .  .      .     ....  ",
"  ....................  ",
"  .   .    .    .   ..  ",
"  ....................  ",
"  .   ..    .    .  ..  ",
"  ....................  ",
"  .    ..     ..    ..  ",
"  ....................  ",
"  .    ..    ..     ..  ",
"  ....................  ",
"  ....................  ",
"                        "};
