/* XPM */
static char *gen_book[] = {
/* columns rows colors chars-per-pixel */
"24 9 2 1 ",
"  c gray100",
". c black",
/* pixels */
"   ....... ....... .....",
"   ..   .. ..   .. ..   ",
"   ..   .. ..   .. ..   ",
"   ....... ....... .....",
"                        ",
"   ... ........ ........",
"    .. ..    .. ..    ..",
"    .. ..    .. ..    ..",
"   ... ........ ........"
};
