/* XPM */
static char * save_xpm[] = {
"18 18 237 2",
"  	c None",
". 	c #4D5E8E",
"+ 	c #97A1BB",
"@ 	c #98A1BB",
"# 	c #838EAD",
"$ 	c #A6AEC6",
"% 	c #B6BCD0",
"& 	c #B5BCD0",
"* 	c #B4BBCF",
"= 	c #B1B9CD",
"- 	c #AEB5CA",
"; 	c #ABB2C7",
"> 	c #A7AFC6",
", 	c #A1AAC3",
"' 	c #96A1BC",
") 	c #62719A",
"! 	c #586791",
"~ 	c #4F608D",
"{ 	c #3A4D82",
"] 	c #546494",
"^ 	c #AEB5CB",
"/ 	c #AFB6CB",
"( 	c #99A2BD",
"_ 	c #D1D5E1",
": 	c #E9EBF1",
"< 	c #E8EAF0",
"[ 	c #E6E8EE",
"} 	c #E2E4EB",
"| 	c #DEE0E8",
"1 	c #DADDE5",
"2 	c #D5D9E4",
"3 	c #CACFDD",
"4 	c #7581A4",
"5 	c #576793",
"6 	c #4C5D8D",
"7 	c #384B80",
"8 	c #536393",
"9 	c #AAB2C8",
"0 	c #ADB4CA",
"a 	c #E8EAF1",
"b 	c #E6E9F0",
"c 	c #E4E7EE",
"d 	c #C1C7D6",
"e 	c #A0A9C1",
"f 	c #9DA6BE",
"g 	c #949EB8",
"h 	c #A1A9C2",
"i 	c #6C799E",
"j 	c #4E5E8D",
"k 	c #455788",
"l 	c #394B7D",
"m 	c #526292",
"n 	c #A4ADC5",
"o 	c #A6AEC5",
"p 	c #939DB8",
"q 	c #CFD4DF",
"r 	c #E5E8EF",
"s 	c #E4E7ED",
"t 	c #BEC4D4",
"u 	c #B3BACC",
"v 	c #C0C7D6",
"w 	c #AEB6CA",
"x 	c #A1A9C1",
"y 	c #65749B",
"z 	c #485989",
"A 	c #425383",
"B 	c #37497C",
"C 	c #506291",
"D 	c #9BA6BF",
"E 	c #A0AAC2",
"F 	c #919BB7",
"G 	c #CED3DF",
"H 	c #E6E8EF",
"I 	c #E5E8EE",
"J 	c #E4E6ED",
"K 	c #B9C0D1",
"L 	c #AFB6CA",
"M 	c #ACB3C8",
"N 	c #B3B9CE",
"O 	c #69769C",
"P 	c #455582",
"Q 	c #3F507D",
"R 	c #364879",
"S 	c #4D5D8E",
"T 	c #929DBA",
"U 	c #97A1BD",
"V 	c #7D89AC",
"W 	c #8F99B6",
"X 	c #9EA6BD",
"Y 	c #9CA5BD",
"Z 	c #9AA3BD",
"` 	c #98A2BB",
" .	c #96A0BB",
"..	c #939DBA",
"+.	c #909AB6",
"@.	c #8C96B3",
"#.	c #8490AE",
"$.	c #55638D",
"%.	c #41507C",
"&.	c #3C4C77",
"*.	c #354677",
"=.	c #4A5B8D",
"-.	c #8995B4",
";.	c #909AB8",
">.	c #8B96B4",
",.	c #8590B1",
"'.	c #8691B2",
").	c #848FB0",
"!.	c #7F8AAC",
"~.	c #7683A6",
"{.	c #6B799F",
"].	c #606F9A",
"^.	c #546491",
"/.	c #4A5A88",
"(.	c #475682",
"_.	c #404F7B",
":.	c #3D4C77",
"<.	c #3A4872",
"[.	c #354575",
"}.	c #475A8B",
"|.	c #7C89B0",
"1.	c #808DB1",
"2.	c #8390B0",
"3.	c #8591B1",
"4.	c #8490B0",
"5.	c #7F8CAD",
"6.	c #7986A9",
"7.	c #707EA4",
"8.	c #63719B",
"9.	c #536391",
"0.	c #495A88",
"a.	c #43537E",
"b.	c #3E4D79",
"c.	c #3B4A73",
"d.	c #394870",
"e.	c #35436B",
"f.	c #334373",
"g.	c #445687",
"h.	c #6F7CA3",
"i.	c #7380A7",
"j.	c #7380A6",
"k.	c #717FA4",
"l.	c #6F7CA4",
"m.	c #6B79A0",
"n.	c #64739B",
"o.	c #586895",
"p.	c #465788",
"q.	c #41527F",
"r.	c #3F4E79",
"s.	c #3B4972",
"t.	c #38466C",
"u.	c #364469",
"v.	c #324067",
"w.	c #324272",
"x.	c #415387",
"y.	c #64729C",
"z.	c #64729B",
"A.	c #6D7AA0",
"B.	c #6F7DA3",
"C.	c #6D7BA3",
"D.	c #69789F",
"E.	c #64739C",
"F.	c #606F99",
"G.	c #5D6C95",
"H.	c #5C6B91",
"I.	c #5A688E",
"J.	c #59668C",
"K.	c #586589",
"L.	c #566286",
"M.	c #455276",
"N.	c #333F62",
"O.	c #3D5085",
"P.	c #566793",
"Q.	c #7986A8",
"R.	c #CBD0DC",
"S.	c #E3E6EC",
"T.	c #E2E5EC",
"U.	c #E3E5EB",
"V.	c #E2E5EB",
"W.	c #E2E4EA",
"X.	c #DFE1E7",
"Y.	c #8D95AD",
"Z.	c #374363",
"`.	c #33426E",
" +	c #3A4D81",
".+	c #4B5C8C",
"++	c #7A86A8",
"@+	c #D9DDE5",
"#+	c #F4F5F7",
"$+	c #F5F6F8",
"%+	c #F4F4F6",
"&+	c #EFF0F3",
"*+	c #939BB1",
"=+	c #364262",
"-+	c #31416F",
";+	c #394C82",
">+	c #485988",
",+	c #7A86A7",
"'+	c #D9DCE5",
")+	c #32426F",
"!+	c #3C4F85",
"~+	c #485987",
"{+	c #7B86A4",
"]+	c #D7DAE4",
"^+	c #495B8A",
"/+	c #7480A3",
"(+	c #DADEE6",
"_+	c #929BB1",
":+	c #31416E",
"<+	c #475989",
"[+	c #667499",
"}+	c #48598A",
"|+	c #69779E",
"1+	c #EEEFF2",
"2+	c #EDEEF1",
"3+	c #EAECEF",
"4+	c #E8EAED",
"5+	c #E9EBEE",
"6+	c #EAECEE",
"7+	c #E4E7EC",
"8+	c #9099B0",
"9+	c #314270",
"0+	c #3A4D84",
"a+	c #3F5287",
"b+	c #495B8D",
"c+	c #5C6B96",
"d+	c #667395",
"e+	c #6C7797",
"f+	c #687292",
"g+	c #626D8D",
"h+	c #616C8C",
"i+	c #606B8D",
"j+	c #606C8C",
"k+	c #5F6B8B",
"l+	c #47557C",
"m+	c #334066",
"n+	c #36477C",
". + @ # $ % & * = - ; > , ' ) ! ~ { ",
"] ^ / ( _ : : < [ } | 1 2 3 4 5 6 7 ",
"8 9 0 + _ : a b c d e f g h i j k l ",
"m n o p q < b r s t u v w x y z A B ",
"C D E F G H I J } _ K L M N O P Q R ",
"S T U V W X Y Z `  ...+.@.#.$.%.&.*.",
"=.-.;.>.,.'.).!.~.{.].^./.(._.:.<.[.",
"}.|.1.2.3.4.5.6.7.8.9.0.a.b.c.d.e.f.",
"g.h.i.j.k.l.m.n.o.. p.q.r.s.t.u.v.w.",
"x.y.z.A.B.C.D.E.F.G.H.I.J.K.L.M.N.w.",
"O.P.Q.R.S.S.T.T.T.U.U.U.V.W.X.Y.Z.`.",
" +.+++@+#+$+$+$+$+#+%+%+%+%+&+*+=+-+",
";+>+,+'+#+$+$+$+#+%+%+%+%+%+&+*+=+)+",
"!+~+{+]+$+#+#+#+%+%+%+%+%+%+&+*+=+-+",
"O.^+/+(+$+#+%+%+%+%+%+%+%+%+&+_+=+:+",
"O.<+[+1 %+%+%+%+%+%+%+%+%+%+&+*+=+-+",
"O.}+|+'+1+1+2+3+4+5+6+4+4+6+7+8+=+9+",
"0+a+b+c+d+e+f+g+h+h+i+j+g+h+k+l+m+n+"};
