/* XPM */
static char * quit_xpm[] = {
"18 18 5 1",
" 	c None",
".	c #FF0000",
"+	c #FF3F3F",
"@	c #FFFFFF",
"#	c #FFBFBF",
" ................ ",
"..................",
"..................",
".............+..+.",
"....@#......+@.+..",
"....#@#....+@@+...",
".....#@#..+@@+....",
"......#@#+@@+.....",
".......#@@@+......",
".......+@@#.......",
"......+@@#@#......",
".....+@@+.#@#.....",
"....+@@+...#@#....",
"...+@@+.....#@....",
"..+..+.......#....",
"..................",
"..................",
" ................ "};
